<svg width="154" height="155" xmlns="http://www.w3.org/2000/svg">
  <g transform="translate(2 2.572)" fill="none" fill-rule="evenodd">
    <circle stroke="#FFF" stroke-width="4" cx="75" cy="75" r="75"/>
    <g transform="translate(15 15)">
      <circle fill="#6C7A89" cx="60" cy="60" r="60"/>
      <path fill="#36505F" d="M21.73228 26.4567H98.2677v56.2677H21.7323z"/>
      <path fill="#BCBFC2" d="M24.47244 29.2441H95.4803v50.74015H24.47245z"/>
      <path fill="#FFF" d="M21.73228 82.77165H98.2677v6.18898H21.7323z"/>
      <path fill="#D9D8D8" d="M45.9685 88.96063h28.01575v8.0315H45.9685z"/>
      <path fill="#FFF" d="M40.9134 96.94488H79.0866v3.5433H40.9134z"/>
      <path fill="#36505F" opacity=".37" d="M34.96063 26.4567v2.7874l-.7559.28346 2.97637 44.12598 2.40945-47.19685M84.99213 26.4567v2.7874l.80315.28346-3.02363 44.12598-2.3622-47.19685"/>
      <path fill="#EDF0F2" d="M37.1811 19.5118h45.59055v54.14174H37.1811z"/>
      <path fill="#E65336" d="M37.1811 19.5118h45.59055v7.88977H37.1811z"/>
      <path fill="#BCBFC2" d="M41.76378 34.15748h16.34646v16.34646H41.76378z"/>
      <path fill="#F2CD56" d="M41.76378 55.32283h16.34646v4.8189H41.76378zM61.88976 55.32283h16.34646v4.8189H61.88976z"/>
      <path d="M56.59843 43.1811v-1.74803h-1.1811c-.14174-.89764-.47245-1.7008-.99213-2.40945l.8504-.8504-1.22836-1.22834-.8504.8504c-.70865-.5197-1.5118-.8504-2.40944-.99213v-1.1811h-1.74803v1.22834c-.89764.14173-1.7008.47243-2.40945.99212l-.80315-.8504-1.22834 1.22835.8504.8504c-.5197.70866-.8504 1.5118-.99214 2.40944h-1.1811v1.74805h1.1811c.14173.89763.47243 1.70078.99212 2.40945l-.8504.8504 1.22835 1.22834.8504-.8504c.70866.5197 1.5118.8504 2.40944.99213v1.1811h1.74805v-1.1811c.89763-.14173 1.70078-.47244 2.40944-.99213l.8504.8504 1.22833-1.22835-.8504-.8504c.5197-.70867.8504-1.51182.99214-2.40945h1.13386v-.04725zm-6.66142 1.937c-1.55905 0-2.7874-1.22834-2.7874-2.7874 0-1.55905 1.22835-2.7874 2.7874-2.7874 1.55906 0 2.7874 1.22835 2.7874 2.7874 0 1.55906-1.22834 2.7874-2.7874 2.7874z" fill="#36505F"/>
      <path fill="#527F99" d="M41.76378 29.95276h36.47244v1.37008H41.76378z"/>
      <path fill="#39B39B" d="M60.99213 34.8189h17.2441v1.0866h-17.2441zM60.99213 39.68504h17.2441v1.0866h-17.2441zM60.99213 44.59843h17.2441v1.0866h-17.2441zM60.99213 49.46457h17.2441v1.0866h-17.2441z"/>
    </g>
  </g>
</svg>
