<svg width="59" height="10" viewBox="0 0 59 10" xmlns="http://www.w3.org/2000/svg"><g fill="#F32F61"><path d="M4.751 9.309s1.179-.915 2.468-2.263c.808-.847 1.849-1.839 2.081-2.966.505-2.436-1.113-3.452-2.66-3.444-1.486.006-1.924 1.536-1.924 1.536s-.451-1.527-1.937-1.519c-1.547.009-3.153 1.039-2.627 3.471.244 1.125 1.293 2.106 2.111 2.945 1.301 1.337 2.488 2.24 2.488 2.24"/><path d="M17.357 9.309s1.179-.915 2.468-2.263c.808-.847 1.849-1.839 2.081-2.966.505-2.436-1.113-3.452-2.66-3.444-1.486.006-1.924 1.536-1.924 1.536s-.451-1.527-1.937-1.519c-1.547.009-3.153 1.039-2.627 3.471.244 1.125 1.293 2.106 2.111 2.945 1.301 1.337 2.488 2.24 2.488 2.24"/><path d="M29.964 9.309s1.179-.915 2.468-2.263c.808-.847 1.849-1.839 2.081-2.966.505-2.436-1.113-3.452-2.66-3.444-1.486.006-1.924 1.536-1.924 1.536s-.451-1.527-1.937-1.519c-1.547.009-3.153 1.039-2.627 3.471.244 1.125 1.293 2.106 2.111 2.945 1.301 1.337 2.488 2.24 2.488 2.24"/><path d="M41.964 9.309s1.179-.915 2.468-2.263c.808-.847 1.849-1.839 2.081-2.966.505-2.436-1.113-3.452-2.66-3.444-1.486.006-1.924 1.536-1.924 1.536s-.451-1.527-1.937-1.519c-1.547.009-3.153 1.039-2.627 3.471.244 1.125 1.293 2.106 2.111 2.945 1.301 1.337 2.488 2.24 2.488 2.24"/><path d="M53.964 9.309s1.179-.915 2.468-2.263c.808-.847 1.849-1.839 2.081-2.966.505-2.436-1.113-3.452-2.66-3.444-1.486.006-1.924 1.536-1.924 1.536s-.451-1.527-1.937-1.519c-1.547.009-3.153 1.039-2.627 3.471.244 1.125 1.293 2.106 2.111 2.945 1.301 1.337 2.488 2.24 2.488 2.24"/></g></svg>