<?xml version="1.0" encoding="UTF-8" standalone="no"?>
<svg width="80px" height="80px" viewBox="0 0 80 80" version="1.1" xmlns="http://www.w3.org/2000/svg" xmlns:xlink="http://www.w3.org/1999/xlink">
    <!-- Generator: Sketch 3.7 (28169) - http://www.bohemiancoding.com/sketch -->
    <title>illustrator</title>
    <desc>Created with Sketch.</desc>
    <defs></defs>
    <g id="À-propos" stroke="none" stroke-width="1" fill="none" fill-rule="evenodd">
        <g id="Desktop-HD" transform="translate(-544.000000, -3672.000000)">
            <g id="applications" transform="translate(0.000000, 3577.000000)">
                <g id="Apps" transform="translate(392.000000, 95.000000)">
                    <g id="illustrator" transform="translate(145.000000, 0.000000)">
                        <g transform="translate(7.000000, 0.000000)" id="Layer_1">
                            <g>
                                <g id="Shape_13_" fill="#FFCC66">
                                    <path d="M75,0 L5,0 C2.24,0 0,2.2375 0,5 L0,75 C0,77.76 2.24,80 5,80 L75,80 C77.76,80 80,77.76 80,75 L80,5 C80,2.2375 77.76,0 75,0 L75,0 Z" id="Shape"></path>
                                </g>
                                <g id="Illustrator_Logo" transform="translate(17.000000, 22.000000)" fill="#FFFFFF">
                                    <path d="M10.5,0.5 L0.4975,35.505 L7.0875,35.505 L10.0975,25.8125 L21.2,25.8125 L24.3675,35.505 L31.215,35.505 L20.5,0.5 L10.5,0.5 L10.5,0.5 Z M11.135,21.095 L13.835,12.6725 C14.4575,10.6425 14.9775,8.2575 15.495,6.28 L15.6,6.28 C16.12,8.2575 16.69,10.5925 17.365,12.6725 L20.115,21.095 L11.135,21.095 L11.135,21.095 Z M36.87,7.2425 C39.1025,7.2425 40.5025,5.77 40.5025,3.895 C40.45,1.9675 39.1025,0.495 36.9225,0.495 C34.795,0.495 33.3425,1.9675 33.3425,3.895 C33.3425,5.77 34.7425,7.2425 36.87,7.2425 L36.87,7.2425 Z M33.705,35.505 L40.14,35.505 L40.14,10.795 L33.705,10.795 L33.705,35.505 L33.705,35.505 Z" id="Shape"></path>
                                </g>
                            </g>
                        </g>
                    </g>
                </g>
            </g>
        </g>
    </g>
</svg>