<svg width="140" height="140" viewBox="0 0 140 140" xmlns="http://www.w3.org/2000/svg"><title>Group 9</title><desc>Created with Sketch.</desc><defs><filter x="-50%" y="-50%" width="200%" height="200%" filterUnits="objectBoundingBox" id="a"><feOffset in="SourceAlpha" result="shadowOffsetOuter1"/><feGaussianBlur stdDeviation="5" in="shadowOffsetOuter1" result="shadowBlurOuter1"/><feColorMatrix values="0 0 0 0 0 0 0 0 0 0 0 0 0 0 0 0 0 0 0.6 0" in="shadowBlurOuter1" result="shadowMatrixOuter1"/><feMerge><feMergeNode in="shadowMatrixOuter1"/><feMergeNode in="SourceGraphic"/></feMerge></filter></defs><g transform="translate(0 0)" fill="none"><rect fill-opacity=".8" fill="#4A7E9C" width="140" height="140" rx="8"/><g filter="url(#a)"><path d="M103.366 31h-67.541c-2.663 0-4.824 2.159-4.824 4.824v67.541c0 2.663 2.161 4.824 4.824 4.824h67.541c2.663 0 4.824-2.161 4.824-4.824v-67.541c0-2.665-2.161-4.824-4.824-4.824z" id="Shape" fill="#fff"/><path d="M100.953 45.473h-62.717c-1.334 0-2.412 1.078-2.412 2.412v4.824c0 1.332 1.078 2.412 2.412 2.412h62.717c1.334 0 2.412-1.081 2.412-2.412v-4.824c0-1.334-1.078-2.412-2.412-2.412zm0 14.473h-62.717c-1.334 0-2.412 1.078-2.412 2.412v14.473c0 1.332 1.078 2.412 2.412 2.412h62.717c1.334 0 2.412-1.081 2.412-2.412v-14.473c0-1.334-1.078-2.412-2.412-2.412zm-36.183 24.122h-26.534c-1.334 0-2.412 1.078-2.412 2.412v14.473c0 1.332 1.078 2.412 2.412 2.412h26.534c1.332 0 2.412-1.081 2.412-2.412v-14.473c0-1.334-1.081-2.412-2.412-2.412zm36.183 0h-26.534c-1.334 0-2.412 1.078-2.412 2.412v14.473c0 1.332 1.078 2.412 2.412 2.412h26.534c1.334 0 2.412-1.081 2.412-2.412v-14.473c0-1.334-1.078-2.412-2.412-2.412z" id="Shape" fill="#00BAC8"/><path d="M38.236 35.824c-1.334 0-2.412 1.078-2.412 2.412 0 1.332 1.078 2.412 2.412 2.412 1.334 0 2.412-1.081 2.412-2.412 0-1.334-1.078-2.412-2.412-2.412zm7.237 0c-1.334 0-2.412 1.078-2.412 2.412 0 1.332 1.078 2.412 2.412 2.412 1.334 0 2.412-1.081 2.412-2.412 0-1.334-1.078-2.412-2.412-2.412zm7.237 0c-1.334 0-2.412 1.078-2.412 2.412 0 1.332 1.078 2.412 2.412 2.412 1.334 0 2.412-1.081 2.412-2.412 0-1.334-1.078-2.412-2.412-2.412z" fill="#009FBA"/></g></g></svg>