<?xml version="1.0" encoding="UTF-8" standalone="no"?>
<svg width="140px" height="140px" viewBox="0 0 140 140" version="1.1" xmlns="http://www.w3.org/2000/svg" xmlns:xlink="http://www.w3.org/1999/xlink">
    <!-- Generator: Sketch 3.7 (28169) - http://www.bohemiancoding.com/sketch -->
    <title>Group 6</title>
    <desc>Created with Sketch.</desc>
    <defs>
        <filter x="-50%" y="-50%" width="200%" height="200%" filterUnits="objectBoundingBox" id="filter-1">
            <feOffset dx="0" dy="0" in="SourceAlpha" result="shadowOffsetOuter1"></feOffset>
            <feGaussianBlur stdDeviation="5" in="shadowOffsetOuter1" result="shadowBlurOuter1"></feGaussianBlur>
            <feColorMatrix values="0 0 0 0 0   0 0 0 0 0   0 0 0 0 0  0 0 0 0.6 0" type="matrix" in="shadowBlurOuter1" result="shadowMatrixOuter1"></feColorMatrix>
            <feMerge>
                <feMergeNode in="shadowMatrixOuter1"></feMergeNode>
                <feMergeNode in="SourceGraphic"></feMergeNode>
            </feMerge>
        </filter>
    </defs>
    <g id="Accueil" stroke="none" stroke-width="1" fill="none" fill-rule="evenodd">
        <g id="Accueil_Desktop_HD-Copy" transform="translate(-414.000000, -1737.000000)">
            <g id="Content_Text" transform="translate(375.000000, 916.000000)">
                <g id="Text-mobile-first" transform="translate(0.000000, 786.000000)">
                    <g id="Texte-Code-Copy" transform="translate(39.000000, 35.000000)">
                        <g id="Logo-mobile">
                            <g id="Group-6">
                                <rect id="Rectangle-348-Copy" fill-opacity="0.8" fill="#4A7E9C" x="0" y="0" width="140" height="140" rx="8"></rect>
                                <g id="09" filter="url(#filter-1)" transform="translate(32.087459, 32.000000)">
                                    <g id="Layer_1">
                                        <g id="Group">
                                            <rect id="Rectangle-path" fill="#FFFFFF" x="0.153210034" y="0.0819342254" width="76.3730848" height="76.507031" rx="6"></rect>
                                            <rect id="Rectangle-path" fill="#00BAC8" x="4.69922699" y="14.667612" width="67.2810509" height="55.6858404" rx="4"></rect>
                                            <ellipse id="Oval" fill="#00BAC8" cx="6.1826641" cy="7.88988069" rx="1.48343711" ry="1.68087736"></ellipse>
                                            <ellipse id="Oval" fill="#00BAC8" cx="11.255062" cy="7.88988069" rx="1.48343711" ry="1.68087736"></ellipse>
                                            <ellipse id="Oval" fill="#00BAC8" cx="16.3274598" cy="7.88988069" rx="1.48343711" ry="1.68087736"></ellipse>
                                            <rect id="Rectangle-path" fill="#00BAC8" x="24.5102903" y="6.26322518" width="47.4699875" height="3.36175473" rx="10"></rect>
                                        </g>
                                    </g>
                                </g>
                                <g id="iphone-6-6-plus-space-grey-front" transform="translate(60.886671, 55.377592)">
                                    <g id="Layer_1">
                                        <g id="Bevel_9_" fill="#FFFFFF">
                                            <path d="M16.7526254,0 L2.09407817,0 C1.15593115,0 0,1.23622495 0,2.373979 L0,3.5591889 L0,4.74558521 L0,33.2190964 L0,34.4054927 L0,35.591889 L0,35.5930754 C0,36.6691369 1.09310881,37.9646817 2.09407817,37.9646817 L16.7526254,37.9646817 C17.7473125,37.9646817 18.8456565,36.7509982 18.8467036,35.5930754 L18.8467036,35.591889 L18.8467036,34.4054927 L18.8467036,33.2190964 L18.8467036,4.74558521 L18.8467036,3.5591889 L18.8467036,2.373979 C18.8467036,1.23622495 17.7232306,0 16.7526254,0 L16.7526254,0 Z" id="Shape"></path>
                                        </g>
                                        <g id="Home_Btn_2_" transform="translate(7.329274, 32.032700)" fill="#00BAC8">
                                            <ellipse id="Oval" cx="2.09407817" cy="2.3727926" rx="2.09407817" ry="2.3727926"></ellipse>
                                        </g>
                                        <g id="Display_8_" transform="translate(2.094078, 4.745585)" fill="#00BAC8">
                                            <rect id="Rectangle-path" x="0" y="0.0011863963" width="14.6585472" height="26.1007186"></rect>
                                        </g>
                                    </g>
                                </g>
                            </g>
                        </g>
                    </g>
                </g>
            </g>
        </g>
    </g>
</svg>