<?xml version="1.0" encoding="UTF-8" standalone="no"?>
<svg width="1423px" height="224px" viewBox="0 0 1423 224" version="1.1" xmlns="http://www.w3.org/2000/svg" xmlns:xlink="http://www.w3.org/1999/xlink">
    <!-- Generator: Sketch 3.7 (28169) - http://www.bohemiancoding.com/sketch -->
    <title>Group 8</title>
    <desc>Created with Sketch.</desc>
    <defs></defs>
    <g id="Accueil" stroke="none" stroke-width="1" fill="none" fill-rule="evenodd">
        <g id="Accueil_Desktop_HD-Copy" transform="translate(-10.000000, -1758.000000)">
            <g id="Group-11" transform="translate(-73.000000, 1568.511915)">
                <g id="Page-1" transform="translate(752.962935, 211.271988) rotate(-270.000000) translate(-752.962935, -211.271988) translate(551.462935, -541.228012)">
                    <g id="Group-8" transform="translate(180.000000, 0.000000)">
                        <polygon id="Fill-9-Copy" fill="#97DCCE" points="15.425 1220.843 45.423 1220.843 45.423 1190.843 15.425 1190.843"></polygon>
                        <polygon id="Fill-9-Copy-2" fill="#97DCCE" points="114.422 1180.316 144.42 1180.316 144.42 1150.316 114.422 1150.316"></polygon>
                        <polygon id="Fill-9-Copy-10" fill="#97DCCE" points="39.424 1421.79 69.422 1421.79 69.422 1391.79 39.424 1391.79"></polygon>
                        <polygon id="Fill-9-Copy-3" fill="#97DCCE" points="114.422 1058.738 144.42 1058.738 144.42 1028.738 114.422 1028.738"></polygon>
                        <polygon id="Fill-9-Copy-4" fill="#97DCCE" points="139.421 824.875007 169.419 824.875007 169.419 794.875007 139.421 794.875007"></polygon>
                        <polygon id="Fill-9-Copy-7" fill="#97DCCE" points="109.421 284.80288 139.419 284.80288 139.419 254.80288 109.421 254.80288"></polygon>
                        <polygon id="Fill-9-Copy-8" fill="#97DCCE" points="0.426 151.779885 30.424 151.779885 30.424 121.779885 0.426 121.779885"></polygon>
                        <polygon id="Fill-9-Copy-9" fill="#97DCCE" points="0.426 191.779885 30.424 191.779885 30.424 161.779885 0.426 161.779885"></polygon>
                        <polygon id="Fill-9-Copy-6" fill="#97DCCE" points="164.419 483.142112 194.417 483.142112 194.417 453.142112 164.419 453.142112"></polygon>
                        <polygon id="Fill-9-Copy-5" fill="#97DCCE" points="154.42 735.74524 184.418 735.74524 184.418 705.74524 154.42 705.74524"></polygon>
                        <polygon id="Fill-72-Copy" fill="#009FBA" points="15.425 1018.21 45.423 1018.21 45.423 988.211 15.425 988.211"></polygon>
                        <polygon id="Fill-104-Copy-2" fill="#009FBA" points="15.425 1178.63 45.423 1178.63 45.423 1148.632 15.425 1148.632"></polygon>
                        <polygon id="Fill-110-Copy" fill="#00BAC8" points="0.426 1340.736 30.424 1340.736 30.424 1310.738 0.426 1310.738"></polygon>
                        <polygon id="Fill-110-Copy-12" fill="#00BAC8" points="39.424 1340.736 69.422 1340.736 69.422 1310.738 39.424 1310.738"></polygon>
                        <polygon id="Fill-110-Copy-9" fill="#00BAC8" points="124.422 483.140112 154.42 483.140112 154.42 453.142112 124.422 453.142112"></polygon>
                        <polygon id="Fill-110-Copy-5" fill="#00BAC8" points="139.421 864.32124 169.419 864.32124 169.419 834.32324 139.421 834.32324"></polygon>
                        <polygon id="Fill-110-Copy-10" fill="#00BAC8" points="109.421 324.249112 139.419 324.249112 139.419 294.251112 109.421 294.251112"></polygon>
                        <polygon id="Fill-110-Copy-7" fill="#00BAC8" points="114.422 735.74524 144.42 735.74524 144.42 705.74724 114.422 705.74724"></polygon>
                        <polygon id="Fill-110-Copy-4" fill="#00BAC8" points="0.426 1261.369 30.424 1261.369 30.424 1231.371 0.426 1231.371"></polygon>
                        <polygon id="Fill-110-Copy-2" fill="#00BAC8" points="192.988 1099.577 222.986 1099.577 222.986 1069.579 192.988 1069.579"></polygon>
                        <polygon id="Fill-110-Copy-3" fill="#00BAC8" points="76.424 1300.209 106.422 1300.209 106.422 1270.211 76.424 1270.211"></polygon>
                        <polygon id="Fill-110-Copy-6" fill="#00BAC8" points="179.418 864.32124 209.416 864.32124 209.416 834.32324 179.418 834.32324"></polygon>
                        <polygon id="Fill-110-Copy-11" fill="#00BAC8" points="149.418 324.249112 179.416 324.249112 179.416 294.251112 149.418 294.251112"></polygon>
                        <polygon id="Fill-110-Copy-8" fill="#00BAC8" points="178.418 611.26588 208.416 611.26588 208.416 581.26788 178.418 581.26788"></polygon>
                        <polygon id="Fill-111-Copy" fill="#009FBA" points="139.421 903.31924 169.419 903.31924 169.419 873.32124 139.421 873.32124"></polygon>
                        <polygon id="Fill-111-Copy-6" fill="#009FBA" points="139.421 988.211 169.419 988.211 169.419 958.213 139.421 958.213"></polygon>
                        <polygon id="Fill-111-Copy-5" fill="#009FBA" points="109.421 363.247112 139.419 363.247112 139.419 333.249112 109.421 333.249112"></polygon>
                        <polygon id="Fill-111-Copy-2" fill="#009FBA" points="153.42 1139.79 183.418 1139.79 183.418 1109.792 153.42 1109.792"></polygon>
                        <polygon id="Fill-111-Copy-3" fill="#009FBA" points="138.421 611.26588 168.419 611.26588 168.419 581.26788 138.421 581.26788"></polygon>
                        <polygon id="Fill-111-Copy-4" fill="#009FBA" points="123.422 572.26788 153.42 572.26788 153.42 542.26988 123.422 542.26988"></polygon>
                        <polygon id="Fill-112-Copy" fill="#00BAC8" points="0.426 1421.788 30.424 1421.788 30.424 1391.79 0.426 1391.79"></polygon>
                        <polygon id="Fill-9-Copy" fill="#00BAC8" points="15.425 688.305935 45.423 688.305935 45.423 658.305935 15.425 658.305935"></polygon>
                        <polygon id="Fill-70" points="0.426 970.303935 30.424 970.303935 30.424 940.305935 0.426 940.305935"></polygon>
                        <polygon id="Fill-72-Copy" fill="#009FBA" points="15.425 485.672935 45.423 485.672935 45.423 455.673935 15.425 455.673935"></polygon>
                        <polygon id="Fill-96" points="39.424 970.303935 69.422 970.303935 69.422 940.305935 39.424 940.305935"></polygon>
                        <polygon id="Fill-104-Copy-2" fill="#009FBA" points="15.425 646.092935 45.423 646.092935 45.423 616.094935 15.425 616.094935"></polygon>
                        <polygon id="Fill-110-Copy" fill="#97DCCE" points="0.426 808.198935 30.424 808.198935 30.424 778.200935 0.426 778.200935"></polygon>
                        <polygon id="Fill-111-Copy" fill="#009FBA" points="0.426 848.723935 30.424 848.723935 30.424 818.725935 0.426 818.725935"></polygon>
                        <polygon id="Fill-112-Copy" fill="#00BAC8" points="0.426 889.250935 30.424 889.250935 30.424 859.252935 0.426 859.252935"></polygon>
                        <polygon id="Fill-176" points="76.424 971.989935 106.422 971.989935 106.422 941.991935 76.424 941.991935"></polygon>
                        <polygon id="Fill-229" points="191.988 970.303935 221.986 970.303935 221.986 940.305935 191.988 940.305935"></polygon>
                        <polygon id="Fill-245" points="191.988 970.303935 221.986 970.303935 221.986 940.305935 191.988 940.305935"></polygon>
                        <polygon id="Fill-9-Copy" fill="#009FBA" points="107.422 786.791015 137.42 786.791015 137.42 756.791015 107.422 756.791015"></polygon>
                        <polygon id="Fill-70" points="0.426 435.619232 30.424 435.619232 30.424 405.621232 0.426 405.621232"></polygon>
                        <polygon id="Fill-96" points="39.424 435.619232 69.422 435.619232 69.422 405.621232 39.424 405.621232"></polygon>
                        <polygon id="Fill-104-Copy-2" fill="#00BAC8" points="15.425 111.408232 45.423 111.408232 45.423 81.4102317 15.425 81.4102317"></polygon>
                        <polygon id="Fill-104-Copy-3" fill="#00BAC8" points="54.423 111.408232 84.421 111.408232 84.421 81.4102317 54.423 81.4102317"></polygon>
                        <polygon id="Fill-104-Copy-5" fill="#00BAC8" points="54.423 70.8812317 84.421 70.8812317 84.421 40.8832317 54.423 40.8832317"></polygon>
                        <polygon id="Fill-104-Copy-6" fill="#00BAC8" points="0.423 30.3552317 30.421 30.3552317 30.421 0.357231727 0.423 0.357231727"></polygon>
                        <polygon id="Fill-104-Copy-4" fill="#00BAC8" points="93.423 111.408232 123.421 111.408232 123.421 81.4102317 93.423 81.4102317"></polygon>
                        <polygon id="Fill-104-Copy-7" fill="#00BAC8" points="40.423 191.619232 70.421 191.619232 70.421 161.621232 40.423 161.621232"></polygon>
                        <polygon id="Fill-110-Copy" fill="#97DCCE" points="0.426 273.514232 30.424 273.514232 30.424 243.516232 0.426 243.516232"></polygon>
                        <polygon id="Fill-111-Copy" fill="#009FBA" points="0.426 314.039232 30.424 314.039232 30.424 284.041232 0.426 284.041232"></polygon>
                        <polygon id="Fill-112-Copy" fill="#00BAC8" points="0.426 354.566232 30.424 354.566232 30.424 324.568232 0.426 324.568232"></polygon>
                        <polygon id="Fill-176" points="76.424 437.305232 106.422 437.305232 106.422 407.307232 76.424 407.307232"></polygon>
                        <polygon id="Fill-229" points="191.988 435.619232 221.986 435.619232 221.986 405.621232 191.988 405.621232"></polygon>
                        <polygon id="Fill-245" points="191.988 435.619232 221.986 435.619232 221.986 405.621232 191.988 405.621232"></polygon>
                    </g>
                </g>
            </g>
        </g>
    </g>
</svg>