<svg width="238" height="238" xmlns="http://www.w3.org/2000/svg" xmlns:xlink="http://www.w3.org/1999/xlink"><defs><circle id="a" cx="119" cy="118.625182" r="118.625182"/></defs><g fill="none" fill-rule="evenodd"><mask id="b" fill="#fff"><use xlink:href="#a"/></mask><use fill="#D8D8D8" xlink:href="#a"/><g mask="url(#b)"><path fill="#009FBA" d="M63.739797 178.778909l-70.8690285 31.055219-25.3522154 25.515257-16.96996663 66.217366H118.843684V178.778909"/><path fill="#0475A5" d="M118.843684 178.778909v122.787842h168.6297l-16.969967-66.217366-25.352215-25.515257-70.869029-31.055219"/><path fill="#00A4C1" d="M171.000393 178.820271h-52.156709v61.575277h3.08967l10.79826-9.428625 42.381342-39.547154"/><path fill="#00BAC8" d="M70.0928 178.820271l-7.548922 12.599498 42.200681 39.547154 10.79826 9.428625h3.300229v-61.575277"/><path fill="#FBC2AA" d="M74.654468 179.17662l-6.812286 9.080548 38.098933 36.464731 9.956663 8.69429h2.945906V179.17662"/><path fill="#D58F9D" d="M166.201449 179.17662h-47.357765v54.239569h2.946541l9.956664-8.69429 38.095752-36.464731"/><path fill="#00B7C9" d="M63.655192 178.867996l-70.8696646 31.055219-25.3515792 25.515258-2.4796241 9.672342 28.1041019-25.421079 70.869028-31.055219h54.916866v-9.766521"/><path fill="#0389AF" d="M270.418176 235.438473l-25.352215-25.515258-70.869029-31.055219h-55.353248v9.766521h55.625511l70.869028 31.055219 27.394184 24.779014"/><path fill="#00BAC8" d="M70.315444 178.818998l-6.223233 9.814882h54.751473v-9.814882"/><path fill="#00A4C1" d="M170.910063 178.818998h-52.066379v9.814882h55.47284"/><path fill="#00BAC8" d="M112.292209 301.566751h6.468778v-64.216082l-6.468778-.041362"/><path fill="#00A4C1" d="M118.760987 237.351942v64.214809h6.63608v-64.257444"/><path fill="#A15F98" d="M166.201449 178.815816h-47.357765v9.818701h50.609011"/><path fill="#C37F9B" d="M74.654468 178.815816l-6.41916 9.818701h50.608376v-9.818701"/><path fill="#F9B3A4" d="M118.648393 177.47187H96.012441l-13.579409-32.781605.059796 43.944252 21.109883 24.143312h15.083849V177.47187"/><path fill="#C37F9B" d="M141.361316 177.47187H118.68656v35.305959h15.084486l19.306462-24.143312 3.666637-43.944252"/><path fill="#FBC2AA" d="M95.91066 183.174097l18.113088 29.505736h4.819936v-29.505736"/><path fill="#D58F9D" d="M118.687196 177.455325v35.205417h5.681889l21.35352-35.205417"/><path fill="#FBC2AA" d="M105.850149 183.187461l-.004453 4.442914 10.26773 25.147454h2.730258v-29.590368"/><path fill="#D58F9D" d="M134.005777 177.47187h-15.318581v35.305959h3.21944l12.103594-30.002716"/><path d="M244.878939 209.923215l.066794.066816.028626-.066816h-.09542zm-18.712955 43.321913l2.228354 48.321623h59.065687l-17.22887-66.128278-25.285422-25.448442-18.779749 43.255097z" fill="#045190"/><path fill="#00BAC8" d="M-7.4021301 209.923215l-25.3522154 25.515258-16.70915445 66.128278H9.4679645l2.2283538-48.321623-18.8090105-43.321913"/><path d="M145.173627 45.3470355V27.5543797v17.7926558zm31.763742 22.715369l-5.86573-32.9095089-18.18815-23.5158826-2.164741-3.62458307v3.95356997l-3.47071-5.6430482v3.90838995L127.570077 3.6013327l-11.864409 2.721619.917932-4.64845143-8.494844 5.4101484-6.706053-2.1470055 2.118304 3.07478676H89.272036l5.485326 1.9529223L73.347227 21.588708 60.337152 47.0855118l-2.096039 33.4828496 2.789418 17.5247574 7.940776 10.3653152 99.48903-.081452 8.995475-13.0818428-.518443-27.2327347z" fill="#01639D"/><path fill="#A15F98" d="M154.489074 171.720008l1.197828-14.359611-18.099729 17.40958-18.912063 4.292102v7.017539h21.819165"/><path fill="#C37F9B" d="M82.433032 171.644283v-14.283886l17.35546 17.38349 18.885982 4.318192v7.016903H97.686091"/><path fill="#B06F99" d="M139.28118 172.27744v11.287369l-1.130398 2.514809H118.67511V172.27744"/><path fill="#D58F9D" d="M98.055045 172.27744v11.287369l1.130398 2.514809h19.475672V172.27744"/><path fill="#FBC2AA" d="M118.810605 38.2728624H81.866879L70.584526 90.8789512l2.282425 47.6063788 14.401284 30.528331 21.335708 14.318248 10.234652.80815V38.2728624"/><path fill="#E8A0A1" d="M155.81031 38.2728624h-10.636683v7.0741731-7.0741731h-26.335032V184.140059l10.234651-.80815 21.335708-14.318248 14.401285-30.528331 3.693355-47.5306545"/><path fill="#01639D" d="M80.024018 27.0682172L68.798281 85.0354564 78.599729 51.19753l17.101645-6.8762719 26.945715 3.4260455-11.257544-4.6172708 22.990275 1.8231092-7.170427-4.9748929 17.963598 5.3687864V27.5741062"/><path fill="#C37F9B" d="M113.299835 85.0354564l-1.559784 11.2975506-3.588394 13.687001-2.692091 9.872153 7.003125 2.560625 1.942097.305442h4.438896V85.0354564"/><path fill="#B06F99" d="M129.535711 110.020008l-3.924906-13.722636-1.223272-11.2619156h-5.543849v37.7227716h4.438896l1.942096-.306078 7.003125-2.559989"/><path fill="#E8A0A1" d="M113.464592 109.183859l-6.760125 6.131756-1.244901 4.576546 7.840269-3.312778 5.543849-2.70571v-4.689814"/><path fill="#D58F9D" d="M132.227801 119.892161l-1.235359-4.548547-6.769666-6.159118h-5.379092v4.689813l5.543849 2.705711"/><path fill="#F9B3A4" d="M117.149041 85.0354564l-6.237864 26.4634016 2.546417 2.374815h5.38609V85.0354564"/><path fill="#E8A0A1" d="M125.916783 110.71998l-5.37782-25.6845236h-1.695279v28.8388526h5.386725"/><path fill="#B06F99" d="M115.025648 122.75441l-1.615763-.151448-1.284341-.273626 1.017803-3.497951h2.95672"/><path fill="#A15F98" d="M122.516046 122.762683l1.561057-.126632 1.313602-.24499-1.042612-3.559676h-2.95672"/><path fill="#D58F9D" d="M113.47477 109.183859l-6.775392 6.162937 6.353639-28.5219562h3.823761"/><path fill="#C37F9B" d="M124.229773 109.183859l6.775391 6.162937-6.353638-28.5219562h-3.823761"/><path fill="#045190" d="M164.12831 80.8699858l-9.739744-1.7270222H133.61265l-9.062269 3.8854818-3.068678 8.1553119 6.499949 14.7032327 6.006313 3.671673 19.268295-.543433 7.312282-4.908078 3.559768-13.1524765 2.760156-2.5014459V81.31415"/><path fill="#045190" d="M159.152523 82.9495394l-5.341561-2.5631707h-19.169058l-8.361257 3.5844937-2.831402 7.5240643 5.997408 13.5660963 5.541304 3.387866 17.777848-.502071 6.747402-4.528184 3.283689-12.1349716-.204833-2.6064417-1.730266-3.9955684"/><path fill="#D58F9D" d="M158.522757 83.3790678l-5.206702-2.4989006H134.63109l-8.150699 3.4941337-2.75952 7.3344355 5.845374 13.2237466 5.401992 3.302596 17.328743-.489344 6.577555-4.413643 3.200993-11.8288929-.20038-2.5408989-1.686374-3.8950268"/><path fill="#0475A5" d="M73.672924 80.8699858l9.739744-1.7270222h20.775916l9.062269 3.8854818 3.068678 8.1553119-6.499948 14.7032327-6.006314 3.671673-19.268294-.543433-7.312919-4.908078-3.559132-13.1524765-2.760792-2.5014459V81.31415"/><path fill="#0475A5" d="M78.648711 82.9495394l5.341561-2.5631707h19.169058l8.361257 3.5844937 2.831402 7.5240643-5.997407 13.5660963-5.541305 3.387866-17.777848-.502071-6.747402-4.528184-3.283689-12.1349716.204833-2.6064417 1.730266-3.9955684m42.002846 4.9978012h-1.52098l-1.102408 1.5043038-3.068042-8.1553119 3.068042 1.6347531h2.623388"/><path fill="#045190" d="M118.841775 89.6794535h1.521617l1.101772 1.5043038 3.068042-8.1553119-3.068042 1.6347531h-2.623389"/><path fill="#F9B3A4" d="M79.308375 83.3790678l5.206702-2.4989006h18.684965l8.150699 3.4941337 2.75952 7.3344355-5.845373 13.2237466-5.401993 3.302596-17.328742-.489344-6.577556-4.413643-3.200356-11.8288929.199744-2.5408989 1.686373-3.8950268"/><path fill="#01639D" d="M154.478896 27.6466488l-9.305269-.0725426v17.7729293l2.526697.7553336 11.947106 13.4884633 3.876559 20.3093738 4.589022 23.7602368 6.119545-35.5980385m-90.449662-40.235672l9.30527-.0725426v17.7729293l-2.526698.7553336L78.61436 59.7709162 74.737801 80.08029l-4.589022 23.760236-6.119544-35.5980378"/><path fill="#E8A0A1" d="M82.020186 101.1354523l-3.227074-3.530405V87.4719959l3.064225-3.3687751 23.211647.0050907 4.183809 5.610595.18066 7.8861408-3.047049 3.530405"/><path fill="#FFF" d="M94.893493 95.0196047h4.447165l7.388618-2.3499974v-1.2593136l-5.709878-4.6166345h-6.125905.041984-6.125269l-6.964957 4.6166345v1.2593136l8.643061 2.3499974h4.447165"/><path fill="#ADDFE5" d="M81.845251 92.6696073v-1.2593136l6.964957-4.6166345h12.208554l5.710514 4.6166345v1.2593136l-5.710514-4.4327328H88.810208"/><path fill="#0475A5" d="M81.845251 91.5547425v-.8985097l6.964957-4.6166345h12.208554l5.710514 4.6166345v.8985097l-5.710514-4.4327327H88.810208"/><path fill="#0475A5" d="M95.616133 94.3870844l-2.331406-2.33218v-3.2987778l2.331406-2.3321799h3.297684l2.331406 2.3321799v3.2987778l-2.331406 2.33218"/><path fill="#ADDFE5" d="M97.399834 91.1252142l-.928746-.929054v-1.3140386l.928746-.9296903h1.313603l.928746.9296903v1.3140386l-.928746.929054"/><path fill="#C37F9B" d="M94.671484 99.1239868h-7.44905l-4.646273-2.7038015h12.095323"/><path fill="#B06F99" d="M94.551256 99.1239868h7.44905l4.646274-2.7038015H94.551256"/><path fill="#C37F9B" d="M131.788237 101.1080897l-3.227073-3.530405V87.4446333l3.064225-3.368775 23.211647.0050907 4.183809 5.6105949.18066 7.8861408-3.04705 3.530405"/><path fill="#ADDFE5" d="M144.661544 94.9922421h4.447166l7.388618-2.3506337v-1.2586772l-5.710514-4.6166345h-6.12527.041985-6.12527l-6.964957 4.6166345v1.2586772l8.643061 2.3506337h4.447166"/><path fill="#00BAC8" d="M131.613938 92.6416084v-1.2593136l6.964958-4.6166345h12.208554l5.710514 4.6166345v1.2593136l-5.710514-4.4327328h-12.208554"/><path fill="#045190" d="M131.613938 91.5267436v-.8985097l6.964958-4.6166345h12.208554l5.710514 4.6166345v.8985097l-5.710514-4.4327327h-12.208554"/><path fill="#045190" d="M145.384185 94.3597218l-2.331407-2.3321799v-3.2987778l2.331407-2.3328163h3.297683l2.331407 2.3328163v3.2987778l-2.331407 2.3321799"/><path fill="#00BAC8" d="M147.167886 90.9171315l-.928746-.9290539v-1.1339549l.928746-.9290539 1.313602-.1807201.928746.9296903v1.3140386l-.928746.9290539"/><path fill="#B06F99" d="M144.439536 99.0966243h-7.44905l-4.646274-2.7038015h12.095324"/><path fill="#A15F98" d="M144.319308 99.0966243h7.44905l4.646273-2.7038015h-12.095323"/><path fill="#0475A5" d="M86.707807 79.405135l-7.106177-1.0913202 1.220728-.8972371 4.634187-2.8030702 16.162085 1.2122245 4.243605.3207145.804701 3.7003073h-5.048306"/><path fill="#045190" d="M151.16849 79.405135l7.106177-1.0913202-1.220728-.8972371-4.634187-2.8030702-16.162085 1.2122245-4.243605.3207145-.804701 3.7003073h5.048306"/><path fill="#F9B3A4" d="M71.185666 99.9276821l-8.553367-7.9319571-2.996795 3.8702096 4.615739 22.8095474 8.195228 11.364366"/><path fill="#FBC2AA" d="M67.036844 100.764467l-3.798315-3.5106785-1.389938 1.7944741 2.139932 10.5759424 3.742336 5.280336"/><path fill="#E8A0A1" d="M166.529691 99.7469621l8.733391-7.7512371 2.996795 3.8702096-4.615103 22.8089104-8.070546 11.387911"/><path fill="#D58F9D" d="M170.498489 100.764467l3.798315-3.5106785 1.389938 1.7944741-2.139932 10.5759424-3.742336 5.280336"/><path d="M118.843684 135.650443v-.020999m0 0v.020999" stroke="#000" stroke-width="1.33333"/><path fill="#A15F98" d="M118.843684 135.650443v11.858164h.096691l-.096691.015909 5.588378.951962 12.337688-8.507207-11.853596-5.650048-6.07247 1.310221"/><path fill="#B06F99" d="M118.843684 135.629444l-6.072471-1.310221-11.853595 5.650048 12.337688 8.507207 5.588378-.951962-.096692-.016545h.096692v-11.857528"/><path fill="#D58F9D" d="M118.843684 147.525152v-6.126665h-8.814179l-9.111887-1.42858 12.337688 8.506571"/><path fill="#C37F9B" d="M136.76975 139.969271l-9.209215 1.428579h-8.716851v6.126666l5.588378.951962"/><path fill="#045190" d="M124.308653 149.771426l-5.464969-.963416v5.053163"/><path fill="#0475A5" d="M118.843684 148.808646l-.026718-.00509-5.534943.968507 5.513315 4.126017.048346-.036271"/><path fill="#F9B3A4" d="M93.268824 212.777829l22.628954 20.63836h2.945906v-20.63836"/><path fill="#C37F9B" d="M118.843684 212.777829v20.63836h2.945905l22.587606-20.63836"/><path fill="#FBC2AA" d="M113.299835 116.58002h5.543849v-7.395524l-7.932507 2.314998"/><path fill="#F9B3A4" d="M125.916783 110.71998l-7.073099-1.524667v7.384707h5.543849"/><path fill="#0475A5" d="M85.28161 45.2064047l10.050811-4.1762884 12.034891 2.087826-5.908986-3.7913037 17.552659 2.2023669-7.223225-4.2653757 22.604146 2.0630088 9.950939 3.0098803-11.116324-8.7541063-24.712908-2.3468157-17.819832 6.9850857m8.862525 100.1615604l-.867678-.310533 2.008254-5.617595.867677.310533m1.484085 3.373866l-.867677-.310533 2.008253-5.617595.867678.310534m1.483449 3.373229l-.867678-.310533 2.008254-5.617595.867677.310533m1.484085 3.373866l-.867677-.310533 2.008253-5.617595.867678.310533m1.536247 5.617595l-.867677-.310533 2.008253-5.617595.867678.310533m23.434292 12.349418l.867677-.310533-2.008253-5.617595-.867678.310533m-1.484085 3.373866l.867678-.310533-2.008254-5.617595-.867678.310534m-1.483448 3.373229l.867677-.310533-2.008254-5.617595-.867677.310533m-1.484085 3.373866l.867678-.310533-2.008254-5.617595-.867678.310533m-1.536247 5.617595l.867678-.310533-2.008254-5.617595-.867678.310533"/><path fill="#0475A5" d="M154.528514 20.8422831l-4.723881-7.1702602v4.2532854l-3.367658-5.5571426v3.9109353l-19.670326-7.49606537-13.309691 3.91093527V8.78303563l-4.432534 4.88898727-6.313563-2.6077144 2.748705 2.6077144h-8.852983l6.096008 1.9554677-22.317888 11.4407266L74.77088 38.221319l33.285994-14.668871 29.947599 2.1788224 7.168518 1.8231093 14.474439 3.6812172"/><path fill="#01639D" d="M143.003161 20.5126599l1.34032 7.0162663-23.515716-7.0162663-10.492919 5.3452419 34.838781 3.1969637v-1.5004858 1.5004858l8.031106.7375161"/><path fill="#E8A0A1" d="M72.085786 126.3675397l21.1836735 21.7990418v24.8948277l-6.0012245-4.047748-14.40128474-30.5283309-1.0483377-12.1177906"/><path fill="#C37F9B" d="M165.5996722 126.3675397l-21.1836735 21.7990418v24.8948277l6.0012245-4.047748 14.4012848-30.5283309 1.0483377-12.1177906"/><path d="M73.66465418 133.5137399h.7563553v4.89662337h-.7563553zm2.22898988 4.974893h.7563553v4.89662337h-.7563553zm2.229626 4.7948092h.7563553v4.89662337h-.7563553zm2.2289899 4.6140891h.7563553v4.89662337h-.7563553zm2.22898987 4.6140892h.7563553v4.89662337h-.7563553zm2.22962597 4.2532853h.7563553v4.89662337h-.7563553zm2.2289899 5.3356968h.7563553v4.89662337h-.7563553zm2.2289899 2.2691825h.7563553v4.89662337h-.7563553zm2.9401801 1.9923753h.7563553v4.89662337h-.7563553zm2.9401802 1.9923752h.7563553v4.89662337h-.7563553zm2.9401801 1.9923753h.7563553v4.89662337h-.7563553zm2.9401802 1.9923753h.7563553v4.89662337h-.7563553zm2.9401801 1.9923753h.7563553v4.89662337h-.7563553zm2.9401802 1.9923752h.7563553v4.89662337h-.7563553zm2.7938708 1.4705779h.7563553v4.89662337h-.7563553zm3.414095 0h.7563553v4.89662337h-.7563553zm3.4147311 0h.7563553v4.89662337h-.7563553zm-42.86797922-51.67639858h.7563553v4.89662337h-.7563553zm2.22898988 4.97489298h.7563553v4.89662337h-.7563553zm2.229626 4.7948092h.7563553v4.89662337h-.7563553zm2.2289899 4.6140892h.7563553v4.89662337h-.7563553zm2.22898987 4.6140891h.7563553v4.89662337h-.7563553zm2.22962597 4.2532854h.7563553v4.89662337h-.7563553zm2.2289899 5.3356968h.7563553v4.89662337h-.7563553zm2.2289899 2.2691824h.7563553v4.89662337h-.7563553zm-15.60420142-38.25156903h.7563553v4.89662337h-.7563553zm2.22898988 4.974893h.7563553v4.89662336h-.7563553zm2.229626 4.79417293h.7563553v4.89662337h-.7563553zm2.2289899 4.6147254h.7563553v4.89662337h-.7563553zm2.22898987 4.6140892h.7563553v4.89662337h-.7563553zm2.22962597 4.2532853h.7563553v4.89662337h-.7563553zm2.2289899 5.3356968h.7563553v4.89662337h-.7563553zm2.2289899 2.2691825h.7563553v4.89662337h-.7563553zm2.9401801 9.3878992h.7563553v4.89662337h-.7563553zm2.9401802 1.9923753h.7563553v4.89662337h-.7563553zm2.9401801 1.9923753h.7563553v4.89662337h-.7563553zm2.9401802 1.9923752h.7563553v4.89662337h-.7563553zm2.9401801 1.9923753h.7563553v4.89662337h-.7563553zm2.9401802 1.9923753h.7563553v4.89662337h-.7563553zm0-7.3955239h.7563553v4.89662337h-.7563553zm2.7938708 8.8661018h.7563553v4.89662337h-.7563553zm3.414095 0h.7563553v4.89662337h-.7563553zm3.4147311 0h.7563553v4.89662337h-.7563553zm-6.8288261-7.395524h.7563553v4.89662337h-.7563553zm3.414095 0h.7563553v4.89662337h-.7563553zm3.4147311 0h.7563553v4.89662337h-.7563553zm-3.4147311-7.3955239h.7563553v4.89662337h-.7563553zm3.4147311 0h.7563553v4.89662337h-.7563553zm46.8832149-22.0943028h.7563553v4.89662337h-.7563553zm-2.229626 4.974893h.7563553v4.89662337h-.7563553zm-2.2289899 4.7948092h.7563553v4.89662337h-.7563553zm-2.229626 4.6140891h.7563553v4.89662337h-.7563553zm-2.2289899 4.6140892h.7563553v4.89662337h-.7563553zm-2.2289898 4.2532853h.7563553v4.89662337h-.7563553zm-2.229626 5.3356968h.7563553v4.89662337h-.7563553zm-2.2289899 2.2691825h.7563553v4.89662337h-.7563553zm-2.9401802 1.9923753h.7563553v4.89662337h-.7563553zm-2.9401801 1.9923752h.7563553v4.89662337h-.7563553zm-2.9401802 1.9923753h.7563553v4.89662337h-.7563553zm-2.9401801 1.9923753h.7563553v4.89662337h-.7563553zm-2.9401802 1.9923753h.7563553v4.89662337h-.7563553zm-2.9401801 1.9923752h.7563553v4.89662337h-.7563553zm-2.79387088 1.4705779h.7563553v4.89662337h-.7563553zm-3.41409494 0h.7563553v4.89662337h-.7563553zm-3.41409495 0h.7563553v4.89662337h-.7563553zm42.86797917-51.67639858h.7563553v4.89662337h-.7563553zm-2.229626 4.97489298h.7563553v4.89662337h-.7563553zm-2.2289899 4.7948092h.7563553v4.89662337h-.7563553zm-2.229626 4.6140892h.7563553v4.89662337h-.7563553zm-2.2289899 4.6140891h.7563553v4.89662337h-.7563553zm-2.2289898 4.2532854h.7563553v4.89662337h-.7563553zm-2.229626 5.3356968h.7563553v4.89662337h-.7563553zm-2.2289899 2.2691824h.7563553v4.89662337h-.7563553zm15.6048375-38.25156903h.7563553v4.89662337h-.7563553zm-2.229626 4.974893h.7563553v4.89662336h-.7563553zm-2.2289899 4.79417293h.7563553v4.89662337h-.7563553zm-2.229626 4.6147254h.7563553v4.89662337h-.7563553zm-2.2289899 4.6140892h.7563553v4.89662337h-.7563553zm-2.2289898 4.2532853h.7563553v4.89662337h-.7563553zm-2.229626 5.3356968h.7563553v4.89662337h-.7563553zm-2.2289899 2.2691825h.7563553v4.89662337h-.7563553zm-2.9401802 9.3878992h.7563553v4.89662337h-.7563553zm-2.9401801 1.9923753h.7563553v4.89662337h-.7563553zm-2.9401802 1.9923753h.7563553v4.89662337h-.7563553zm-2.9401801 1.9923752h.7563553v4.89662337h-.7563553zm-2.9401802 1.9923753h.7563553v4.89662337h-.7563553zm-2.9401801 1.9923753h.7563553v4.89662337h-.7563553zm0-7.3955239h.7563553v4.89662337h-.7563553zm-2.79387088 8.8661018h.7563553v4.89662337h-.7563553zm-3.41409494 0h.7563553v4.89662337h-.7563553zm-3.41409495 0h.7563553v4.89662337h-.7563553zm6.8281899-7.395524h.7563553v4.89662337h-.7563553zm-3.41409495 0h.7563553v4.89662337h-.7563553zm-3.41409495 0h.7563553v4.89662337h-.7563553zm3.41409495-7.3955239h.7563553v4.89662337h-.7563553zm-3.41409495 0h.7563553v4.89662337h-.7563553z" fill="#0475A5"/></g></g></svg>