<?xml version="1.0" standalone="no"?><!DOCTYPE svg PUBLIC "-//W3C//DTD SVG 1.1//EN" "http://www.w3.org/Graphics/SVG/1.1/DTD/svg11.dtd"><svg width="100%" height="100%" viewBox="0 0 707 629" version="1.1" xmlns="http://www.w3.org/2000/svg" xmlns:xlink="http://www.w3.org/1999/xlink" xml:space="preserve" style="fill-rule:evenodd;clip-rule:evenodd;stroke-miterlimit:10;"><g><path d="M237.276,371.091l-148.543,65.07l-53.139,53.463l-35.569,138.747l352.749,0l0,-142.798l0,-59.801l0,-54.681l-115.498,0Z" style="fill:#009fba;fill-rule:nonzero;"/><path d="M352.775,371.091l0,257.28l353.45,0l-35.569,-138.747l-53.139,-53.463l-148.542,-65.07l-116.2,0Z" style="fill:#0475a5;fill-rule:nonzero;"/><path d="M462.096,371.177l-109.322,0l0,129.02l6.476,0l22.634,-19.756l88.832,-82.864l-8.62,-26.4Z" style="fill:#00a4c1;fill-rule:nonzero;"/><path d="M250.593,371.177l-15.823,26.4l88.453,82.864l22.634,19.756l6.917,0l0,-14.624l0,-59.8l0,-54.596l-102.181,0Z" style="fill:#00bac8;fill-rule:nonzero;"/><path d="M260.154,371.924l-14.279,19.027l79.856,76.405l20.869,18.217l6.175,0l0,-59.8l0,-53.849l-92.621,0Z" style="fill:#fbc2aa;fill-rule:nonzero;"/><path d="M452.037,371.924l-99.263,0l0,113.649l6.176,0l20.869,-18.217l79.85,-76.405l-7.632,-19.027Z" style="fill:#d58f9d;fill-rule:nonzero;"/><path d="M237.098,371.277l-148.543,65.07l-53.138,53.463l-5.196,20.267l58.905,-53.266l148.543,-65.07l115.106,0l0,-20.464l-115.677,0Z" style="fill:#00b7c9;fill-rule:nonzero;"/><path d="M670.478,489.81l-53.139,-53.462l-148.543,-65.071l-116.021,0l0,20.464l116.592,0l148.543,65.071l57.418,51.92l-4.85,-18.922Z" style="fill:#0389af;fill-rule:nonzero;"/><path d="M251.059,371.175l-13.044,20.565l114.76,0l0,-20.565l-101.716,0Z" style="fill:#00bac8;fill-rule:nonzero;"/><path d="M461.907,371.175l-109.132,0l0,20.565l116.272,0l-7.14,-20.565Z" style="fill:#00a4c1;fill-rule:nonzero;"/><path d="M339.043,628.371l13.559,0l0,-134.554l-13.559,-0.086l0,134.64Z" style="fill:#00bac8;fill-rule:nonzero;"/><path d="M352.602,493.819l0,134.551l13.909,0l0,-134.64l-13.909,0.089Z" style="fill:#00a4c1;fill-rule:nonzero;"/><path d="M452.037,371.168l-99.263,0l0,20.573l106.077,0l-6.814,-20.573Z" style="fill:#a15f98;fill-rule:nonzero;"/><path d="M260.154,371.168l-13.455,20.573l106.076,0l0,-20.573l-92.621,0Z" style="fill:#c37f9b;fill-rule:nonzero;"/><path d="M352.366,368.351l-47.445,0l-28.463,-68.688l0.125,92.078l44.247,50.588l31.616,0l0,-19.755l0,-54.223l-0.08,0Z" style="fill:#f9b3a4;fill-rule:nonzero;"/><path d="M399.973,368.351l-47.446,0l-0.081,0l0,73.978l31.617,0l40.467,-50.588l7.685,-92.078l-32.242,68.688Z" style="fill:#c37f9b;fill-rule:nonzero;"/><path d="M304.707,380.3l37.965,61.824l10.103,0l0,-16.351l0,-45.473l-48.068,0Z" style="fill:#fbc2aa;fill-rule:nonzero;"/><path d="M352.446,368.318l0,73.767l11.91,0l44.757,-73.767l-56.667,0Z" style="fill:#d58f9d;fill-rule:nonzero;"/><path d="M325.54,380.328l-0.009,9.309l21.521,52.692l5.723,0l0,-16.556l0,-45.445l-27.235,0Z" style="fill:#fbc2aa;fill-rule:nonzero;"/><path d="M384.555,368.351l-32.108,0l0,73.978l6.748,0l25.369,-62.866l-0.009,-11.112Z" style="fill:#d58f9d;fill-rule:nonzero;"/><path d="M616.946,436.348l0.14,0.14l0.06,-0.14l-0.2,0ZM577.723,527.121l4.671,101.25l123.803,0l-36.112,-138.56l-52.999,-53.323l-39.363,90.633Z" style="fill:#045190;fill-rule:nonzero;"/><path d="M88.161,436.348l-53.138,53.463l-35.023,138.56l123.521,0l4.671,-101.25l-39.424,-90.773l-0.607,0Z" style="fill:#00bac8;fill-rule:nonzero;"/><path d="M350.754,528.538l-3.552,2.581l-1.357,4.176l1.357,4.176l3.552,2.582l1.846,0l0,-13.515l-1.846,0Z" style="fill:#009fba;fill-rule:nonzero;"/><path d="M358.348,531.119l-3.552,-2.581l-2.196,0l0,13.514l2.196,0l3.552,-2.581l1.357,-4.176l-1.357,-4.176Z" style="fill:#0475a5;fill-rule:nonzero;"/><path d="M350.754,583.233l-3.552,2.581l-1.357,4.176l1.357,4.176l3.552,2.581l1.846,0l0,-13.514l-1.846,0Z" style="fill:#009fba;fill-rule:nonzero;"/><path d="M358.348,585.814l-3.552,-2.582l-2.196,0l0,13.515l2.196,0l3.552,-2.581l1.357,-4.176l-1.357,-4.176Z" style="fill:#0475a5;fill-rule:nonzero;"/><path d="M407.962,91.508l0,-37.281l0,37.281ZM474.54,139.104l-12.295,-68.956l-38.123,-49.273l-4.537,-7.595l0,8.284l-7.275,-11.824l0,8.189l-41.245,-13.892l-24.868,5.703l1.924,-9.74l-17.805,11.336l-14.056,-4.499l4.44,6.443l-29.908,0l11.497,4.092l-44.876,24.355l-27.269,53.424l-4.394,70.157l5.847,36.72l16.644,21.719l208.531,-0.171l18.854,-27.411l-1.086,-57.061Z" style="fill:#01639d;fill-rule:nonzero;"/><path d="M427.488,356.3l2.511,-30.088l-37.938,36.478l-39.64,8.994l0,14.704l45.734,0l29.333,-30.088Z" style="fill:#a15f98;fill-rule:nonzero;"/><path d="M276.457,356.141l0,-29.929l36.378,36.424l39.585,9.048l0,14.703l-43.993,0l-31.97,-30.246Z" style="fill:#c37f9b;fill-rule:nonzero;"/><path d="M395.611,357.467l0,23.652l-2.369,5.268l-40.821,0l0,-28.92l43.19,0Z" style="fill:#b06f99;fill-rule:nonzero;"/><path d="M309.201,357.467l0,23.652l2.369,5.268l40.822,0l0,-28.92l-43.191,0Z" style="fill:#d58f9d;fill-rule:nonzero;"/><path d="M352.705,76.686l-77.435,0l-23.648,110.226l4.784,99.751l30.186,63.967l44.72,30.001l21.452,1.693l0,-305.638l-0.059,0Z" style="fill:#fbc2aa;fill-rule:nonzero;"/><path d="M430.257,76.686l-22.294,0l0,14.822l0,-14.822l-55.14,0l-0.059,0l0,305.638l21.452,-1.693l44.72,-30.001l30.185,-63.967l7.742,-99.592l-26.606,-110.385Z" style="fill:#e8a0a1;fill-rule:nonzero;"/><path d="M271.408,53.208l-23.529,121.46l20.544,-70.901l35.845,-14.408l56.479,7.178l-23.596,-9.674l48.188,3.82l-15.029,-10.424l37.652,11.249l0,-37.24l-136.554,-1.06Z" style="fill:#01639d;fill-rule:nonzero;"/><path d="M341.155,174.668l-3.27,23.672l-7.521,28.679l-5.643,20.685l14.679,5.365l4.071,0.64l9.304,0l0,-79.041l-11.62,0Z" style="fill:#c37f9b;fill-rule:nonzero;"/><path d="M375.185,227.019l-8.227,-28.754l-2.564,-23.597l-11.62,0l0,79.041l9.304,0l4.071,-0.641l14.679,-5.364l-5.643,-20.685Z" style="fill:#b06f99;fill-rule:nonzero;"/><path d="M341.5,225.267l-14.17,12.847l-2.609,9.59l16.434,-6.941l11.62,-5.669l0,-9.827l-11.275,0Z" style="fill:#e8a0a1;fill-rule:nonzero;"/><path d="M380.828,247.704l-2.59,-9.531l-14.189,-12.906l-11.274,0l0,9.827l11.62,5.669l16.433,6.941Z" style="fill:#d58f9d;fill-rule:nonzero;"/><path d="M349.222,174.668l-13.075,55.449l5.338,4.976l11.289,0l0,-60.425l-3.552,0Z" style="fill:#f9b3a4;fill-rule:nonzero;"/><path d="M367.6,228.485l-11.272,-53.817l-3.553,0l0,60.427l11.29,0l3.535,-6.61Z" style="fill:#e8a0a1;fill-rule:nonzero;"/><path d="M344.772,253.701l-3.386,-0.317l-2.692,-0.573l2.132,-7.33l6.198,0l-2.252,8.22Z" style="fill:#b06f99;fill-rule:nonzero;"/><path d="M360.473,253.718l3.271,-0.265l2.753,-0.513l-2.185,-7.459l-6.198,0l2.359,8.237Z" style="fill:#a15f98;fill-rule:nonzero;"/><path d="M341.521,225.267l-14.201,12.914l13.317,-59.763l8.015,0l-7.131,46.849Z" style="fill:#d58f9d;fill-rule:nonzero;"/><path d="M364.064,225.267l14.202,12.914l-13.318,-59.763l-8.014,0l7.13,46.849Z" style="fill:#c37f9b;fill-rule:nonzero;"/><path d="M447.691,165.94l-20.414,-3.619l-43.547,0l-18.995,8.141l-6.432,17.088l13.624,30.808l12.59,7.694l40.386,-1.139l15.328,-10.284l7.46,-27.559l5.787,-5.241l0,-14.959l-5.787,-0.93Z" style="fill:#045190;fill-rule:nonzero;"/><path d="M437.262,170.297l-11.196,-5.37l-40.178,0l-17.526,7.51l-5.934,15.766l12.57,28.425l11.615,7.099l37.263,-1.052l14.142,-9.488l6.883,-25.427l-0.429,-5.461l-3.627,-8.372l-3.583,-3.63Z" style="fill:#045190;fill-rule:nonzero;"/><path d="M435.943,171.197l-10.913,-5.236l-39.164,0l-17.084,7.322l-5.784,15.368l12.252,27.708l11.323,6.92l36.321,-1.026l13.787,-9.248l6.709,-24.785l-0.42,-5.324l-3.535,-8.161l-3.492,-3.538Z" style="fill:#d58f9d;fill-rule:nonzero;"/><path d="M258.096,165.94l20.414,-3.619l43.547,0l18.995,8.141l6.432,17.088l-13.624,30.808l-12.59,7.694l-40.386,-1.139l-15.328,-10.284l-7.46,-27.559l-5.787,-5.241l0,-14.959l5.787,-0.93Z" style="fill:#0475a5;fill-rule:nonzero;"/><path d="M268.525,170.297l11.196,-5.37l40.178,0l17.526,7.51l5.934,15.766l-12.57,28.425l-11.615,7.099l-37.263,-1.052l-14.142,-9.488l-6.883,-25.427l0.429,-5.461l3.627,-8.372l3.583,-3.63Z" style="fill:#0475a5;fill-rule:nonzero;"/><path d="M352.981,184.399l-3.188,0l-2.31,3.152l-6.431,-17.088l6.431,3.425l5.498,0" style="fill:#0475a5;fill-rule:nonzero;"/><path d="M352.771,184.399l3.189,0l2.309,3.152l6.431,-17.088l-6.431,3.425l-5.498,0" style="fill:#045190;fill-rule:nonzero;"/><path d="M269.908,171.197l10.913,-5.236l39.164,0l17.084,7.322l5.784,15.368l-12.252,27.708l-11.322,6.92l-36.322,-1.026l-13.786,-9.248l-6.708,-24.785l0.418,-5.324l3.535,-8.161l3.492,-3.538Z" style="fill:#f9b3a4;fill-rule:nonzero;"/><path d="M427.438,54.393l-19.504,-0.152l0,37.24l5.296,1.582l25.042,28.263l8.125,42.555l9.619,49.785l12.826,-74.589l-41.404,-84.684Z" style="fill:#01639d;fill-rule:nonzero;"/><path d="M279.287,54.798l19.504,-0.152l0,37.24l-5.296,1.583l-25.041,28.262l-8.126,42.555l-9.618,49.785l-12.827,-74.589l41.404,-84.684Z" style="fill:#01639d;fill-rule:nonzero;"/><path d="M275.591,208.403l-6.764,-7.397l0,-21.232l6.423,-7.059l48.652,0.011l8.769,11.756l0.379,16.524l-6.387,7.397l-51.072,0Z" style="fill:#e8a0a1;fill-rule:nonzero;"/><path d="M302.575,195.589l9.321,0l15.487,-4.924l0,-2.639l-11.968,-9.673l-12.84,0l0.088,0l-12.839,0l-14.598,9.673l0,2.639l18.116,4.924l9.321,0" style="fill:#fff;fill-rule:nonzero;"/><path d="M275.226,190.664l0,-2.639l14.599,-9.673l25.589,0l11.969,9.673l0,2.639l-11.969,-9.288l-25.589,0l-14.599,9.288Z" style="fill:#addfe5;fill-rule:nonzero;"/><path d="M275.226,188.327l0,-1.882l14.599,-9.674l25.589,0l11.969,9.674l0,1.882l-11.969,-9.288l-25.589,0l-14.599,9.288Z" style="fill:#0475a5;fill-rule:nonzero;"/><path d="M304.089,194.263l-4.886,-4.887l0,-6.912l4.886,-4.887l6.912,0l4.887,4.887l0,6.912l-4.887,4.887l-6.912,0Z" style="fill:#0475a5;fill-rule:nonzero;"/><path d="M307.828,187.428l-1.947,-1.947l0,-2.753l1.947,-1.948l2.753,0l1.947,1.948l0,2.753l-1.947,1.947l-2.753,0Z" style="fill:#addfe5;fill-rule:nonzero;"/><path d="M302.109,204.188l-15.613,0l-9.739,-5.665l25.352,0l0,5.665Z" style="fill:#c37f9b;fill-rule:nonzero;"/><path d="M301.857,204.188l15.613,0l9.739,-5.665l-25.352,0l0,5.665Z" style="fill:#b06f99;fill-rule:nonzero;"/><path d="M379.906,208.345l-6.764,-7.397l0,-21.232l6.423,-7.059l48.652,0.011l8.769,11.756l0.379,16.524l-6.387,7.397l-51.072,0Z" style="fill:#c37f9b;fill-rule:nonzero;"/><path d="M406.89,195.531l9.321,0l15.487,-4.926l0,-2.637l-11.969,-9.673l-12.839,0l0.088,0l-12.839,0l-14.598,9.673l0,2.637l18.116,4.926l9.321,0" style="fill:#addfe5;fill-rule:nonzero;"/><path d="M379.541,190.606l0,-2.639l14.598,-9.673l25.59,0l11.969,9.673l0,2.639l-11.969,-9.288l-25.59,0l-14.598,9.288Z" style="fill:#00bac8;fill-rule:nonzero;"/><path d="M379.541,188.269l0,-1.882l14.598,-9.674l25.59,0l11.969,9.674l0,1.882l-11.969,-9.288l-25.59,0l-14.598,9.288Z" style="fill:#045190;fill-rule:nonzero;"/><path d="M408.404,194.205l-4.886,-4.887l0,-6.912l4.886,-4.887l6.912,0l4.887,4.887l0,6.912l-4.887,4.887l-6.912,0Z" style="fill:#045190;fill-rule:nonzero;"/><path d="M412.143,186.992l-1.947,-1.947l0,-2.376l1.947,-1.946l2.753,-0.379l1.947,1.948l0,2.753l-1.947,1.947l-2.753,0Z" style="fill:#00bac8;fill-rule:nonzero;"/><path d="M406.424,204.13l-15.613,0l-9.739,-5.665l25.352,0l0,5.665Z" style="fill:#b06f99;fill-rule:nonzero;"/><path d="M406.172,204.13l15.613,0l9.739,-5.665l-25.352,0l0,5.665Z" style="fill:#a15f98;fill-rule:nonzero;"/><path d="M285.417,162.871l-14.895,-2.287l2.559,-1.88l9.713,-5.873l33.876,2.54l8.895,0.672l1.686,7.753l-10.581,0l-31.253,-0.925Z" style="fill:#0475a5;fill-rule:nonzero;"/><path d="M420.528,162.871l14.895,-2.287l-2.559,-1.88l-9.713,-5.873l-33.876,2.54l-8.895,0.672l-1.686,7.753l10.581,0l31.253,-0.925Z" style="fill:#045190;fill-rule:nonzero;"/><path d="M252.883,205.872l-17.928,-16.62l-6.282,8.109l9.675,47.793l17.177,23.812l-2.642,-63.094Z" style="fill:#f9b3a4;fill-rule:nonzero;"/><path d="M244.186,207.626l-7.961,-7.356l-2.913,3.76l4.485,22.16l7.844,11.064l-1.455,-29.628Z" style="fill:#fbc2aa;fill-rule:nonzero;"/><path d="M452.725,205.494l18.306,-16.242l6.281,8.11l-9.673,47.792l-16.916,23.861l2.002,-63.521Z" style="fill:#e8a0a1;fill-rule:nonzero;"/><path d="M461.044,207.626l7.961,-7.356l2.913,3.76l-4.485,22.16l-7.844,11.064l1.455,-29.628Z" style="fill:#d58f9d;fill-rule:nonzero;"/><path d="M352.775,280.723l0,-0.044" style="fill:none;stroke-width:1.33px;stroke:#000;"/><path d="M352.775,280.679l0,0.044" style="fill:none;stroke-width:1.33px;stroke:#000;"/><path d="M352.775,280.723l0,24.846l0.202,0l-0.202,0.034l11.713,1.994l25.86,-17.825l-24.845,-11.839l-12.728,2.746l0,0.044Z" style="fill:#a15f98;fill-rule:nonzero;"/><path d="M352.775,280.679l-12.728,-2.745l-24.846,11.838l25.86,17.826l11.714,-1.995l-0.203,-0.035l0.203,0l0,-24.845" style="fill:#b06f99;fill-rule:nonzero;"/><path d="M352.775,305.603l0,-12.837l-0.203,0l-18.272,0l-19.099,-2.993l25.86,17.824" style="fill:#d58f9d;fill-rule:nonzero;"/><path d="M390.348,289.772l-19.302,2.994l-18.271,0l0,12.837l11.713,1.995l25.86,-17.826Z" style="fill:#c37f9b;fill-rule:nonzero;"/><path d="M364.229,310.311l-11.455,-2.018l0,10.588l11.455,-8.57Z" style="fill:#045190;fill-rule:nonzero;"/><path d="M352.775,308.293l-0.056,-0.011l-11.602,2.03l11.556,8.645l0.102,-0.076l0,-10.588Z" style="fill:#0475a5;fill-rule:nonzero;"/><path d="M299.17,442.329l47.43,43.244l6.175,0l0,-43.244l-53.605,0Z" style="fill:#f9b3a4;fill-rule:nonzero;"/><path d="M352.775,442.329l0,43.244l6.174,0l47.344,-43.244l-53.518,0Z" style="fill:#c37f9b;fill-rule:nonzero;"/><path d="M123.221,628.371l39.401,0l-34.613,-101.912l-4.788,101.912Z" style="fill:#0389af;fill-rule:nonzero;"/><path d="M543.318,628.371l39.402,0l-4.787,-101.912l-34.615,101.912Z" style="fill:#01639d;fill-rule:nonzero;"/><path d="M341.155,240.763l11.62,0l0,-15.496l-16.627,4.851l5.007,10.645Z" style="fill:#fbc2aa;fill-rule:nonzero;"/><path d="M367.6,228.485l-14.825,-3.194l0,15.473l11.62,0l3.205,-12.279Z" style="fill:#f9b3a4;fill-rule:nonzero;"/><path d="M282.428,91.213l21.067,-8.75l25.225,4.374l-12.385,-7.944l36.79,4.615l-15.14,-8.937l47.379,4.322l20.857,6.307l-23.3,-18.343l-51.798,-4.917l-37.351,14.636l-11.344,14.637Z" style="fill:#0475a5;fill-rule:nonzero;"/><path d="M312.348,286.447l-1.819,-0.651l4.21,-11.77l1.818,0.65l-4.209,11.771Z" style="fill:#0475a5;fill-rule:nonzero;"/><path d="M319.668,281.745l-1.819,-0.651l4.209,-11.77l1.819,0.65l-4.209,11.771Z" style="fill:#0475a5;fill-rule:nonzero;"/><path d="M326.987,277.043l-1.818,-0.651l4.209,-11.77l1.819,0.65l-4.21,11.771Z" style="fill:#0475a5;fill-rule:nonzero;"/><path d="M334.307,272.341l-1.819,-0.651l4.21,-11.771l1.818,0.651l-4.209,11.771Z" style="fill:#0475a5;fill-rule:nonzero;"/><path d="M341.736,272.341l-1.819,-0.651l4.21,-11.771l1.818,0.651l-4.209,11.771Z" style="fill:#0475a5;fill-rule:nonzero;"/><path d="M395.064,286.447l1.819,-0.651l-4.21,-11.77l-1.818,0.65l4.209,11.771Z" style="fill:#0475a5;fill-rule:nonzero;"/><path d="M387.744,281.745l1.819,-0.651l-4.209,-11.77l-1.819,0.65l4.209,11.771Z" style="fill:#0475a5;fill-rule:nonzero;"/><path d="M380.425,277.043l1.818,-0.651l-4.209,-11.77l-1.819,0.65l4.21,11.771Z" style="fill:#0475a5;fill-rule:nonzero;"/><path d="M373.105,272.341l1.819,-0.651l-4.21,-11.771l-1.818,0.651l4.209,11.771Z" style="fill:#0475a5;fill-rule:nonzero;"/><path d="M365.676,272.341l1.819,-0.651l-4.21,-11.771l-1.818,0.651l4.209,11.771Z" style="fill:#0475a5;fill-rule:nonzero;"/><path d="M427.571,40.162l-9.901,-15.024l0,8.912l-7.059,-11.644l0,8.195l-41.229,-15.707l-27.898,8.195l0,-8.195l-9.29,10.244l-13.234,-5.464l5.762,5.464l-18.556,0l12.777,4.098l-46.779,23.972l-11.766,23.369l69.768,-30.736l62.77,4.565l15.026,3.82l30.338,7.714l-10.729,-21.778Z" style="fill:#0475a5;fill-rule:nonzero;"/><path d="M403.413,39.472l2.809,14.702l-49.289,-14.702l-21.993,11.2l73.022,6.699l0,-3.144l0,3.144l16.834,1.545l-21.383,-19.444Z" style="fill:#01639d;fill-rule:nonzero;"/><path d="M254.769,261.271l44.401,45.676l0,52.163l-12.578,-8.481l-30.186,-63.967l-2.197,-25.391l0.56,0Z" style="fill:#e8a0a1;fill-rule:nonzero;"/><path d="M450.775,261.271l-44.401,45.676l0,52.163l12.579,-8.481l30.185,-63.967l2.197,-25.391l-0.56,0Z" style="fill:#c37f9b;fill-rule:nonzero;"/><rect x="258.079" y="276.246" width="1.585" height="10.26" style="fill:#0475a5;fill-rule:nonzero;"/><rect x="262.751" y="286.67" width="1.585" height="10.26" style="fill:#0475a5;fill-rule:nonzero;"/><rect x="267.424" y="296.716" width="1.585" height="10.26" style="fill:#0475a5;fill-rule:nonzero;"/><rect x="272.096" y="306.384" width="1.585" height="10.26" style="fill:#0475a5;fill-rule:nonzero;"/><rect x="276.768" y="316.052" width="1.585" height="10.26" style="fill:#0475a5;fill-rule:nonzero;"/><rect x="281.441" y="324.964" width="1.585" height="10.26" style="fill:#0475a5;fill-rule:nonzero;"/><rect x="286.113" y="336.144" width="1.585" height="10.26" style="fill:#0475a5;fill-rule:nonzero;"/><rect x="290.785" y="340.899" width="1.585" height="10.26" style="fill:#0475a5;fill-rule:nonzero;"/><rect x="296.948" y="345.074" width="1.585" height="10.26" style="fill:#0475a5;fill-rule:nonzero;"/><rect x="303.111" y="349.248" width="1.585" height="10.26" style="fill:#0475a5;fill-rule:nonzero;"/><rect x="309.273" y="353.423" width="1.585" height="10.26" style="fill:#0475a5;fill-rule:nonzero;"/><rect x="315.436" y="357.598" width="1.585" height="10.26" style="fill:#0475a5;fill-rule:nonzero;"/><rect x="321.599" y="361.772" width="1.585" height="10.26" style="fill:#0475a5;fill-rule:nonzero;"/><rect x="327.761" y="365.947" width="1.585" height="10.26" style="fill:#0475a5;fill-rule:nonzero;"/><rect x="333.617" y="369.028" width="1.585" height="10.26" style="fill:#0475a5;fill-rule:nonzero;"/><rect x="340.773" y="369.028" width="1.585" height="10.26" style="fill:#0475a5;fill-rule:nonzero;"/><rect x="347.931" y="369.028" width="1.585" height="10.26" style="fill:#0475a5;fill-rule:nonzero;"/><rect x="258.079" y="260.75" width="1.585" height="10.26" style="fill:#0475a5;fill-rule:nonzero;"/><rect x="262.751" y="271.174" width="1.585" height="10.26" style="fill:#0475a5;fill-rule:nonzero;"/><rect x="267.424" y="281.22" width="1.585" height="10.26" style="fill:#0475a5;fill-rule:nonzero;"/><rect x="272.096" y="290.888" width="1.585" height="10.26" style="fill:#0475a5;fill-rule:nonzero;"/><rect x="276.768" y="300.556" width="1.585" height="10.26" style="fill:#0475a5;fill-rule:nonzero;"/><rect x="281.441" y="309.468" width="1.585" height="10.26" style="fill:#0475a5;fill-rule:nonzero;"/><rect x="286.113" y="320.648" width="1.585" height="10.26" style="fill:#0475a5;fill-rule:nonzero;"/><rect x="290.785" y="325.403" width="1.585" height="10.26" style="fill:#0475a5;fill-rule:nonzero;"/><rect x="258.079" y="245.254" width="1.585" height="10.26" style="fill:#0475a5;fill-rule:nonzero;"/><rect x="262.751" y="255.678" width="1.585" height="10.26" style="fill:#0475a5;fill-rule:nonzero;"/><rect x="267.424" y="265.723" width="1.585" height="10.26" style="fill:#0475a5;fill-rule:nonzero;"/><rect x="272.096" y="275.392" width="1.585" height="10.26" style="fill:#0475a5;fill-rule:nonzero;"/><rect x="276.768" y="285.06" width="1.585" height="10.26" style="fill:#0475a5;fill-rule:nonzero;"/><rect x="281.441" y="293.972" width="1.585" height="10.26" style="fill:#0475a5;fill-rule:nonzero;"/><rect x="286.113" y="305.152" width="1.585" height="10.26" style="fill:#0475a5;fill-rule:nonzero;"/><rect x="290.785" y="309.907" width="1.585" height="10.26" style="fill:#0475a5;fill-rule:nonzero;"/><rect x="296.948" y="329.578" width="1.585" height="10.26" style="fill:#0475a5;fill-rule:nonzero;"/><rect x="303.111" y="333.752" width="1.585" height="10.26" style="fill:#0475a5;fill-rule:nonzero;"/><rect x="309.273" y="337.927" width="1.585" height="10.26" style="fill:#0475a5;fill-rule:nonzero;"/><rect x="315.436" y="342.102" width="1.585" height="10.26" style="fill:#0475a5;fill-rule:nonzero;"/><rect x="321.599" y="346.276" width="1.585" height="10.26" style="fill:#0475a5;fill-rule:nonzero;"/><rect x="327.761" y="350.451" width="1.585" height="10.26" style="fill:#0475a5;fill-rule:nonzero;"/><rect x="327.761" y="334.955" width="1.585" height="10.26" style="fill:#0475a5;fill-rule:nonzero;"/><rect x="333.617" y="353.532" width="1.585" height="10.26" style="fill:#0475a5;fill-rule:nonzero;"/><rect x="340.773" y="353.532" width="1.585" height="10.26" style="fill:#0475a5;fill-rule:nonzero;"/><rect x="347.931" y="353.532" width="1.585" height="10.26" style="fill:#0475a5;fill-rule:nonzero;"/><rect x="333.617" y="338.036" width="1.585" height="10.26" style="fill:#0475a5;fill-rule:nonzero;"/><rect x="340.773" y="338.036" width="1.585" height="10.26" style="fill:#0475a5;fill-rule:nonzero;"/><rect x="347.931" y="338.036" width="1.585" height="10.26" style="fill:#0475a5;fill-rule:nonzero;"/><rect x="340.773" y="322.54" width="1.585" height="10.26" style="fill:#0475a5;fill-rule:nonzero;"/><rect x="347.931" y="322.54" width="1.585" height="10.26" style="fill:#0475a5;fill-rule:nonzero;"/><rect x="446.199" y="276.246" width="1.585" height="10.26" style="fill:#0475a5;fill-rule:nonzero;"/><rect x="441.525" y="286.67" width="1.585" height="10.26" style="fill:#0475a5;fill-rule:nonzero;"/><rect x="436.853" y="296.716" width="1.585" height="10.26" style="fill:#0475a5;fill-rule:nonzero;"/><rect x="432.18" y="306.384" width="1.585" height="10.26" style="fill:#0475a5;fill-rule:nonzero;"/><rect x="427.508" y="316.052" width="1.585" height="10.26" style="fill:#0475a5;fill-rule:nonzero;"/><rect x="422.836" y="324.964" width="1.585" height="10.26" style="fill:#0475a5;fill-rule:nonzero;"/><rect x="418.163" y="336.144" width="1.585" height="10.26" style="fill:#0475a5;fill-rule:nonzero;"/><rect x="413.491" y="340.899" width="1.585" height="10.26" style="fill:#0475a5;fill-rule:nonzero;"/><rect x="407.328" y="345.074" width="1.585" height="10.26" style="fill:#0475a5;fill-rule:nonzero;"/><rect x="401.165" y="349.248" width="1.585" height="10.26" style="fill:#0475a5;fill-rule:nonzero;"/><rect x="395.003" y="353.423" width="1.585" height="10.26" style="fill:#0475a5;fill-rule:nonzero;"/><rect x="388.84" y="357.598" width="1.585" height="10.26" style="fill:#0475a5;fill-rule:nonzero;"/><rect x="382.677" y="361.772" width="1.585" height="10.26" style="fill:#0475a5;fill-rule:nonzero;"/><rect x="376.515" y="365.947" width="1.585" height="10.26" style="fill:#0475a5;fill-rule:nonzero;"/><rect x="370.659" y="369.028" width="1.585" height="10.26" style="fill:#0475a5;fill-rule:nonzero;"/><rect x="363.503" y="369.028" width="1.585" height="10.26" style="fill:#0475a5;fill-rule:nonzero;"/><rect x="356.347" y="369.028" width="1.585" height="10.26" style="fill:#0475a5;fill-rule:nonzero;"/><rect x="446.199" y="260.75" width="1.585" height="10.26" style="fill:#0475a5;fill-rule:nonzero;"/><rect x="441.525" y="271.174" width="1.585" height="10.26" style="fill:#0475a5;fill-rule:nonzero;"/><rect x="436.853" y="281.22" width="1.585" height="10.26" style="fill:#0475a5;fill-rule:nonzero;"/><rect x="432.18" y="290.888" width="1.585" height="10.26" style="fill:#0475a5;fill-rule:nonzero;"/><rect x="427.508" y="300.556" width="1.585" height="10.26" style="fill:#0475a5;fill-rule:nonzero;"/><rect x="422.836" y="309.468" width="1.585" height="10.26" style="fill:#0475a5;fill-rule:nonzero;"/><rect x="418.163" y="320.648" width="1.585" height="10.26" style="fill:#0475a5;fill-rule:nonzero;"/><rect x="413.491" y="325.403" width="1.585" height="10.26" style="fill:#0475a5;fill-rule:nonzero;"/><rect x="446.199" y="245.254" width="1.585" height="10.26" style="fill:#0475a5;fill-rule:nonzero;"/><rect x="441.525" y="255.678" width="1.585" height="10.26" style="fill:#0475a5;fill-rule:nonzero;"/><rect x="436.853" y="265.723" width="1.585" height="10.26" style="fill:#0475a5;fill-rule:nonzero;"/><rect x="432.18" y="275.392" width="1.585" height="10.26" style="fill:#0475a5;fill-rule:nonzero;"/><rect x="427.508" y="285.06" width="1.585" height="10.26" style="fill:#0475a5;fill-rule:nonzero;"/><rect x="422.836" y="293.972" width="1.585" height="10.26" style="fill:#0475a5;fill-rule:nonzero;"/><rect x="418.163" y="305.152" width="1.585" height="10.26" style="fill:#0475a5;fill-rule:nonzero;"/><rect x="413.491" y="309.907" width="1.585" height="10.26" style="fill:#0475a5;fill-rule:nonzero;"/><rect x="407.328" y="329.578" width="1.585" height="10.26" style="fill:#0475a5;fill-rule:nonzero;"/><rect x="401.165" y="333.752" width="1.585" height="10.26" style="fill:#0475a5;fill-rule:nonzero;"/><rect x="395.003" y="337.927" width="1.585" height="10.26" style="fill:#0475a5;fill-rule:nonzero;"/><rect x="388.84" y="342.102" width="1.585" height="10.26" style="fill:#0475a5;fill-rule:nonzero;"/><rect x="382.677" y="346.276" width="1.585" height="10.26" style="fill:#0475a5;fill-rule:nonzero;"/><rect x="376.515" y="350.451" width="1.585" height="10.26" style="fill:#0475a5;fill-rule:nonzero;"/><rect x="376.515" y="334.955" width="1.585" height="10.26" style="fill:#0475a5;fill-rule:nonzero;"/><rect x="370.659" y="353.532" width="1.585" height="10.26" style="fill:#0475a5;fill-rule:nonzero;"/><rect x="363.503" y="353.532" width="1.585" height="10.26" style="fill:#0475a5;fill-rule:nonzero;"/><rect x="356.347" y="353.532" width="1.585" height="10.26" style="fill:#0475a5;fill-rule:nonzero;"/><rect x="370.659" y="338.036" width="1.585" height="10.26" style="fill:#0475a5;fill-rule:nonzero;"/><rect x="363.503" y="338.036" width="1.585" height="10.26" style="fill:#0475a5;fill-rule:nonzero;"/><rect x="356.347" y="338.036" width="1.585" height="10.26" style="fill:#0475a5;fill-rule:nonzero;"/><rect x="363.503" y="322.54" width="1.585" height="10.26" style="fill:#0475a5;fill-rule:nonzero;"/><rect x="356.347" y="322.54" width="1.585" height="10.26" style="fill:#0475a5;fill-rule:nonzero;"/></g></svg>