<?xml version="1.0" encoding="utf-8"?>
<!-- Generator: Adobe Illustrator 19.2.1, SVG Export Plug-In . SVG Version: 6.00 Build 0)  -->
<svg version="1.1" id="Calque_1" xmlns="http://www.w3.org/2000/svg" xmlns:xlink="http://www.w3.org/1999/xlink" x="0px" y="0px"
	 viewBox="0 0 595.3 841.9" style="enable-background:new 0 0 595.3 841.9;" xml:space="preserve">
<style type="text/css">
	.st0{fill:#D8D8D8;stroke:#000000;stroke-miterlimit:10;}
	.st1{fill:#009FBA;}
	.st2{fill:#0475A5;}
	.st3{fill:#00A4C1;}
	.st4{fill:#00BAC8;}
	.st5{fill:#FBC2AA;}
	.st6{fill:#D58F9D;}
	.st7{fill:#00B7C9;}
	.st8{fill:#0389AF;}
	.st9{fill:#A15F98;}
	.st10{fill:#C37F9B;}
	.st11{fill:#F9B3A4;}
	.st12{fill:#045190;}
	.st13{fill:#01639D;}
	.st14{fill:#B06F99;}
	.st15{fill:#E8A0A1;}
	.st16{fill:#FFFFFF;}
	.st17{fill:#ADDFE5;}
	.st18{fill:none;stroke:#000000;stroke-width:1.33;stroke-miterlimit:10;}
	.st19{font-family:'Bariol-Regular';}
	.st20{font-size:60px;}
	.st21{font-size:36px;}
	.st22{opacity:0.7;}
	.st23{fill:#6B6B6B;}
	.st24{fill:#474747;}
	.st25{font-size:26px;}
</style>
<rect y="-6" class="st0" width="595.5" height="847.9"/>
<g>
	<path class="st1" d="M200.1,624.9L74.8,679.8L30,724.9l-30,117h297.5V721.5v-50.4v-46.1H200.1L200.1,624.9z"/>
	<path class="st2" d="M297.5,624.9v216.9h298l-30-117l-44.8-45.1l-125.3-54.9L297.5,624.9L297.5,624.9z"/>
	<path class="st3" d="M389.7,625h-92.2v108.8h5.5l19.1-16.7l74.9-69.9L389.7,625L389.7,625z"/>
	<path class="st4" d="M211.3,625L198,647.3l74.6,69.9l19.1,16.7h5.8v-12.3v-50.4v-46H211.3L211.3,625z"/>
	<path class="st5" d="M219.4,625.6l-12,16l67.3,64.4l17.6,15.4h5.2v-50.4v-45.4H219.4L219.4,625.6z"/>
	<path class="st6" d="M381.2,625.6h-83.7v95.8h5.2l17.6-15.4l67.3-64.4L381.2,625.6L381.2,625.6z"/>
	<path class="st7" d="M199.9,625.1L74.7,680L29.9,725l-4.4,17.1l49.7-44.9l125.3-54.9h97.1v-17.3H199.9L199.9,625.1z"/>
	<path class="st8" d="M565.4,725L520.6,680l-125.3-54.9h-97.8v17.3h98.3L521,697.2l48.4,43.8L565.4,725L565.4,725z"/>
	<path class="st4" d="M211.7,625l-11,17.3h96.8V625H211.7L211.7,625z"/>
	<path class="st3" d="M389.5,625h-92v17.3h98L389.5,625z"/>
	<path class="st4" d="M285.9,841.9h11.4V728.4l-11.4-0.1V841.9z"/>
	<path class="st3" d="M297.3,728.4v113.5h11.7V728.4L297.3,728.4L297.3,728.4z"/>
	<path class="st9" d="M381.2,625h-83.7v17.3h89.4L381.2,625z"/>
	<path class="st10" d="M219.4,625L208,642.4h89.4V625H219.4z"/>
	<path class="st11" d="M297.1,622.6h-40l-24-57.9l0.1,77.6l37.3,42.7h26.7v-16.7L297.1,622.6L297.1,622.6L297.1,622.6z"/>
	<path class="st10" d="M337.3,622.6h-40h-0.1V685h26.7l34.1-42.7l6.5-77.6L337.3,622.6z"/>
	<path class="st5" d="M256.9,632.7l32,52.1h8.5v-13.8v-38.3H256.9z"/>
	<path class="st6" d="M297.2,622.6v62.2h10l37.7-62.2H297.2z"/>
	<path class="st5" d="M274.5,632.7l0,7.8l18.1,44.4h4.8v-14v-38.3H274.5L274.5,632.7z"/>
	<path class="st6" d="M324.3,622.6h-27.1V685h5.7l21.4-53L324.3,622.6L324.3,622.6z"/>
	<path class="st12" d="M520.2,680l0.1,0.1l0.1-0.1H520.2z M487.2,756.5l3.9,85.4h104.4L565,725.1l-44.7-45L487.2,756.5z"/>
	<path class="st4" d="M74.3,680l-44.8,45.1L0,841.9h104.2l3.9-85.4L74.9,680L74.3,680L74.3,680z"/>
	<path class="st1" d="M295.8,757.7l-3,2.2l-1.1,3.5l1.1,3.5l3,2.2h1.6v-11.4H295.8z"/>
	<path class="st2" d="M302.2,759.9l-3-2.2h-1.9v11.4h1.9l3-2.2l1.1-3.5L302.2,759.9L302.2,759.9z"/>
	<path class="st1" d="M295.8,803.8l-3,2.2l-1.1,3.5l1.1,3.5l3,2.2h1.6v-11.4H295.8L295.8,803.8z"/>
	<path class="st2" d="M302.2,806l-3-2.2h-1.9v11.4h1.9l3-2.2l1.1-3.5L302.2,806z"/>
	<path class="st13" d="M344,389.2v-31.4V389.2z M400.2,429.3l-10.4-58.1l-32.1-41.5l-3.8-6.4v7l-6.1-10v6.9l-34.8-11.7l-21,4.8
		l1.6-8.2l-15,9.6l-11.9-3.8l3.7,5.4h-25.2l9.7,3.5l-37.8,20.5l-23,45l-3.7,59.2l4.9,31l14,18.3l175.8-0.1l15.9-23.1L400.2,429.3
		L400.2,429.3z"/>
	<path class="st9" d="M360.5,612.5l2.1-25.4l-32,30.8l-33.4,7.6v12.4h38.6L360.5,612.5L360.5,612.5z"/>
	<path class="st10" d="M233.1,612.3v-25.2l30.7,30.7l33.4,7.6v12.4h-37.1L233.1,612.3L233.1,612.3z"/>
	<path class="st14" d="M333.6,613.5v19.9l-2,4.4h-34.4v-24.4H333.6L333.6,613.5z"/>
	<path class="st6" d="M260.7,613.5v19.9l2,4.4h34.4v-24.4H260.7L260.7,613.5z"/>
	<path class="st5" d="M297.4,376.7h-65.3l-19.9,92.9l4,84.1l25.5,53.9l37.7,25.3l18.1,1.4L297.4,376.7L297.4,376.7L297.4,376.7z"/>
	<path class="st15" d="M362.8,376.7H344v12.5v-12.5h-46.5h0v257.7l18.1-1.4l37.7-25.3l25.5-53.9l6.5-84L362.8,376.7L362.8,376.7z"/>
	<path class="st13" d="M228.9,356.9L209,459.3l17.3-59.8l30.2-12.1l47.6,6.1l-19.9-8.2l40.6,3.2l-12.7-8.8l31.7,9.5v-31.4
		L228.9,356.9L228.9,356.9z"/>
	<path class="st10" d="M287.7,459.3l-2.8,20l-6.3,24.2l-4.8,17.4l12.4,4.5l3.4,0.5h7.8v-66.7H287.7z"/>
	<path class="st14" d="M316.4,503.5l-6.9-24.2l-2.2-19.9h-9.8V526h7.8l3.4-0.5l12.4-4.5L316.4,503.5z"/>
	<path class="st15" d="M288,502L276,512.8l-2.2,8.1l13.9-5.9l9.8-4.8V502H288L288,502z"/>
	<path class="st6" d="M321.1,520.9l-2.2-8L307,502h-9.5v8.3l9.8,4.8L321.1,520.9L321.1,520.9z"/>
	<path class="st11" d="M294.5,459.3l-11,46.8l4.5,4.2h9.5v-51H294.5z"/>
	<path class="st15" d="M310,504.7l-9.5-45.4h-3v51h9.5L310,504.7z"/>
	<path class="st14" d="M290.7,526l-2.9-0.3l-2.3-0.5l1.8-6.2h5.2L290.7,526z"/>
	<path class="st9" d="M304,526l2.8-0.2l2.3-0.4l-1.8-6.3H302L304,526z"/>
	<path class="st6" d="M288,502l-12,10.9l11.2-50.4h6.8L288,502z"/>
	<path class="st10" d="M307,502l12,10.9l-11.2-50.4H301L307,502z"/>
	<path class="st12" d="M377.5,451.9l-17.2-3.1h-36.7l-16,6.9l-5.4,14.4l11.5,26l10.6,6.5l34.1-1l12.9-8.7l6.3-23.2l4.9-4.4v-12.6
		L377.5,451.9z"/>
	<path class="st12" d="M368.7,455.6l-9.4-4.5h-33.9l-14.8,6.3l-5,13.3l10.6,24l9.8,6l31.4-0.9l11.9-8l5.8-21.4l-0.4-4.6l-3.1-7.1
		L368.7,455.6L368.7,455.6z"/>
	<path class="st6" d="M367.6,456.4l-9.2-4.4h-33l-14.4,6.2l-4.9,13l10.3,23.4l9.5,5.8l30.6-0.9l11.6-7.8l5.7-20.9l-0.4-4.5l-3-6.9
		L367.6,456.4L367.6,456.4z"/>
	<path class="st2" d="M217.6,451.9l17.2-3.1h36.7l16,6.9l5.4,14.4l-11.5,26l-10.6,6.5l-34.1-1l-12.9-8.7l-6.3-23.2l-4.9-4.4v-12.6
		L217.6,451.9L217.6,451.9z"/>
	<path class="st2" d="M226.4,455.6l9.4-4.5h33.9l14.8,6.3l5,13.3l-10.6,24l-9.8,6l-31.4-0.9l-11.9-8l-5.8-21.4l0.4-4.6l3.1-7.1
		L226.4,455.6L226.4,455.6z"/>
	<path class="st2" d="M297.6,467.5H295l-1.9,2.7l-5.4-14.4l5.4,2.9h4.6"/>
	<path class="st12" d="M297.5,467.5h2.7l1.9,2.7l5.4-14.4l-5.4,2.9h-4.6"/>
	<path class="st11" d="M227.6,456.4l9.2-4.4h33l14.4,6.2l4.9,13l-10.3,23.4l-9.5,5.8l-30.6-0.9l-11.6-7.8l-5.7-20.9l0.4-4.5l3-6.9
		L227.6,456.4L227.6,456.4z"/>
	<path class="st13" d="M360.4,357.9l-16.4-0.1v31.4l4.5,1.3l21.1,23.8l6.9,35.9l8.1,42l10.8-62.9L360.4,357.9L360.4,357.9z"/>
	<path class="st13" d="M235.5,358.2l16.4-0.1v31.4l-4.5,1.3l-21.1,23.8l-6.9,35.9l-8.1,42l-10.8-62.9L235.5,358.2L235.5,358.2z"/>
	<path class="st15" d="M232.4,487.8l-5.7-6.2v-17.9l5.4-6l41,0l7.4,9.9l0.3,13.9l-5.4,6.2H232.4L232.4,487.8z"/>
	<path class="st16" d="M255.1,477h7.9l13.1-4.2v-2.2l-10.1-8.2h-10.8h0.1h-10.8l-12.3,8.2v2.2l15.3,4.2H255.1"/>
	<path class="st17" d="M232.1,472.8v-2.2l12.3-8.2H266l10.1,8.2v2.2L266,465h-21.6L232.1,472.8z"/>
	<path class="st2" d="M232.1,470.8v-1.6l12.3-8.2H266l10.1,8.2v1.6L266,463h-21.6L232.1,470.8z"/>
	<path class="st2" d="M256.4,475.8l-4.1-4.1v-5.8l4.1-4.1h5.8l4.1,4.1v5.8l-4.1,4.1H256.4z"/>
	<path class="st17" d="M259.6,470.1l-1.6-1.6v-2.3l1.6-1.6h2.3l1.6,1.6v2.3l-1.6,1.6H259.6z"/>
	<path class="st10" d="M254.8,484.2h-13.2l-8.2-4.8h21.4L254.8,484.2L254.8,484.2z"/>
	<path class="st14" d="M254.5,484.2h13.2l8.2-4.8h-21.4L254.5,484.2L254.5,484.2z"/>
	<path class="st10" d="M320.4,487.7l-5.7-6.2v-17.9l5.4-6l41,0l7.4,9.9l0.3,13.9l-5.4,6.2H320.4L320.4,487.7z"/>
	<path class="st17" d="M343.1,476.9h7.9l13.1-4.2v-2.2l-10.1-8.2h-10.8h0.1h-10.8l-12.3,8.2v2.2l15.3,4.2H343.1"/>
	<path class="st4" d="M320,472.7v-2.2l12.3-8.2h21.6l10.1,8.2v2.2l-10.1-7.8h-21.6L320,472.7L320,472.7z"/>
	<path class="st12" d="M320,470.8v-1.6l12.3-8.2h21.6l10.1,8.2v1.6l-10.1-7.8h-21.6L320,470.8z"/>
	<path class="st12" d="M344.4,475.8l-4.1-4.1v-5.8l4.1-4.1h5.8l4.1,4.1v5.8l-4.1,4.1H344.4z"/>
	<path class="st4" d="M347.5,469.7l-1.6-1.6v-2l1.6-1.6l2.3-0.3l1.6,1.6v2.3l-1.6,1.6H347.5z"/>
	<path class="st14" d="M342.7,484.2h-13.2l-8.2-4.8h21.4L342.7,484.2L342.7,484.2z"/>
	<path class="st9" d="M342.5,484.2h13.2l8.2-4.8h-21.4L342.5,484.2L342.5,484.2z"/>
	<path class="st2" d="M240.7,449.4l-12.6-1.9l2.2-1.6l8.2-5L267,443l7.5,0.6l1.4,6.5H267L240.7,449.4L240.7,449.4z"/>
	<path class="st12" d="M354.6,449.4l12.6-1.9l-2.2-1.6l-8.2-5l-28.6,2.1l-7.5,0.6l-1.4,6.5h8.9L354.6,449.4L354.6,449.4z"/>
	<path class="st11" d="M213.2,485.6l-15.1-14l-5.3,6.8l8.2,40.3l14.5,20.1L213.2,485.6L213.2,485.6z"/>
	<path class="st5" d="M205.9,487.1l-6.7-6.2l-2.5,3.2l3.8,18.7l6.6,9.3L205.9,487.1L205.9,487.1z"/>
	<path class="st15" d="M381.8,485.3l15.4-13.7l5.3,6.8l-8.2,40.3l-14.3,20.1L381.8,485.3L381.8,485.3z"/>
	<path class="st6" d="M388.8,487.1l6.7-6.2l2.5,3.2l-3.8,18.7l-6.6,9.3L388.8,487.1L388.8,487.1z"/>
	<path class="st18" d="M297.5,548.7L297.5,548.7"/>
	<path class="st18" d="M297.5,548.7L297.5,548.7"/>
	<path class="st9" d="M297.5,548.7v21h0.2l-0.2,0l9.9,1.7l21.8-15l-21-10L297.5,548.7L297.5,548.7L297.5,548.7z"/>
	<path class="st14" d="M297.5,548.7l-10.7-2.3l-21,10l21.8,15l9.9-1.7l-0.2,0h0.2L297.5,548.7"/>
	<path class="st6" d="M297.5,569.7v-10.8h-0.2h-15.4l-16.1-2.5l21.8,15"/>
	<path class="st10" d="M329.2,556.4l-16.3,2.5h-15.4v10.8l9.9,1.7L329.2,556.4L329.2,556.4z"/>
	<path class="st12" d="M307.1,573.7l-9.7-1.7v8.9L307.1,573.7z"/>
	<path class="st2" d="M297.5,572L297.5,572l-9.8,1.7l9.7,7.3l0.1-0.1V572z"/>
	<path class="st11" d="M252.3,685l40,36.5h5.2V685H252.3L252.3,685z"/>
	<path class="st10" d="M297.5,685v36.5h5.2l39.9-36.5H297.5z"/>
	<path class="st8" d="M103.9,841.9h33.2L107.9,756L103.9,841.9z"/>
	<path class="st13" d="M458.1,841.9h33.2l-4-85.9L458.1,841.9z"/>
	<path class="st5" d="M287.7,515h9.8V502l-14,4.1L287.7,515L287.7,515z"/>
	<path class="st11" d="M310,504.7l-12.5-2.7v13h9.8L310,504.7L310,504.7z"/>
	<path class="st2" d="M238.2,388.9l17.8-7.4l21.3,3.7l-10.4-6.7l31,3.9l-12.8-7.5l40,3.6l17.6,5.3l-19.6-15.5l-43.7-4.1l-31.5,12.3
		L238.2,388.9L238.2,388.9z"/>
	<path class="st2" d="M263.4,553.6l-1.5-0.5l3.6-9.9l1.5,0.5L263.4,553.6L263.4,553.6z"/>
	<path class="st2" d="M269.6,549.6l-1.5-0.5l3.5-9.9l1.5,0.5L269.6,549.6z"/>
	<path class="st2" d="M275.7,545.6l-1.5-0.5l3.5-9.9l1.5,0.5L275.7,545.6L275.7,545.6z"/>
	<path class="st2" d="M281.9,541.7l-1.5-0.5l3.6-9.9l1.5,0.5L281.9,541.7L281.9,541.7z"/>
	<path class="st2" d="M288.2,541.7l-1.5-0.5l3.6-9.9l1.5,0.5L288.2,541.7L288.2,541.7z"/>
	<path class="st2" d="M333.1,553.6l1.5-0.5l-3.6-9.9l-1.5,0.5L333.1,553.6L333.1,553.6z"/>
	<path class="st2" d="M327,549.6l1.5-0.5l-3.5-9.9l-1.5,0.5L327,549.6z"/>
	<path class="st2" d="M320.8,545.6l1.5-0.5l-3.5-9.9l-1.5,0.5L320.8,545.6L320.8,545.6z"/>
	<path class="st2" d="M314.6,541.7l1.5-0.5l-3.6-9.9l-1.5,0.5L314.6,541.7L314.6,541.7z"/>
	<path class="st2" d="M308.4,541.7l1.5-0.5l-3.6-9.9l-1.5,0.5L308.4,541.7L308.4,541.7z"/>
	<path class="st2" d="M360.5,345.9l-8.3-12.7v7.5l-6-9.8v6.9l-34.8-13.2l-23.5,6.9v-6.9l-7.8,8.6l-11.2-4.6l4.9,4.6h-15.6l10.8,3.5
		l-39.4,20.2l-9.9,19.7l58.8-25.9l52.9,3.8l12.7,3.2l25.6,6.5C369.6,364.3,360.5,345.9,360.5,345.9z"/>
	<path class="st13" d="M340.2,345.3l2.4,12.4L301,345.3l-18.5,9.4l61.6,5.6v-2.7v2.7l14.2,1.3L340.2,345.3L340.2,345.3z"/>
	<path class="st15" d="M214.8,532.3l37.4,38.5v44l-10.6-7.2l-25.5-53.9l-1.9-21.4H214.8L214.8,532.3z"/>
	<path class="st10" d="M380.1,532.3l-37.4,38.5v44l10.6-7.2l25.5-53.9l1.9-21.4H380.1z"/>
	<rect x="217.6" y="545" class="st2" width="1.3" height="8.7"/>
	<rect x="221.6" y="553.8" class="st2" width="1.3" height="8.7"/>
	<rect x="225.5" y="562.2" class="st2" width="1.3" height="8.7"/>
	<rect x="229.4" y="570.4" class="st2" width="1.3" height="8.7"/>
	<rect x="233.4" y="578.5" class="st2" width="1.3" height="8.7"/>
	<rect x="237.3" y="586" class="st2" width="1.3" height="8.7"/>
	<rect x="241.3" y="595.5" class="st2" width="1.3" height="8.7"/>
	<rect x="245.2" y="599.5" class="st2" width="1.3" height="8.7"/>
	<rect x="250.4" y="603" class="st2" width="1.3" height="8.7"/>
	<rect x="255.6" y="606.5" class="st2" width="1.3" height="8.7"/>
	<rect x="260.8" y="610" class="st2" width="1.3" height="8.7"/>
	<rect x="266" y="613.6" class="st2" width="1.3" height="8.7"/>
	<rect x="271.2" y="617.1" class="st2" width="1.3" height="8.7"/>
	<rect x="276.4" y="620.6" class="st2" width="1.3" height="8.7"/>
	<rect x="281.3" y="623.2" class="st2" width="1.3" height="8.7"/>
	<rect x="287.4" y="623.2" class="st2" width="1.3" height="8.7"/>
	<rect x="293.4" y="623.2" class="st2" width="1.3" height="8.7"/>
	<rect x="217.6" y="531.9" class="st2" width="1.3" height="8.7"/>
	<rect x="221.6" y="540.7" class="st2" width="1.3" height="8.7"/>
	<rect x="225.5" y="549.2" class="st2" width="1.3" height="8.7"/>
	<rect x="229.4" y="557.3" class="st2" width="1.3" height="8.7"/>
	<rect x="233.4" y="565.5" class="st2" width="1.3" height="8.7"/>
	<rect x="237.3" y="573" class="st2" width="1.3" height="8.7"/>
	<rect x="241.3" y="582.4" class="st2" width="1.3" height="8.7"/>
	<rect x="245.2" y="586.4" class="st2" width="1.3" height="8.7"/>
	<rect x="217.6" y="518.8" class="st2" width="1.3" height="8.7"/>
	<rect x="221.6" y="527.6" class="st2" width="1.3" height="8.7"/>
	<rect x="225.5" y="536.1" class="st2" width="1.3" height="8.7"/>
	<rect x="229.4" y="544.2" class="st2" width="1.3" height="8.7"/>
	<rect x="233.4" y="552.4" class="st2" width="1.3" height="8.7"/>
	<rect x="237.3" y="559.9" class="st2" width="1.3" height="8.7"/>
	<rect x="241.3" y="569.3" class="st2" width="1.3" height="8.7"/>
	<rect x="245.2" y="573.3" class="st2" width="1.3" height="8.7"/>
	<rect x="250.4" y="589.9" class="st2" width="1.3" height="8.7"/>
	<rect x="255.6" y="593.5" class="st2" width="1.3" height="8.7"/>
	<rect x="260.8" y="597" class="st2" width="1.3" height="8.7"/>
	<rect x="266" y="600.5" class="st2" width="1.3" height="8.7"/>
	<rect x="271.2" y="604" class="st2" width="1.3" height="8.7"/>
	<rect x="276.4" y="607.5" class="st2" width="1.3" height="8.7"/>
	<rect x="276.4" y="594.5" class="st2" width="1.3" height="8.7"/>
	<rect x="281.3" y="610.1" class="st2" width="1.3" height="8.7"/>
	<rect x="287.4" y="610.1" class="st2" width="1.3" height="8.7"/>
	<rect x="293.4" y="610.1" class="st2" width="1.3" height="8.7"/>
	<rect x="281.3" y="597.1" class="st2" width="1.3" height="8.7"/>
	<rect x="287.4" y="597.1" class="st2" width="1.3" height="8.7"/>
	<rect x="293.4" y="597.1" class="st2" width="1.3" height="8.7"/>
	<rect x="287.4" y="584" class="st2" width="1.3" height="8.7"/>
	<rect x="293.4" y="584" class="st2" width="1.3" height="8.7"/>
	<rect x="376.3" y="545" class="st2" width="1.3" height="8.7"/>
	<rect x="372.3" y="553.8" class="st2" width="1.3" height="8.7"/>
	<rect x="368.4" y="562.2" class="st2" width="1.3" height="8.7"/>
	<rect x="364.4" y="570.4" class="st2" width="1.3" height="8.7"/>
	<rect x="360.5" y="578.5" class="st2" width="1.3" height="8.7"/>
	<rect x="356.6" y="586" class="st2" width="1.3" height="8.7"/>
	<rect x="352.6" y="595.5" class="st2" width="1.3" height="8.7"/>
	<rect x="348.7" y="599.5" class="st2" width="1.3" height="8.7"/>
	<rect x="343.5" y="603" class="st2" width="1.3" height="8.7"/>
	<rect x="338.3" y="606.5" class="st2" width="1.3" height="8.7"/>
	<rect x="333.1" y="610" class="st2" width="1.3" height="8.7"/>
	<rect x="327.9" y="613.6" class="st2" width="1.3" height="8.7"/>
	<rect x="322.7" y="617.1" class="st2" width="1.3" height="8.7"/>
	<rect x="317.5" y="620.6" class="st2" width="1.3" height="8.7"/>
	<rect x="312.6" y="623.2" class="st2" width="1.3" height="8.7"/>
	<rect x="306.5" y="623.2" class="st2" width="1.3" height="8.7"/>
	<rect x="300.5" y="623.2" class="st2" width="1.3" height="8.7"/>
	<rect x="376.3" y="531.9" class="st2" width="1.3" height="8.7"/>
	<rect x="372.3" y="540.7" class="st2" width="1.3" height="8.7"/>
	<rect x="368.4" y="549.2" class="st2" width="1.3" height="8.7"/>
	<rect x="364.4" y="557.3" class="st2" width="1.3" height="8.7"/>
	<rect x="360.5" y="565.5" class="st2" width="1.3" height="8.7"/>
	<rect x="356.6" y="573" class="st2" width="1.3" height="8.7"/>
	<rect x="352.6" y="582.4" class="st2" width="1.3" height="8.7"/>
	<rect x="348.7" y="586.4" class="st2" width="1.3" height="8.7"/>
	<rect x="376.3" y="518.8" class="st2" width="1.3" height="8.7"/>
	<rect x="372.3" y="527.6" class="st2" width="1.3" height="8.7"/>
	<rect x="368.4" y="536.1" class="st2" width="1.3" height="8.7"/>
	<rect x="364.4" y="544.2" class="st2" width="1.3" height="8.7"/>
	<rect x="360.5" y="552.4" class="st2" width="1.3" height="8.7"/>
	<rect x="356.6" y="559.9" class="st2" width="1.3" height="8.7"/>
	<rect x="352.6" y="569.3" class="st2" width="1.3" height="8.7"/>
	<rect x="348.7" y="573.3" class="st2" width="1.3" height="8.7"/>
	<rect x="343.5" y="589.9" class="st2" width="1.3" height="8.7"/>
	<rect x="338.3" y="593.5" class="st2" width="1.3" height="8.7"/>
	<rect x="333.1" y="597" class="st2" width="1.3" height="8.7"/>
	<rect x="327.9" y="600.5" class="st2" width="1.3" height="8.7"/>
	<rect x="322.7" y="604" class="st2" width="1.3" height="8.7"/>
	<rect x="317.5" y="607.5" class="st2" width="1.3" height="8.7"/>
	<rect x="317.5" y="594.5" class="st2" width="1.3" height="8.7"/>
	<rect x="312.6" y="610.1" class="st2" width="1.3" height="8.7"/>
	<rect x="306.5" y="610.1" class="st2" width="1.3" height="8.7"/>
	<rect x="300.5" y="610.1" class="st2" width="1.3" height="8.7"/>
	<rect x="312.6" y="597.1" class="st2" width="1.3" height="8.7"/>
	<rect x="306.5" y="597.1" class="st2" width="1.3" height="8.7"/>
	<rect x="300.5" y="597.1" class="st2" width="1.3" height="8.7"/>
	<rect x="306.5" y="584" class="st2" width="1.3" height="8.7"/>
	<rect x="300.5" y="584" class="st2" width="1.3" height="8.7"/>
</g>
<text transform="matrix(1 0 0 1 223.1215 86.0887)" class="st19 st20">Hello !</text>
<text transform="matrix(1 0 0 1 120.0191 146.0499)"><tspan x="0" y="0" class="st19 st21">Je suis Jimmy Letecheur</tspan><tspan x="59.3" y="34" class="st19 st21">du groupe 2286</tspan></text>
<g>
	<g>
		<g class="st22">
			<rect x="110" y="241.6" class="st23" width="374.5" height="31.9"/>
		</g>
		<g>
			<rect x="110" y="240.6" class="st16" width="374.5" height="31.9"/>
		</g>
	</g>
	<text transform="matrix(1 0 0 1 198.4419 265.4991)" class="st24 st19 st25">http://letecheur.me</text>
</g>
</svg>
