<?xml version="1.0" encoding="UTF-8" standalone="no"?>
<svg width="100px" height="100px" viewBox="0 0 100 100" version="1.1" xmlns="http://www.w3.org/2000/svg" xmlns:xlink="http://www.w3.org/1999/xlink">
    <!-- Generator: Sketch 3.7 (28169) - http://www.bohemiancoding.com/sketch -->
    <title>Page 1</title>
    <desc>Created with Sketch.</desc>
    <defs></defs>
    <g id="À-propos" stroke="none" stroke-width="1" fill="none" fill-rule="evenodd">
        <g id="Desktop-HD" transform="translate(-676.000000, -3393.000000)">
            <g id="CMS" transform="translate(495.000000, 3358.000000)">
                <g id="prestashop" transform="translate(174.000000, 0.000000)">
                    <g id="Page-1" transform="translate(7.000000, 35.000000)">
                        <path d="M100,50 C100,77.6148438 77.6148437,100 50,100 C22.3859375,100 0,77.6148438 0,50 C0,22.3859375 22.3859375,0 50,0 C77.6148437,0 100,22.3859375 100,50" id="Fill-1" fill="#149F86"></path>
                        <path d="M47.1339844,64.8483594 L44.2128906,62.3694531 C44.2128906,62.3694531 42.8410156,61.5288281 41.7792969,62.9889844 L41.6464844,63.2991406 C41.6464844,63.2991406 45.1082031,66.6569531 47.9894531,70.0577344 C50.4792969,72.9975781 52.4449219,76.0452344 52.4449219,76.0452344 L62.3136719,74.6280469 C62.3136719,74.6280469 62.2261719,71.5749219 62.9785156,68.1225781 C63.2691406,66.7866406 63.3285156,65.2053906 63.2121094,63.7405469 C63.0277344,61.4202344 62.3144531,59.1272656 61.4730469,58.8288281 C60.1011719,58.3421094 59.7035156,58.9171094 59.9246094,60.0233594 L60.0128906,61.3514844 L58.7738281,61.3514844 C58.7738281,61.3514844 58.6855469,57.8553906 56.9144531,57.8991406 C55.1449219,57.9428906 55.7644531,60.9975781 55.7644531,60.9975781 L54.6574219,60.9975781 C54.6574219,60.9975781 54.8347656,57.7225781 53.0207031,57.7225781 C51.2058594,57.7225781 51.6042969,61.4835156 51.6042969,61.4835156 L50.5417969,61.4835156 L49.0535156,52.1335156 C49.0535156,52.1335156 48.9660156,51.0819531 47.7371094,51.2132031 C46.5082031,51.3452344 46.6402344,53.2319531 46.6402344,53.2319531 L48.7027344,67.0553906 L47.2542969,67.0116406 L47.1339844,64.8483594 Z" id="Fill-3" fill="#FEFEFE"></path>
                        <path d="M54.4891406,30.2108594 C52.7453906,24.0233594 48.5625781,23.0210156 48.5625781,23.0210156 C54.4891406,23.0647656 55.8399219,30.0803906 55.8399219,30.0803906 L54.4891406,30.2108594 Z M41.0242969,31.6053906 C41.0242969,31.6053906 41.4180469,24.0428906 46.4274219,23.4569531 C51.2649219,22.8897656 53.7485156,29.4702344 53.7485156,30.4288281 L41.0242969,31.6053906 Z M38.9758594,31.8671094 C38.9758594,31.8671094 39.5422656,25.4178906 43.9000781,23.8491406 C43.9000781,23.8491406 40.2836719,27.1171094 40.5446094,31.6928906 L38.9758594,31.8671094 Z M64.5594531,29.4100781 L56.4383594,30.2358594 C56.4383594,30.2358594 55.6977344,21.5663281 46.2938281,22.7717969 C38.5266406,23.7671094 38.4274219,32.0897656 38.4274219,32.0897656 L31.7078906,32.7514844 L35.2250781,66.9686719 L42.7914844,66.1983594 C42.0633594,65.4694531 41.3383594,64.7991406 40.6391406,64.2335156 C40.6391406,64.2335156 39.5735156,63.0241406 41.3586719,61.5264844 C43.1446094,60.0296094 44.9578906,61.2960156 44.9578906,61.2960156 L46.6571094,62.7069531 L45.3750781,53.7335156 C45.3750781,53.7335156 44.6211719,50.4780469 47.5782031,49.8647656 C47.5782031,49.8647656 49.9961719,49.5194531 50.3414844,51.8803906 L51.2352344,57.1499219 C51.2352344,57.1499219 53.1352344,55.4225781 55.0352344,57.3507031 C55.0352344,57.3507031 57.1375781,55.3647656 59.1532031,57.7546094 C59.1532031,57.7546094 61.7149219,55.6530469 63.5289844,59.3382031 C64.2039844,60.7077344 64.4594531,62.3991406 64.5157031,63.9842969 L68.2922656,63.5999219 L64.5594531,29.4100781 Z" id="Fill-5" fill="#FEFEFE"></path>
                    </g>
                </g>
            </g>
        </g>
    </g>
</svg>