<svg width="52" height="53" viewBox="0 0 52 53" xmlns="http://www.w3.org/2000/svg"><title>Shape</title><desc>Created with Sketch.</desc><defs><linearGradient x1="0%" y1="14.4%" y2="63.229%" id="a"><stop stop-color="#43CEA2" offset="0%"/><stop stop-color="#185A9D" offset="100%"/></linearGradient></defs><path d="M14.688 15.728c1.212-1.212 3.175-1.212 4.381-.001l.38.383.707.713.71-.71 4.937-4.94.704-.704-.701-.707-.381-.384c-2.991-2.998-7.266-4.174-11.31-3.225l1.215.813c-.603-3.698-3.805-6.451-7.587-6.451-4.246 0-7.69 3.448-7.69 7.696 0 3.617 2.511 6.722 5.992 7.509l-.737-1.262c-1.265 4.228-.147 8.851 3.025 12.027l11.125 11.128.708.708.707-.709 4.931-4.94.706-.707-.706-.706-11.124-11.127c-1.209-1.209-1.207-3.185.009-4.401zm-1.414-1.414c-1.997 1.997-1.999 5.239-.009 7.229l11.124 11.127-.001-1.413-4.931 4.94 1.415-.001-11.124-11.127c-2.648-2.651-3.581-6.508-2.524-10.04l.307-1.026-1.044-.236c-2.574-.582-4.433-2.881-4.433-5.559 0-3.145 2.549-5.696 5.69-5.696 2.796 0 5.167 2.038 5.613 4.773l.172 1.057 1.043-.245c3.376-.792 6.94.189 9.435 2.689l.379.382.71-.704-.707-.707-4.937 4.94.707.707.71-.704-.381-.384c-1.989-1.997-5.22-1.997-7.214-.003zm38.655-6.105c0-4.251-3.441-7.696-7.687-7.696-3.851 0-7.093 2.851-7.615 6.635l1.273-.823c-4.209-1.238-8.795-.11-11.958 3.056l-11.124 11.127-.707.707.707.707 4.937 4.94.707.708.707-.708 11.121-11.124c1.216-1.216 3.173-1.218 4.378-.01 1.213 1.213 1.213 3.183-.002 4.395l-.382.382-.706.706.705.707 4.931 4.943.71.712.708-.714.384-.387c3.14-3.143 4.269-7.701 3.063-11.898l-.831 1.268c3.803-.5 6.675-3.757 6.675-7.632h-1v1h1.003v-1zm-2 0h1v-1h-1.003v1c0 2.868-2.126 5.279-4.936 5.649l-1.151.151.321 1.116c1.007 3.506.064 7.309-2.559 9.935l-.387.39.71.704.708-.706-4.931-4.943-.708.706.707.707.381-.381c1.996-1.992 1.997-5.229.003-7.223-1.986-1.99-5.21-1.988-7.208.009l-11.121 11.124h1.415l-4.937-4.94v1.414l11.124-11.127c2.64-2.643 6.466-3.583 9.979-2.551l1.114.328.159-1.15c.386-2.798 2.786-4.908 5.634-4.908 3.141 0 5.687 2.549 5.687 5.696zm-3.715 30.21c.99-4.068-.181-8.397-3.198-11.42l-11.109-11.128-.707-.708-.708.708-4.937 4.937-.706.706.706.707 11.109 11.134c1.22 1.223 1.222 3.178.01 4.389-1.212 1.212-3.175 1.212-4.385.001l-.376-.379-.708-.714-.71.712-4.931 4.943-.705.707.706.706.378.378c3.197 3.201 7.859 4.314 12.104 3.008l-1.275-.758c.717 3.562 3.862 6.165 7.539 6.165 4.244 0 7.687-3.446 7.687-7.696-.007-3.849-2.845-7.091-6.616-7.624l.832 1.227zm-1.943-.473l-.261 1.072 1.093.154c2.788.394 4.891 2.796 4.896 5.646 0 3.144-2.548 5.695-5.687 5.695-2.721 0-5.048-1.927-5.579-4.56l-.218-1.083-1.056.325c-3.543 1.091-7.432.161-10.101-2.51l-.378-.378-.707.707.708.706 4.931-4.943-.708-.706-.71.704.378.381c1.993 1.997 5.223 1.997 7.217.003 1.993-1.993 1.991-5.213-.009-7.216l-11.109-11.134-.001 1.413 4.937-4.937-1.415-.001 11.109 11.127c2.52 2.525 3.497 6.138 2.67 9.535zm-12.714-11.346l-11.787 11.131c-1.229 1.231-3.535 1.23-4.749.014-1.262-1.264-1.341-3.227-.173-4.395l.079-.09.297-.378.55-.7-.632-.627-4.975-4.937-.685-.679-.704.66-.4.375c-3.078 3.081-4.245 7.47-3.197 11.57l.739-1.221c-3.445.814-5.92 3.901-5.92 7.492 0 4.251 3.437 7.696 7.681 7.696 3.607-.004 6.702-2.501 7.496-5.97l-1.216.747c4.089 1.016 8.437-.146 11.464-3.183l11.762-11.11.694-.656-.624-.724-4.259-4.943-1.758-2.04v2.696h1l-.687-.727zm1.373 1.454l.313-.296v-.434h-1l-.758.653 4.259 4.943.071-1.38-11.784 11.131c-2.547 2.555-6.173 3.524-9.587 2.675l-.989-.246-.227.993c-.587 2.566-2.878 4.414-5.548 4.417-3.137 0-5.68-2.549-5.68-5.696 0-2.658 1.832-4.943 4.38-5.545l.991-.234-.252-.987c-.874-3.422.099-7.084 2.651-9.639l.376-.352-.684-.73-.704.71 4.975 4.937.704-.71-.787-.618-.297.378.787.618-.707-.707c-1.976 1.976-1.846 5.202.171 7.223 1.995 1.999 5.569 2 7.559.006l11.766-11.11z" fill="url(#a)"/></svg>