<svg width="55" height="55" xmlns="http://www.w3.org/2000/svg">
  <g fill="none" fill-rule="evenodd">
    <path fill="#344557" d="M10 12h37v30H10z"/>
    <path d="M20.598 29.19H17.16v5.157h3.438c1.42 0 2.578-1.156 2.578-2.578s-1.155-2.58-2.578-2.58zM36.926 25.754c-1.398 0-2.632.68-3.416 1.718h6.833c-.784-1.036-2.018-1.718-3.417-1.718zM22.316 22.316c0-.948-.77-1.718-1.718-1.718H17.16v3.437h3.438c.948 0 1.718-.77 1.718-1.72z" fill="#9B59B6"/>
    <path d="M49.816 0H5.13C2.295 0 0 2.296 0 5.13v44.686c0 2.833 2.296 5.13 5.13 5.13h44.686c2.833 0 5.13-2.297 5.13-5.13V5.13c0-2.834-2.296-5.13-5.13-5.13zM32.63 17.16h8.592v3.438H32.63V17.16zm-9.454 20.625H12.004V17.16h10.312c2.848 0 5.157 2.308 5.157 5.156 0 1.597-.74 3.006-1.88 3.952 2.115.93 3.598 3.042 3.598 5.5 0 3.324-2.692 6.017-6.014 6.017zm21.398-6.875H32.718c.4 1.96 2.133 3.437 4.21 3.437 1.318 0 2.483-.608 3.272-1.545l3.516.88c-1.302 2.432-3.838 4.105-6.79 4.105-4.27 0-7.733-3.464-7.733-7.735 0-4.27 3.463-7.734 7.734-7.734 4.27 0 7.735 3.463 7.735 7.734-.002.293-.057.573-.088.858z" fill="#9B59B6"/>
  </g>
</svg>
