<?xml version="1.0" standalone="no"?><!DOCTYPE svg PUBLIC "-//W3C//DTD SVG 1.1//EN" "http://www.w3.org/Graphics/SVG/1.1/DTD/svg11.dtd"><svg width="100%" height="100%" viewBox="0 0 623 592" version="1.1" xmlns="http://www.w3.org/2000/svg" xmlns:xlink="http://www.w3.org/1999/xlink" xml:space="preserve" style="fill-rule:evenodd;clip-rule:evenodd;stroke-linejoin:round;stroke-miterlimit:1.41421;"><g id="Calque1"><rect x="-5.855" y="-5.365" width="633.878" height="601.945" style="fill:#00b1c5;"/></g><g><path d="M521.036,494.925c0,10.912 -8.851,19.756 -19.768,19.756l-337.537,0c-10.917,0 -19.767,-8.844 -19.767,-19.756l0,-230.32c0,-10.911 8.85,-19.755 19.767,-19.755l337.537,0c10.917,0 19.768,8.844 19.768,19.755l0,230.32Z" style="fill:#989999;"/><path d="M143.964,461.646l0,33.28c0,10.911 8.85,19.754 19.768,19.754l337.537,0c10.916,0 19.767,-8.843 19.767,-19.754l0,-33.28l-377.072,0l0,0Z" style="fill:#313533;"/><rect x="156.927" y="256.946" width="351.145" height="204.7" style="fill:#c2e2d7;"/><path d="M365.391,514.681l-65.782,0l-17.5,70.824l100.782,0l-17.5,-70.824Z" style="fill:#989999;"/><path d="M412.739,585.505c0,3.554 -2.884,6.435 -6.439,6.435l-147.6,0c-3.556,0 -6.438,-2.881 -6.438,-6.435c0,-3.552 2.882,-6.434 6.438,-6.434l147.6,0c3.555,0 6.439,2.882 6.439,6.434" style="fill:#313533;"/><path d="M311.858,418.759l-5.438,0l0,-3l2.438,0l0,-2.435l3,0l0,5.435Z" style="fill:#fff;"/><path d="M295.382,418.759l-9.462,0l0,-3l9.462,0l0,3ZM273.304,418.759l-9.462,0l0,-3l9.462,0l0,3ZM251.226,418.759l-9.462,0l0,-3l9.462,0l0,3ZM229.148,418.759l-9.462,0l0,-3l9.462,0l0,3ZM207.07,418.759l-9.462,0l0,-3l9.462,0l0,3Z" style="fill:#fff;"/><path d="M177.038,415.759l2.438,0l0,3l-5.438,0l0,-5.435l3,0l0,2.435Z" style="fill:#fff;"/><path d="M177.038,402.078l-3,0l0,-9.646l3,0l0,9.646ZM177.038,379.571l-3,0l0,-9.646l3,0l0,9.646ZM177.038,357.064l-3,0l0,-9.646l3,0l0,9.646ZM177.038,334.557l-3,0l0,-9.646l3,0l0,9.646ZM177.038,312.05l-3,0l0,-9.646l3,0l0,9.646Z" style="fill:#fff;"/><path d="M179.476,281.558l-2.438,0l0,2.435l-3,0l0,-5.435l5.438,0l0,3Z" style="fill:#fff;"/><path d="M199.977,281.558l-9.462,0l0,-3l9.462,0l0,3ZM222.055,281.558l-9.462,0l0,-3l9.462,0l0,3ZM244.133,281.558l-9.462,0l0,-3l9.462,0l0,3ZM266.211,281.558l-9.462,0l0,-3l9.462,0l0,3ZM288.289,281.558l-9.462,0l0,-3l9.462,0l0,3Z" style="fill:#fff;"/><path d="M311.858,283.993l-3,0l0,-2.435l-2.438,0l0,-3l5.438,0l0,5.435Z" style="fill:#fff;"/><path d="M311.858,394.913l-3,0l0,-9.646l3,0l0,9.646ZM311.858,372.406l-3,0l0,-9.646l3,0l0,9.646ZM311.858,349.899l-3,0l0,-9.646l3,0l0,9.646ZM311.858,327.392l-3,0l0,-9.646l3,0l0,9.646ZM311.858,304.885l-3,0l0,-9.646l3,0l0,9.646Z" style="fill:#fff;"/><path d="M490.962,418.759l-5.438,0l0,-3l2.438,0l0,-2.435l3,0l0,5.435Z" style="fill:#fff;"/><path d="M474.486,418.759l-9.462,0l0,-3l9.462,0l0,3ZM452.408,418.759l-9.462,0l0,-3l9.462,0l0,3ZM430.33,418.759l-9.462,0l0,-3l9.462,0l0,3ZM408.252,418.759l-9.462,0l0,-3l9.462,0l0,3ZM386.174,418.759l-9.462,0l0,-3l9.462,0l0,3Z" style="fill:#fff;"/><path d="M356.142,415.759l2.437,0l0,3l-5.437,0l0,-5.435l3,0l0,2.435Z" style="fill:#fff;"/><path d="M356.142,402.078l-3,0l0,-9.646l3,0l0,9.646ZM356.142,379.571l-3,0l0,-9.646l3,0l0,9.646ZM356.142,357.064l-3,0l0,-9.646l3,0l0,9.646ZM356.142,334.557l-3,0l0,-9.646l3,0l0,9.646ZM356.142,312.05l-3,0l0,-9.646l3,0l0,9.646Z" style="fill:#fff;"/><path d="M358.579,281.558l-2.437,0l0,2.435l-3,0l0,-5.435l5.437,0l0,3Z" style="fill:#fff;"/><path d="M379.079,281.558l-9.462,0l0,-3l9.462,0l0,3ZM401.157,281.558l-9.462,0l0,-3l9.462,0l0,3ZM423.235,281.558l-9.462,0l0,-3l9.462,0l0,3ZM445.313,281.558l-9.462,0l0,-3l9.462,0l0,3ZM467.391,281.558l-9.462,0l0,-3l9.462,0l0,3Z" style="fill:#fff;"/><path d="M490.962,283.993l-3,0l0,-2.435l-2.438,0l0,-3l5.438,0l0,5.435Z" style="fill:#fff;"/><path d="M490.962,394.913l-3,0l0,-9.646l3,0l0,9.646ZM490.962,372.406l-3,0l0,-9.646l3,0l0,9.646ZM490.962,349.899l-3,0l0,-9.646l3,0l0,9.646ZM490.962,327.392l-3,0l0,-9.646l3,0l0,9.646ZM490.962,304.885l-3,0l0,-9.646l3,0l0,9.646Z" style="fill:#fff;"/><path d="M96.754,161.505l131.489,0l-18.923,-10.975l-3.131,-1.816l-8.883,-5.152l-105.715,0l-1.619,-6.67l107.334,0l42.437,24.613l0,6.67l-142.179,0l-1.618,-6.67l0.808,0ZM47.867,136.893l0,6.669l-41.193,0l0,17.944l41.193,0l0,6.668l-47.867,0l0,-31.281l47.867,0ZM83.353,133.559l-4.949,0l-12.518,-12.51l-10.091,12.51l-2.678,0l0,-2.254l10.279,-12.744l-10.279,-10.273l0,-3.464l1.484,0l11.005,10.998l8.872,-10.998l2.308,0l0.506,2.085l-9.196,11.402l15.257,15.248Z" style="fill:#6c7a89;"/><path d="M53.117,133.595l0,-28.765l23.67,0l0.505,2.087l6.468,26.678l-30.643,0l0,0ZM70.746,166.658c-6.493,0 -11.757,-5.266 -11.757,-11.762c0,-6.497 5.264,-11.764 11.757,-11.764c6.494,0 11.759,5.267 11.759,11.764c0,6.496 -5.265,11.762 -11.759,11.762ZM47.867,154.604l-2.609,-2.609l2.609,-2.611l0,5.22ZM206.189,148.767l-11.771,11.775l-8.543,-8.547l8.381,-8.385l-4.95,0l-5.906,5.909l-5.907,-5.909l-4.949,0l8.382,8.385l-9.243,9.247l-9.244,-9.247l8.381,-8.385l-4.949,0l-5.907,5.909l-5.908,-5.909l-4.949,0l8.383,8.385l-9.244,9.247l-9.243,-9.247l8.38,-8.385l-4.949,0l-5.906,5.909l-5.907,-5.909l-4.949,0l8.382,8.385l-9.244,9.247l-9.243,-9.247l8.381,-8.385l-4.949,0l-5.907,5.909l-5.908,-5.909l-4.949,0l8.383,8.385l-9.245,9.247l-7.271,-7.275l-0.77,-3.175l7.179,-7.182l-4.949,0l-3.196,3.197l-0.775,-3.197l-1.619,-6.677l-9.057,-37.355l-33.048,0l0,44.854l-5.084,5.087l-5.907,-5.909l-4.949,0l8.382,8.385l-9.243,9.247l-9.244,-9.247l8.381,-8.385l-4.949,0l-5.907,5.909l-5.908,-5.909l-4.949,0l8.383,8.385l-9.574,9.577l4.949,0l7.099,-7.102l7.099,7.102l9.239,0l7.098,-7.102l5.084,5.086l0,14.732l30.57,0l-8.843,8.848l-8.381,-8.385l0,4.951l5.907,5.909l-5.907,5.909l0,4.952l8.381,-8.384l9.243,9.247l-9.243,9.247l-8.381,-8.385l0,4.952l5.907,5.91l-5.907,5.908l0,4.952l8.381,-8.385l9.243,9.248l-9.243,9.247l-8.381,-8.385l0,4.951l5.907,5.91l-5.907,5.909l0,4.951l8.381,-8.385l9.243,9.248l-9.243,9.248l-8.381,-8.386l0,4.951l5.907,5.91l-5.907,5.909l0,4.951l8.381,-8.384l9.243,9.247l-9.243,9.248l-8.381,-8.385l0,4.951l5.907,5.91l-5.907,5.908l0,4.952l8.381,-8.385l9.243,9.248l-9.243,9.247l-8.381,-8.385l0,4.951l5.907,5.91l-5.907,5.909l0,4.952l8.381,-8.386l9.243,9.248l-9.243,9.248l-8.381,-8.386l0,4.951l5.907,5.91l-5.907,5.909l0,4.952l8.381,-8.384l9.243,9.247l-9.243,9.248l-8.381,-8.386l0,4.952l5.907,5.909l-5.907,5.909l0,4.951l8.381,-8.384l9.243,9.247l-9.243,9.247l-8.381,-8.384l0,4.951l5.907,5.909l-5.907,5.909l0,4.952l8.381,-8.386l9.243,9.249l-9.243,9.247l-8.381,-8.386l0,4.952l5.907,5.911l-5.907,5.909l0,4.951l8.381,-8.385l9.243,9.247l-9.243,9.248l-8.381,-8.386l0,4.952l5.907,5.909l-5.907,5.909l0,4.951l8.381,-8.384l9.243,9.247l-9.243,9.249l-8.381,-8.386l0,4.951l5.907,5.91l-5.907,5.909l0,4.951l8.381,-8.384l9.243,9.246l-9.243,9.248l-8.381,-8.384l0,4.951l5.907,5.909l-5.907,5.909l0,4.951l8.381,-8.385l9.243,9.249l-9.243,9.247l-8.381,-8.386l0,4.951l5.907,5.911l-5.907,5.909l0,4.951l8.381,-8.384l9.243,9.246l-9.243,9.248l-8.381,-8.385l0,4.952l5.907,5.908l-5.907,5.909l0,4.952l8.381,-8.384l9.243,9.247l-9.243,9.248l-8.381,-8.386l0,4.952l5.907,5.911l-5.907,5.908l0,4.952l8.381,-8.385l9.243,9.246l-9.243,9.248l-8.381,-8.384l0,4.951l5.907,5.909l-5.907,5.909l0,4.951l8.381,-8.384l9.243,9.247l-9.243,9.249l-8.381,-8.387l0,4.952l5.907,5.91l-5.907,5.909l0,1.902l3.048,0l5.333,-5.335l5.333,5.335l4.24,0l0,-0.711l-7.098,-7.1l7.098,-7.102l0,-9.243l-7.098,-7.102l7.098,-7.101l0,-9.244l-7.098,-7.1l7.098,-7.103l0,-9.243l-7.098,-7.103l7.098,-7.1l0,-9.244l-7.098,-7.101l7.098,-7.102l0,-9.243l-7.098,-7.102l7.098,-7.1l0,-9.245l-7.098,-7.101l7.098,-7.102l0,-9.243l-7.098,-7.102l7.098,-7.101l0,-9.244l-7.098,-7.1l7.098,-7.103l0,-9.242l-7.098,-7.103l7.098,-7.101l0,-9.244l-7.098,-7.101l7.098,-7.102l0,-9.243l-7.098,-7.102l7.098,-7.101l0,-4.222l2.547,0l-1.639,-1.638l-0.908,0.909l0,-4.292l-7.098,-7.102l7.098,-7.101l0,-9.244l-7.098,-7.101l7.098,-7.102l0,-9.244l-7.098,-7.101l7.098,-7.101l0,-9.244l-7.098,-7.101l7.098,-7.102l0,-9.243l-7.098,-7.101l7.098,-7.102l0,-9.244l-7.098,-7.102l7.098,-7.101l0,-4.222l19.862,0l-1.465,-6.04l-1.618,-6.676l-0.259,-1.067l1.067,1.067l9.239,0l7.099,-7.102l7.099,7.102l9.239,0l7.098,-7.102l7.098,7.102l9.239,0l7.099,-7.102l7.1,7.102l9.238,0l7.098,-7.102l7.099,7.102l7.839,0l10.982,-10.986l-3.131,-1.819l0,0Z" style="fill:#4b4b4b;"/><path d="M58.989,154.85c0,-6.497 5.264,-11.765 11.758,-11.765c6.493,0 11.758,5.268 11.758,11.765c0,6.497 -5.265,11.765 -11.758,11.765c-6.494,0 -11.758,-5.268 -11.758,-11.765M59.114,313.3l1.637,1.639l-3.274,0l1.637,-1.639l0,0ZM54.539,592.012l6.674,0l0,-417.766l-6.674,0l0,417.766Z" style="fill:#6c7a89;"/><path d="M59.114,313.1l1.637,1.637l-3.274,0l1.637,-1.637l0,0Z" style="fill:#4b4b4b;"/><path d="M85.841,592l0,-417.791l-6.674,0l0,139.971l0.908,-0.909l1.638,1.639l-2.546,0l0,277.09l6.674,0Z" style="fill:#6c7a89;"/><path d="M238.857,269.479l-0.522,1.843l-114.818,0l-0.522,-1.843l57.931,-35.701l57.931,35.701ZM130.59,268.322l100.672,0l-50.336,-31.02l-50.336,31.02Z" style="fill:#6c7a89;"/><path d="M181.078,214.458l0.152,0.012l0.15,0.019l0.15,0.027l0.148,0.034l0.146,0.042l0.144,0.049l0.141,0.057l0.138,0.063l0.135,0.07l0.131,0.078l0.127,0.083l0.123,0.09l0.117,0.096l0.113,0.102l0.108,0.108l0.101,0.112l0.097,0.118l0.089,0.123l0.084,0.127l0.077,0.131l0.071,0.134l0.063,0.138l0.056,0.142l0.05,0.143l0.041,0.146l0.035,0.149l0.027,0.149l0.019,0.151l0.011,0.152l0.004,0.151l0,2.912l0.031,0.01l0.119,0.038l0.119,0.039l0.119,0.041l0.117,0.042l0.117,0.044l0.117,0.045l0.115,0.046l0.115,0.048l0.114,0.049l0.114,0.051l0.113,0.051l0.111,0.053l0.112,0.055l0.11,0.055l0.11,0.057l0.109,0.059l0.108,0.059l0.107,0.061l0.106,0.062l0.106,0.063l0.104,0.065l0.104,0.065l0.103,0.067l0.102,0.068l0.101,0.069l0.101,0.071l0.099,0.071l0.099,0.073l0.097,0.074l0.097,0.075l0.096,0.076l0.094,0.077l0.094,0.078l0.093,0.08l0.092,0.08l0.091,0.082l0.089,0.082l0.089,0.084l0.088,0.085l0.087,0.086l0.086,0.086l0.085,0.088l0.083,0.089l0.083,0.09l0.082,0.091l0.08,0.092l0.08,0.092l0.078,0.094l0.077,0.095l0.076,0.095l0.075,0.097l0.074,0.098l0.073,0.098l0.072,0.099l0.07,0.101l0.069,0.101l0.068,0.102l0.067,0.103l0.066,0.104l0.064,0.104l0.064,0.106l0.062,0.106l0.061,0.107l0.059,0.108l0.058,0.109l0.057,0.11l0.056,0.11l0.054,0.111l0.054,0.112l0.051,0.113l0.051,0.113l0.049,0.114l0.048,0.115l0.046,0.116l0.045,0.116l0.044,0.117l0.042,0.118l0.041,0.118l0.039,0.119l0.039,0.12l0.036,0.12l0.035,0.121l0.034,0.121l0.032,0.122l0.031,0.123l0.029,0.123l0.028,0.124l0.026,0.125l0.025,0.124l0.023,0.126l0.022,0.126l0.02,0.126l0.019,0.127l0.017,0.127l0.015,0.128l0.014,0.128l0.012,0.129l0.011,0.128l0.009,0.13l0.007,0.13l0.006,0.13l0.004,0.13l0.003,0.131l0,0.131l0,0.131l-0.003,0.13l-0.004,0.13l-0.006,0.131l-0.007,0.129l-0.009,0.13l-0.011,0.129l-0.012,0.128l-0.014,0.128l-0.015,0.128l-0.017,0.127l-0.019,0.127l-0.02,0.126l-0.022,0.126l-0.023,0.126l-0.025,0.125l-0.026,0.124l-0.028,0.124l-0.029,0.123l-0.031,0.123l-0.032,0.122l-0.034,0.121l-0.035,0.121l-0.036,0.12l-0.039,0.12l-0.039,0.119l-0.041,0.118l-0.042,0.118l-0.044,0.117l-0.045,0.116l-0.046,0.116l-0.048,0.115l-0.049,0.114l-0.051,0.113l-0.051,0.113l-0.054,0.112l-0.054,0.111l-0.056,0.111l-0.057,0.109l-0.058,0.109l-0.059,0.108l-0.061,0.107l-0.062,0.107l-0.064,0.105l-0.064,0.105l-0.066,0.103l-0.067,0.103l-0.068,0.102l-0.069,0.101l-0.07,0.101l-0.072,0.099l-0.073,0.099l-0.074,0.097l-0.075,0.097l-0.076,0.095l-0.077,0.095l-0.078,0.094l-0.08,0.093l-0.08,0.091l-0.082,0.091l-0.083,0.09l-0.083,0.089l-0.085,0.088l-0.086,0.086l-0.087,0.086l-0.088,0.085l-0.089,0.084l-0.089,0.082l-0.091,0.082l-0.092,0.08l-0.093,0.08l-0.094,0.078l-0.094,0.077l-0.096,0.076l-0.097,0.076l-0.097,0.073l-0.099,0.073l-0.099,0.072l-0.101,0.07l-0.101,0.069l-0.102,0.068l-0.103,0.067l-0.104,0.066l-0.104,0.064l-0.106,0.063l-0.106,0.062l-0.107,0.061l-0.108,0.06l-0.109,0.058l-0.11,0.057l-0.11,0.055l-0.112,0.055l-0.111,0.053l-0.113,0.052l-0.114,0.05l-0.114,0.049l-0.115,0.048l-0.115,0.046l-0.117,0.045l-0.117,0.044l-0.117,0.042l-0.119,0.041l-0.119,0.04l-0.119,0.038l-0.121,0.036l-0.121,0.035l-0.121,0.034l-0.122,0.032l-0.123,0.031l-0.123,0.029l-0.124,0.028l-0.124,0.026l-0.125,0.025l-0.126,0.023l-0.126,0.022l-0.126,0.02l-0.127,0.018l-0.127,0.017l-0.128,0.016l-0.128,0.014l-0.129,0.012l-0.129,0.01l-0.129,0.009l-0.13,0.008l-0.13,0.006l-0.13,0.004l-0.131,0.002l-0.131,0.001l-0.131,-0.001l-0.13,-0.002l-0.131,-0.004l-0.13,-0.006l-0.13,-0.008l-0.129,-0.009l-0.129,-0.01l-0.128,-0.012l-0.129,-0.014l-0.128,-0.016l-0.127,-0.017l-0.126,-0.018l-0.127,-0.02l-0.126,-0.022l-0.125,-0.023l-0.125,-0.025l-0.125,-0.026l-0.123,-0.028l-0.123,-0.029l-0.123,-0.031l-0.122,-0.032l-0.122,-0.034l-0.121,-0.035l-0.12,-0.036l-0.12,-0.038l-0.119,-0.04l-0.118,-0.041l-0.118,-0.042l-0.117,-0.044l-0.116,-0.045l-0.116,-0.046l-0.115,-0.048l-0.114,-0.049l-0.114,-0.05l-0.112,-0.052l-0.112,-0.053l-0.111,-0.055l-0.111,-0.055l-0.109,-0.057l-0.109,-0.058l-0.108,-0.06l-0.107,-0.061l-0.107,-0.062l-0.105,-0.063l-0.105,-0.064l-0.104,-0.066l-0.103,-0.067l-0.102,-0.068l-0.101,-0.069l-0.1,-0.07l-0.1,-0.072l-0.098,-0.073l-0.098,-0.073l-0.096,-0.075l-0.096,-0.077l-0.095,-0.077l-0.094,-0.078l-0.092,-0.079l-0.092,-0.081l-0.091,-0.082l-0.09,-0.082l-0.089,-0.084l-0.088,-0.084l-0.087,-0.086l-0.086,-0.087l-0.085,-0.088l-0.083,-0.089l-0.083,-0.09l-0.082,-0.09l-0.08,-0.092l-0.079,-0.093l-0.079,-0.094l-0.077,-0.094l-0.076,-0.096l-0.075,-0.097l-0.074,-0.097l-0.073,-0.099l-0.072,-0.099l-0.07,-0.1l-0.069,-0.101l-0.068,-0.102l-0.067,-0.104l-0.066,-0.103l-0.064,-0.105l-0.064,-0.105l-0.062,-0.107l-0.061,-0.107l-0.059,-0.108l-0.058,-0.108l-0.057,-0.11l-0.056,-0.111l-0.055,-0.111l-0.053,-0.112l-0.051,-0.112l-0.051,-0.114l-0.049,-0.114l-0.048,-0.115l-0.046,-0.115l-0.045,-0.117l-0.044,-0.117l-0.042,-0.117l-0.041,-0.119l-0.04,-0.119l-0.038,-0.119l-0.036,-0.121l-0.036,-0.121l-0.033,-0.121l-0.033,-0.122l-0.03,-0.123l-0.03,-0.123l-0.027,-0.124l-0.027,-0.124l-0.024,-0.125l-0.024,-0.126l-0.021,-0.126l-0.02,-0.126l-0.019,-0.127l-0.017,-0.127l-0.015,-0.128l-0.014,-0.128l-0.013,-0.129l-0.01,-0.128l-0.009,-0.13l-0.008,-0.129l-0.005,-0.131l-0.005,-0.13l-0.002,-0.13l-0.001,-0.112l0.003,-0.152l0.011,-0.152l0.018,-0.151l0.026,-0.15l0.033,-0.148l0.041,-0.146l0.048,-0.145l0.056,-0.141l0.062,-0.139l0.07,-0.135l0.076,-0.131l0.083,-0.128l0.089,-0.123l0.096,-0.118l0.101,-0.114l0.107,-0.108l0.112,-0.102l0.117,-0.097l0.122,-0.091l0.126,-0.084l0.131,-0.078l0.134,-0.071l0.138,-0.065l0.14,-0.057l0.144,-0.05l0.146,-0.043l0.148,-0.035l0.149,-0.028l0.151,-0.02l0.151,-0.013l0.152,-0.004l0.152,0.003l0.152,0.01l0.151,0.018l0.149,0.026l0.149,0.034l0.146,0.041l0.144,0.048l0.142,0.055l0.138,0.063l0.135,0.069l0.132,0.077l0.127,0.082l0.123,0.09l0.119,0.095l0.113,0.101l0.108,0.107l0.103,0.112l0.097,0.117l0.091,0.122l0.084,0.127l0.078,0.13l0.071,0.134l0.065,0.138l0.057,0.141l0.05,0.143l0.043,0.146l0.035,0.148l0.028,0.149l0.02,0.151l0.012,0.152l0.005,0.152l0.001,0.073l0.001,0.055l0.001,0.055l0.003,0.054l0.003,0.053l0.004,0.054l0.004,0.054l0.005,0.053l0.006,0.052l0.006,0.053l0.007,0.052l0.008,0.052l0.008,0.052l0.009,0.052l0.009,0.051l0.011,0.051l0.01,0.051l0.012,0.05l0.012,0.051l0.012,0.05l0.013,0.05l0.014,0.049l0.014,0.05l0.015,0.049l0.016,0.048l0.016,0.049l0.017,0.048l0.017,0.048l0.018,0.048l0.018,0.047l0.019,0.048l0.02,0.047l0.02,0.046l0.02,0.046l0.021,0.047l0.022,0.046l0.022,0.045l0.023,0.045l0.024,0.045l0.023,0.045l0.025,0.044l0.025,0.044l0.025,0.044l0.026,0.043l0.027,0.043l0.027,0.043l0.027,0.042l0.028,0.042l0.029,0.042l0.029,0.041l0.03,0.041l0.03,0.041l0.03,0.04l0.031,0.04l0.032,0.04l0.032,0.039l0.032,0.038l0.033,0.039l0.033,0.038l0.034,0.037l0.034,0.038l0.035,0.036l0.035,0.037l0.036,0.036l0.035,0.035l0.037,0.035l0.037,0.035l0.037,0.034l0.037,0.034l0.038,0.033l0.039,0.033l0.039,0.032l0.039,0.032l0.039,0.032l0.04,0.031l0.041,0.03l0.041,0.03l0.04,0.03l0.042,0.029l0.042,0.029l0.042,0.027l0.042,0.028l0.043,0.027l0.043,0.027l0.043,0.026l0.044,0.025l0.044,0.025l0.045,0.024l0.044,0.024l0.045,0.024l0.045,0.023l0.046,0.022l0.046,0.022l0.046,0.021l0.046,0.02l0.047,0.021l0.047,0.019l0.047,0.019l0.048,0.018l0.048,0.018l0.048,0.018l0.048,0.016l0.049,0.016l0.049,0.016l0.049,0.015l0.049,0.014l0.05,0.014l0.05,0.013l0.05,0.013l0.05,0.012l0.051,0.011l0.051,0.011l0.051,0.01l0.052,0.009l0.051,0.009l0.052,0.008l0.052,0.008l0.053,0.007l0.052,0.006l0.053,0.006l0.053,0.005l0.054,0.005l0.054,0.003l0.054,0.003l0.054,0.003l0.054,0.002l0.055,0.001l0.055,0l0.055,0l0.055,-0.001l0.055,-0.002l0.054,-0.003l0.054,-0.003l0.053,-0.003l0.054,-0.005l0.053,-0.005l0.053,-0.006l0.052,-0.006l0.053,-0.007l0.052,-0.008l0.052,-0.008l0.052,-0.009l0.051,-0.009l0.051,-0.01l0.051,-0.011l0.051,-0.011l0.05,-0.012l0.05,-0.013l0.05,-0.013l0.05,-0.014l0.049,-0.014l0.049,-0.015l0.049,-0.016l0.049,-0.016l0.048,-0.016l0.048,-0.018l0.048,-0.018l0.048,-0.018l0.047,-0.019l0.047,-0.019l0.047,-0.021l0.046,-0.02l0.046,-0.021l0.046,-0.022l0.046,-0.022l0.045,-0.023l0.045,-0.024l0.045,-0.023l0.044,-0.025l0.044,-0.025l0.044,-0.025l0.043,-0.026l0.043,-0.027l0.043,-0.027l0.042,-0.028l0.042,-0.027l0.042,-0.029l0.042,-0.029l0.04,-0.03l0.041,-0.03l0.041,-0.03l0.039,-0.031l0.04,-0.031l0.039,-0.032l0.039,-0.033l0.038,-0.033l0.038,-0.033l0.038,-0.034l0.037,-0.034l0.037,-0.035l0.036,-0.035l0.036,-0.035l0.036,-0.036l0.035,-0.036l0.035,-0.037l0.034,-0.037l0.033,-0.038l0.034,-0.038l0.033,-0.038l0.032,-0.039l0.032,-0.039l0.031,-0.04l0.031,-0.04l0.031,-0.04l0.03,-0.04l0.029,-0.042l0.029,-0.041l0.029,-0.042l0.028,-0.042l0.028,-0.042l0.027,-0.043l0.026,-0.043l0.026,-0.043l0.026,-0.044l0.025,-0.044l0.024,-0.044l0.024,-0.045l0.023,-0.045l0.023,-0.045l0.022,-0.045l0.022,-0.046l0.021,-0.046l0.021,-0.047l0.02,-0.046l0.02,-0.047l0.019,-0.047l0.018,-0.048l0.018,-0.048l0.017,-0.048l0.017,-0.048l0.016,-0.048l0.015,-0.049l0.015,-0.049l0.015,-0.05l0.013,-0.049l0.013,-0.05l0.013,-0.05l0.012,-0.05l0.011,-0.051l0.011,-0.051l0.01,-0.051l0.01,-0.051l0.009,-0.052l0.008,-0.052l0.007,-0.052l0.007,-0.052l0.007,-0.052l0.005,-0.053l0.006,-0.054l0.004,-0.053l0.004,-0.053l0.003,-0.054l0.002,-0.054l0.002,-0.055l0.001,-0.055l0,-0.054l0,-0.055l-0.001,-0.055l-0.002,-0.055l-0.002,-0.054l-0.003,-0.054l-0.004,-0.053l-0.004,-0.053l-0.006,-0.054l-0.005,-0.052l-0.007,-0.053l-0.007,-0.052l-0.007,-0.052l-0.008,-0.052l-0.009,-0.052l-0.01,-0.051l-0.01,-0.051l-0.011,-0.051l-0.011,-0.051l-0.012,-0.05l-0.013,-0.05l-0.013,-0.05l-0.013,-0.049l-0.015,-0.049l-0.015,-0.05l-0.015,-0.048l-0.016,-0.049l-0.017,-0.048l-0.017,-0.048l-0.018,-0.048l-0.018,-0.047l-0.019,-0.048l-0.02,-0.047l-0.02,-0.046l-0.021,-0.047l-0.021,-0.046l-0.022,-0.045l-0.022,-0.046l-0.023,-0.045l-0.023,-0.045l-0.024,-0.045l-0.024,-0.044l-0.025,-0.044l-0.026,-0.044l-0.026,-0.043l-0.026,-0.043l-0.027,-0.043l-0.028,-0.042l-0.028,-0.042l-0.029,-0.042l-0.029,-0.041l-0.029,-0.041l-0.03,-0.041l-0.031,-0.04l-0.031,-0.04l-0.031,-0.04l-0.032,-0.039l-0.032,-0.039l-0.033,-0.038l-0.034,-0.038l-0.033,-0.037l-0.034,-0.038l-0.035,-0.036l-0.035,-0.037l-0.036,-0.036l-0.036,-0.035l-0.036,-0.035l-0.037,-0.035l-0.037,-0.034l-0.038,-0.034l-0.038,-0.033l-0.038,-0.033l-0.039,-0.032l-0.039,-0.032l-0.04,-0.032l-0.039,-0.031l-0.041,-0.03l-0.04,-0.03l-0.041,-0.03l-0.042,-0.029l-0.042,-0.028l-0.042,-0.028l-0.042,-0.028l-0.043,-0.027l-0.043,-0.027l-0.043,-0.026l-0.044,-0.025l-0.044,-0.025l-0.044,-0.024l-0.045,-0.024l-0.045,-0.024l-0.045,-0.022l-0.046,-0.023l-0.046,-0.022l-0.046,-0.021l-0.046,-0.02l-0.047,-0.02l-0.047,-0.02l-0.047,-0.019l-0.048,-0.018l-0.048,-0.018l-0.048,-0.017l-0.048,-0.017l-0.049,-0.016l-0.049,-0.016l-0.049,-0.015l-0.049,-0.014l-0.05,-0.014l-0.05,-0.013l-0.05,-0.012l-0.05,-0.012l-0.051,-0.012l-0.051,-0.011l-0.051,-0.01l-0.051,-0.009l-0.052,-0.009l-0.052,-0.008l-0.052,-0.008l-0.053,-0.007l-0.052,-0.006l-0.053,-0.006l-0.053,-0.005l-0.054,-0.004l-0.053,-0.004l-0.054,-0.003l-0.054,-0.003l-0.055,-0.001l-0.055,-0.001l-3.055,-0.02l0,-8.444l0.004,-0.151l0.012,-0.152l0.019,-0.151l0.027,-0.149l0.034,-0.149l0.042,-0.146l0.049,-0.143l0.056,-0.142l0.064,-0.138l0.07,-0.134l0.077,-0.131l0.084,-0.127l0.09,-0.123l0.096,-0.118l0.102,-0.112l0.107,-0.108l0.113,-0.102l0.118,-0.096l0.122,-0.09l0.127,-0.083l0.131,-0.078l0.135,-0.07l0.138,-0.063l0.141,-0.057l0.144,-0.049l0.146,-0.042l0.148,-0.034l0.15,-0.027l0.151,-0.019l0.151,-0.012l0.152,-0.004l0.152,0.004Z" style="fill:#6c7a89;"/><path d="M175.977,219.482l9.898,0l0,-4.056l-9.899,0l0,4.056ZM172.076,215.426l17.7,0l0,-4.057l-17.7,0l0,4.057ZM175.977,175.422l9.898,0l0,-4.057l-9.899,0l0,4.057ZM172.076,171.365l17.7,0l0,-4.056l-17.7,0l0,4.056Z" style="fill:#4b4b4b;"/><rect x="178.5" y="175.422" width="4.901" height="35.948" style="fill:#6c7a89;"/><path d="M246.189,365.612c0,1.19 -0.966,2.157 -2.158,2.157l-126.21,0c-1.192,0 -2.159,-0.967 -2.159,-2.157l0,-103.387c0,-1.192 0.967,-2.158 2.159,-2.158l126.21,0c1.192,0 2.158,0.966 2.158,2.158l0,103.387Z" style="fill:#fff;"/><path d="M115.662,340.577l0,25.035c0,1.191 0.966,2.157 2.159,2.157l126.21,0c1.192,0 2.159,-0.966 2.159,-2.157l0,-25.035l-130.528,0l0,0Z" style="fill:#cfd1d9;"/><path d="M246.189,269.131l0,-6.907c0,-1.192 -0.966,-2.157 -2.158,-2.157l-126.21,0c-1.192,0 -2.159,0.965 -2.159,2.157l0,6.907l130.527,0Z" style="fill:#6c7a89;"/><path d="M122.726,264.599c0,1.229 -0.998,2.226 -2.228,2.226c-1.23,0 -2.228,-0.997 -2.228,-2.226c0,-1.23 0.998,-2.227 2.228,-2.227c1.23,0 2.228,0.997 2.228,2.227" style="fill:#c1272d;"/><path d="M130.319,264.599c0,1.229 -0.998,2.226 -2.228,2.226c-1.23,0 -2.228,-0.997 -2.228,-2.226c0,-1.23 0.998,-2.227 2.228,-2.227c1.231,0 2.228,0.997 2.228,2.227" style="fill:#fbb03b;"/><path d="M137.913,264.599c0,1.229 -0.998,2.226 -2.228,2.226c-1.23,0 -2.228,-0.997 -2.228,-2.226c0,-1.23 0.998,-2.227 2.228,-2.227c1.23,0 2.228,0.997 2.228,2.227" style="fill:#8cc63f;"/><rect x="115.662" y="269.13" width="130.527" height="13.018" style="fill:#cfd1d9;"/><rect x="126.236" y="272.44" width="32.701" height="6.888" style="fill:#446b34;"/><rect x="164.575" y="272.44" width="32.701" height="6.888" style="fill:#ffbd4f;"/><rect x="202.914" y="272.44" width="32.701" height="6.888" style="fill:#9c9e4c;"/><path d="M195.419,301.334c0,7.999 -6.489,14.483 -14.493,14.483c-8.004,0 -14.493,-6.484 -14.493,-14.483c0,-7.999 6.489,-14.483 14.493,-14.483c8.004,0 14.493,6.484 14.493,14.483" style="fill:#76abd5;"/><path d="M235.616,320.672c0,0.667 -0.541,1.207 -1.209,1.207l-106.962,0c-0.668,0 -1.209,-0.54 -1.209,-1.207c0,-0.667 0.541,-1.207 1.209,-1.207l106.962,0c0.668,0 1.209,0.54 1.209,1.207M235.616,326.656c0,0.667 -0.541,1.207 -1.209,1.207l-106.962,0c-0.668,0 -1.209,-0.54 -1.209,-1.207c0,-0.667 0.541,-1.207 1.209,-1.207l106.962,0c0.668,0 1.209,0.54 1.209,1.207M235.616,332.64c0,0.668 -0.541,1.208 -1.209,1.208l-106.962,0c-0.668,0 -1.209,-0.54 -1.209,-1.208c0,-0.666 0.541,-1.207 1.209,-1.207l106.962,0c0.668,0 1.209,0.541 1.209,1.207" style="fill:#aeb8bf;"/><rect x="126.236" y="345.612" width="109.379" height="17.26" style="fill:#fff;"/><path d="M525.88,79.317l-131.489,0l18.923,-10.975l3.132,-1.816l8.883,-5.152l105.715,0l1.618,-6.669l-107.333,0l-42.438,24.612l0,6.67l142.179,0l1.619,-6.67l-0.809,0ZM574.767,54.705l0,6.669l41.194,0l0,17.943l-41.194,0l0,6.669l47.867,0l0,-31.281l-47.867,0l0,0ZM539.281,51.371l4.949,0l12.518,-12.51l10.091,12.51l2.679,0l0,-2.254l-10.28,-12.744l10.28,-10.273l0,-3.464l-1.484,0l-11.006,10.998l-8.872,-10.998l-2.308,0l-0.506,2.085l9.197,11.402l-15.258,15.248l0,0Z" style="fill:#6c7a89;"/><path d="M577.376,69.751l-2.608,2.607l0,-5.215l2.608,2.608ZM540.13,72.648c0,-6.49 5.264,-11.75 11.757,-11.75c6.495,0 11.759,5.26 11.759,11.75c0,6.49 -5.264,11.75 -11.759,11.75c-6.493,0 -11.757,-5.26 -11.757,-11.75ZM545.342,24.721l0.506,-2.085l23.67,0l0,28.735l-30.645,0l6.469,-26.65ZM574.768,77.304l5.083,-5.081l7.098,7.094l9.239,0l7.099,-7.094l7.099,7.094l4.949,0l-9.574,-9.566l8.383,-8.377l-4.949,0l-5.908,5.904l-5.908,-5.904l-4.949,0l8.382,8.377l-9.243,9.237l-9.244,-9.237l8.382,-8.377l-4.949,0l-5.907,5.904l-5.083,-5.082l0,-44.806l-33.049,0l-9.057,37.315l-1.618,6.669l-0.776,3.195l-3.196,-3.195l-4.949,0l7.18,7.175l-0.77,3.172l-7.272,7.267l-9.244,-9.237l8.383,-8.377l-4.95,0l-5.907,5.904l-5.908,-5.904l-4.949,0l8.381,8.377l-9.243,9.237l-9.244,-9.237l8.383,-8.377l-4.95,0l-5.907,5.904l-5.907,-5.904l-4.949,0l8.381,8.377l-9.242,9.237l-9.245,-9.237l8.383,-8.377l-4.949,0l-5.908,5.904l-5.907,-5.904l-4.949,0l8.381,8.377l-9.243,9.237l-9.244,-9.237l8.382,-8.377l-4.949,0l-5.907,5.904l-5.907,-5.904l-4.949,0l8.381,8.377l-8.543,8.538l-11.771,-11.763l-3.131,1.817l10.983,10.974l7.839,0l7.098,-7.094l7.098,7.094l9.239,0l7.099,-7.094l7.099,7.094l9.239,0l7.098,-7.094l7.099,7.094l9.238,0l7.1,-7.094l7.098,7.094l9.239,0l1.067,-1.066l-0.259,1.066l-1.618,6.669l-1.464,6.034l19.861,0l0,4.218l7.098,7.093l-7.098,7.094l0,9.234l7.098,7.094l-7.098,7.094l0,9.233l7.098,7.094l-7.098,7.094l0,9.234l7.098,7.093l-7.098,7.094l0,9.234l7.098,7.094l-7.098,7.093l0,9.234l7.098,7.094l-7.098,7.094l0,4.288l-0.908,-0.908l-1.638,1.636l2.546,0l0,4.217l7.098,7.095l-7.098,7.093l0,9.234l7.098,7.094l-7.098,7.093l0,9.235l7.098,7.093l-7.098,7.094l0,9.234l7.098,7.093l-7.098,7.094l0,9.234l7.098,7.093l-7.098,7.095l0,9.233l7.098,7.094l-7.098,7.094l0,9.233l7.098,7.094l-7.098,7.094l0,9.233l7.098,7.095l-7.098,7.093l0,9.234l7.098,7.094l-7.098,7.093l0,9.235l7.098,7.093l-7.098,7.094l0,9.234l7.098,7.093l-7.098,7.095l0,9.233l7.098,7.093l-7.098,7.095l0,9.233l7.098,7.094l-7.098,7.094l0,9.234l7.098,7.094l-7.098,7.093l0,9.234l7.098,7.094l-7.098,7.093l0,9.234l3.872,3.87l4.949,0l-8.491,-8.486l9.244,-9.238l8.38,8.375l0,-4.946l-5.906,-5.902l5.906,-5.904l0,-4.945l-8.38,8.376l-9.244,-9.239l9.244,-9.236l8.38,8.375l0,-4.946l-5.906,-5.902l5.906,-5.904l0,-4.946l-8.38,8.377l-9.244,-9.238l9.244,-9.238l8.38,8.376l0,-4.946l-5.906,-5.903l5.906,-5.903l0,-4.947l-8.38,8.378l-9.244,-9.239l9.244,-9.237l8.38,8.376l0,-4.947l-5.906,-5.903l5.906,-5.902l0,-4.947l-8.38,8.376l-9.244,-9.236l9.244,-9.239l8.38,8.377l0,-4.947l-5.906,-5.903l5.906,-5.903l0,-4.946l-8.38,8.376l-9.244,-9.237l9.244,-9.238l8.38,8.375l0,-4.945l-5.906,-5.903l5.906,-5.903l0,-4.946l-8.38,8.376l-9.244,-9.237l9.244,-9.238l8.38,8.375l0,-4.946l-5.906,-5.902l5.906,-5.903l0,-4.946l-8.38,8.376l-9.244,-9.239l9.244,-9.236l8.38,8.375l0,-4.946l-5.906,-5.902l5.906,-5.904l0,-4.945l-8.38,8.376l-9.244,-9.238l9.244,-9.237l8.38,8.375l0,-4.947l-5.906,-5.902l5.906,-5.903l0,-4.947l-8.38,8.377l-9.244,-9.238l9.244,-9.237l8.38,8.376l0,-4.947l-5.906,-5.902l5.906,-5.904l0,-4.946l-8.38,8.377l-9.244,-9.238l9.244,-9.238l8.38,8.376l0,-4.946l-5.906,-5.903l5.906,-5.903l0,-4.946l-8.38,8.376l-9.244,-9.237l9.244,-9.238l8.38,8.376l0,-4.946l-5.906,-5.903l5.906,-5.903l0,-4.946l-8.38,8.376l-9.244,-9.237l9.244,-9.238l8.38,8.375l0,-4.945l-5.906,-5.903l5.906,-5.903l0,-4.946l-8.38,8.376l-9.244,-9.238l9.244,-9.237l8.38,8.375l0,-4.946l-5.906,-5.902l5.906,-5.903l0,-4.947l-8.38,8.377l-9.244,-9.238l9.244,-9.237l8.38,8.375l0,-4.946l-5.906,-5.902l5.906,-5.904l0,-4.946l-8.38,8.376l-9.244,-9.238l9.244,-9.237l8.38,8.376l0,-4.947l-5.906,-5.902l5.906,-5.904l0,-4.946l-8.38,8.377l-9.244,-9.238l9.244,-9.238l8.38,8.376l0,-4.946l-5.906,-5.902l5.906,-5.904l0,-4.946l-8.38,8.377l-9.244,-9.238l9.244,-9.238l8.38,8.376l0,-4.946l-5.906,-5.903l5.906,-5.903l0,-4.946l-8.38,8.376l-9.244,-9.237l9.244,-9.238l8.38,8.376l0,-4.946l-5.906,-5.903l5.906,-5.903l0,-4.946l-8.38,8.376l-9.244,-9.237l9.244,-9.238l8.38,8.375l0,-4.945l-5.906,-5.903l5.906,-5.903l0,-4.947l-8.38,8.376l-9.244,-9.237l9.244,-9.237l8.38,8.375l0,-4.946l-5.906,-5.903l5.906,-5.903l0,-4.946l-8.38,8.376l-8.844,-8.838l30.571,0l0,-14.716l0,0Z" style="fill:#4b4b4b;"/><path d="M563.645,72.648c0,-6.489 -5.264,-11.751 -11.758,-11.751c-6.492,0 -11.757,5.262 -11.757,11.751c0,6.489 5.264,11.751 11.757,11.751c6.494,0 11.758,-5.262 11.758,-11.751M561.883,232.548l1.637,-1.637l1.638,1.637l-3.275,0l0,0ZM561.421,92.02l0,499.934l6.674,0l0,-499.934l-6.674,0Z" style="fill:#6c7a89;"/><path d="M563.52,230.912l-1.637,1.637l3.275,0l-1.638,-1.637l0,0ZM553.791,591.955l4.949,0l2.681,-2.679l0,-4.947l-7.63,7.626Z" style="fill:#4b4b4b;"/><path d="M543.467,578.852l0,-346.304l-2.546,0l1.638,-1.637l0.908,0.909l0,-139.8l-6.673,0l0,499.934l6.673,0l0,-13.102l0,0Z" style="fill:#6c7a89;"/><path d="M499.639,187.806l-0.522,1.844l-114.818,0l-0.522,-1.844l57.931,-35.701l57.931,35.701ZM391.372,186.65l100.672,0l-50.336,-31.021l-50.336,31.021Z" style="fill:#6c7a89;"/><path d="M441.861,132.785l0.151,0.012l0.151,0.019l0.15,0.027l0.148,0.034l0.146,0.042l0.144,0.049l0.141,0.057l0.138,0.063l0.135,0.071l0.131,0.077l0.126,0.083l0.123,0.09l0.118,0.096l0.113,0.102l0.107,0.108l0.102,0.113l0.096,0.117l0.09,0.123l0.084,0.127l0.077,0.131l0.07,0.134l0.064,0.139l0.056,0.141l0.049,0.144l0.042,0.146l0.034,0.148l0.027,0.149l0.019,0.151l0.012,0.152l0.004,0.152l0,2.912l0.03,0.009l0.119,0.038l0.12,0.039l0.118,0.041l0.118,0.042l0.117,0.044l0.116,0.045l0.116,0.046l0.115,0.048l0.114,0.049l0.113,0.051l0.113,0.051l0.112,0.053l0.111,0.055l0.111,0.056l0.109,0.057l0.109,0.058l0.108,0.059l0.107,0.061l0.106,0.062l0.106,0.063l0.105,0.065l0.104,0.065l0.103,0.067l0.102,0.068l0.101,0.069l0.1,0.071l0.099,0.071l0.099,0.073l0.097,0.074l0.097,0.075l0.096,0.076l0.095,0.077l0.093,0.078l0.093,0.08l0.092,0.08l0.091,0.082l0.09,0.083l0.089,0.083l0.087,0.085l0.088,0.086l0.085,0.087l0.085,0.087l0.084,0.089l0.082,0.09l0.082,0.091l0.081,0.092l0.079,0.093l0.078,0.093l0.077,0.095l0.077,0.096l0.075,0.096l0.074,0.098l0.072,0.098l0.072,0.099l0.07,0.101l0.07,0.101l0.068,0.102l0.067,0.103l0.065,0.103l0.065,0.106l0.063,0.105l0.062,0.106l0.061,0.108l0.06,0.108l0.058,0.108l0.057,0.11l0.055,0.11l0.055,0.111l0.053,0.112l0.052,0.113l0.05,0.114l0.049,0.113l0.048,0.115l0.047,0.116l0.045,0.116l0.043,0.117l0.043,0.118l0.04,0.118l0.04,0.12l0.038,0.119l0.037,0.12l0.035,0.121l0.033,0.121l0.033,0.123l0.03,0.122l0.03,0.123l0.028,0.125l0.026,0.124l0.024,0.125l0.024,0.125l0.021,0.126l0.021,0.126l0.018,0.127l0.017,0.127l0.016,0.128l0.013,0.128l0.013,0.129l0.01,0.129l0.009,0.129l0.008,0.13l0.005,0.13l0.005,0.13l0.002,0.131l0.001,0.131l-0.001,0.131l-0.002,0.13l-0.005,0.131l-0.005,0.13l-0.008,0.13l-0.009,0.129l-0.01,0.129l-0.013,0.128l-0.013,0.128l-0.016,0.128l-0.017,0.127l-0.018,0.127l-0.021,0.127l-0.021,0.126l-0.024,0.125l-0.024,0.124l-0.026,0.125l-0.028,0.124l-0.03,0.123l-0.03,0.123l-0.033,0.122l-0.033,0.122l-0.035,0.12l-0.037,0.12l-0.038,0.12l-0.04,0.119l-0.04,0.119l-0.043,0.117l-0.043,0.117l-0.045,0.116l-0.047,0.116l-0.048,0.115l-0.049,0.114l-0.05,0.114l-0.052,0.112l-0.053,0.112l-0.055,0.111l-0.055,0.111l-0.057,0.11l-0.058,0.108l-0.06,0.108l-0.061,0.107l-0.062,0.107l-0.063,0.105l-0.065,0.105l-0.065,0.104l-0.067,0.102l-0.068,0.103l-0.07,0.101l-0.07,0.1l-0.072,0.099l-0.072,0.099l-0.074,0.097l-0.075,0.097l-0.077,0.096l-0.077,0.094l-0.078,0.094l-0.079,0.093l-0.081,0.092l-0.082,0.09l-0.082,0.09l-0.084,0.089l-0.085,0.088l-0.085,0.087l-0.088,0.086l-0.087,0.084l-0.089,0.084l-0.09,0.083l-0.091,0.081l-0.092,0.081l-0.093,0.079l-0.093,0.078l-0.095,0.077l-0.096,0.077l-0.097,0.075l-0.097,0.073l-0.098,0.073l-0.1,0.072l-0.1,0.07l-0.101,0.069l-0.102,0.068l-0.103,0.067l-0.104,0.066l-0.105,0.064l-0.106,0.064l-0.106,0.061l-0.107,0.061l-0.108,0.06l-0.109,0.058l-0.109,0.057l-0.111,0.056l-0.111,0.054l-0.112,0.053l-0.113,0.052l-0.113,0.05l-0.114,0.049l-0.115,0.048l-0.116,0.046l-0.116,0.045l-0.117,0.044l-0.118,0.042l-0.118,0.041l-0.12,0.04l-0.119,0.038l-0.12,0.036l-0.121,0.035l-0.122,0.034l-0.122,0.032l-0.123,0.031l-0.123,0.029l-0.124,0.028l-0.124,0.026l-0.125,0.025l-0.125,0.023l-0.126,0.022l-0.127,0.02l-0.126,0.019l-0.128,0.017l-0.127,0.015l-0.129,0.014l-0.128,0.012l-0.129,0.011l-0.13,0.009l-0.129,0.007l-0.13,0.006l-0.131,0.004l-0.131,0.002l-0.13,0.001l-0.131,-0.001l-0.131,-0.002l-0.13,-0.004l-0.13,-0.006l-0.13,-0.007l-0.129,-0.009l-0.129,-0.011l-0.129,-0.012l-0.128,-0.014l-0.128,-0.015l-0.127,-0.017l-0.127,-0.019l-0.126,-0.02l-0.126,-0.022l-0.126,-0.023l-0.125,-0.025l-0.124,-0.026l-0.124,-0.028l-0.123,-0.029l-0.123,-0.031l-0.122,-0.032l-0.121,-0.033l-0.122,-0.036l-0.12,-0.036l-0.119,-0.038l-0.12,-0.04l-0.118,-0.041l-0.117,-0.042l-0.118,-0.044l-0.116,-0.045l-0.115,-0.046l-0.115,-0.048l-0.115,-0.049l-0.113,-0.05l-0.113,-0.052l-0.112,-0.053l-0.111,-0.054l-0.11,-0.056l-0.11,-0.057l-0.109,-0.058l-0.108,-0.06l-0.107,-0.061l-0.106,-0.061l-0.106,-0.064l-0.105,-0.064l-0.103,-0.066l-0.103,-0.066l-0.103,-0.069l-0.1,-0.069l-0.101,-0.07l-0.099,-0.072l-0.099,-0.073l-0.097,-0.073l-0.097,-0.075l-0.096,-0.076l-0.095,-0.078l-0.093,-0.078l-0.093,-0.079l-0.092,-0.081l-0.091,-0.081l-0.09,-0.083l-0.089,-0.084l-0.088,-0.084l-0.086,-0.086l-0.086,-0.087l-0.085,-0.088l-0.084,-0.089l-0.082,-0.089l-0.082,-0.091l-0.081,-0.092l-0.079,-0.093l-0.078,-0.094l-0.078,-0.094l-0.076,-0.096l-0.075,-0.097l-0.074,-0.097l-0.072,-0.098l-0.072,-0.1l-0.071,-0.1l-0.069,-0.101l-0.068,-0.102l-0.067,-0.103l-0.065,-0.104l-0.065,-0.105l-0.063,-0.105l-0.062,-0.107l-0.061,-0.107l-0.059,-0.107l-0.059,-0.109l-0.057,-0.11l-0.056,-0.111l-0.054,-0.111l-0.053,-0.112l-0.052,-0.112l-0.05,-0.114l-0.05,-0.114l-0.047,-0.115l-0.047,-0.115l-0.045,-0.116l-0.044,-0.118l-0.042,-0.117l-0.041,-0.119l-0.039,-0.119l-0.038,-0.119l-0.037,-0.12l-0.035,-0.121l-0.034,-0.122l-0.032,-0.122l-0.031,-0.123l-0.029,-0.123l-0.028,-0.124l-0.026,-0.124l-0.025,-0.125l-0.023,-0.126l-0.022,-0.126l-0.02,-0.125l-0.019,-0.127l-0.017,-0.128l-0.015,-0.128l-0.014,-0.128l-0.012,-0.128l-0.011,-0.129l-0.009,-0.129l-0.007,-0.13l-0.006,-0.13l-0.004,-0.131l-0.003,-0.13l0,-0.112l0.003,-0.152l0.01,-0.152l0.018,-0.151l0.026,-0.15l0.034,-0.148l0.041,-0.146l0.048,-0.144l0.055,-0.142l0.063,-0.138l0.069,-0.136l0.077,-0.131l0.083,-0.127l0.089,-0.124l0.095,-0.118l0.101,-0.113l0.107,-0.108l0.112,-0.103l0.117,-0.097l0.122,-0.091l0.127,-0.084l0.13,-0.078l0.134,-0.071l0.138,-0.065l0.141,-0.057l0.143,-0.05l0.146,-0.043l0.148,-0.035l0.15,-0.028l0.15,-0.02l0.152,-0.012l0.152,-0.005l0.152,0.003l0.151,0.01l0.151,0.019l0.15,0.025l0.148,0.034l0.147,0.041l0.144,0.048l0.141,0.055l0.139,0.063l0.135,0.07l0.131,0.076l0.128,0.083l0.123,0.089l0.118,0.095l0.114,0.101l0.108,0.107l0.103,0.112l0.096,0.117l0.091,0.122l0.084,0.127l0.078,0.13l0.072,0.135l0.064,0.137l0.057,0.141l0.05,0.144l0.043,0.145l0.035,0.148l0.028,0.15l0.02,0.15l0.013,0.152l0.005,0.152l0,0.074l0.001,0.054l0.002,0.055l0.002,0.054l0.003,0.054l0.004,0.053l0.004,0.054l0.006,0.053l0.005,0.053l0.007,0.052l0.007,0.052l0.007,0.052l0.009,0.053l0.008,0.051l0.01,0.051l0.01,0.051l0.011,0.051l0.011,0.051l0.012,0.05l0.013,0.05l0.013,0.05l0.013,0.049l0.015,0.049l0.015,0.05l0.015,0.049l0.016,0.048l0.017,0.049l0.017,0.047l0.018,0.048l0.018,0.047l0.019,0.048l0.02,0.047l0.02,0.046l0.021,0.047l0.021,0.046l0.022,0.046l0.022,0.045l0.023,0.046l0.023,0.044l0.024,0.045l0.024,0.044l0.025,0.044l0.026,0.044l0.026,0.043l0.026,0.043l0.028,0.043l0.027,0.042l0.028,0.042l0.029,0.042l0.029,0.041l0.029,0.041l0.03,0.041l0.031,0.04l0.031,0.04l0.031,0.04l0.032,0.039l0.033,0.039l0.032,0.038l0.034,0.038l0.033,0.037l0.035,0.038l0.034,0.037l0.036,0.036l0.035,0.036l0.036,0.035l0.036,0.035l0.037,0.035l0.037,0.034l0.038,0.034l0.038,0.033l0.038,0.033l0.039,0.033l0.039,0.032l0.04,0.031l0.04,0.031l0.04,0.031l0.041,0.029l0.041,0.03l0.041,0.029l0.042,0.029l0.042,0.028l0.042,0.027l0.044,0.027l0.042,0.027l0.044,0.026l0.044,0.025l0.044,0.025l0.044,0.025l0.045,0.024l0.044,0.023l0.046,0.023l0.046,0.022l0.045,0.022l0.047,0.021l0.046,0.021l0.047,0.02l0.047,0.019l0.047,0.019l0.048,0.019l0.047,0.017l0.048,0.018l0.049,0.016l0.048,0.016l0.049,0.016l0.05,0.015l0.049,0.014l0.049,0.014l0.05,0.013l0.05,0.013l0.051,0.012l0.051,0.011l0.051,0.011l0.051,0.01l0.051,0.009l0.052,0.009l0.052,0.009l0.052,0.007l0.052,0.007l0.053,0.007l0.053,0.005l0.053,0.005l0.053,0.005l0.054,0.004l0.054,0.003l0.054,0.002l0.055,0.002l0.054,0.001l0.056,0l0.055,0l0.055,-0.001l0.054,-0.002l0.054,-0.002l0.054,-0.003l0.054,-0.004l0.053,-0.005l0.054,-0.005l0.052,-0.005l0.053,-0.007l0.052,-0.007l0.053,-0.007l0.052,-0.009l0.051,-0.009l0.052,-0.009l0.051,-0.01l0.051,-0.011l0.05,-0.011l0.051,-0.012l0.05,-0.013l0.05,-0.013l0.05,-0.014l0.049,-0.014l0.049,-0.015l0.049,-0.016l0.048,-0.016l0.049,-0.016l0.048,-0.018l0.048,-0.017l0.047,-0.019l0.047,-0.019l0.047,-0.019l0.047,-0.02l0.046,-0.021l0.047,-0.021l0.046,-0.022l0.045,-0.022l0.045,-0.023l0.045,-0.023l0.045,-0.024l0.044,-0.025l0.044,-0.025l0.044,-0.025l0.043,-0.026l0.044,-0.027l0.042,-0.027l0.043,-0.027l0.042,-0.028l0.042,-0.029l0.041,-0.029l0.041,-0.029l0.04,-0.03l0.041,-0.031l0.04,-0.031l0.039,-0.031l0.04,-0.032l0.038,-0.033l0.039,-0.032l0.038,-0.034l0.037,-0.034l0.038,-0.034l0.036,-0.034l0.037,-0.036l0.036,-0.035l0.035,-0.036l0.035,-0.036l0.035,-0.037l0.034,-0.037l0.034,-0.038l0.033,-0.038l0.033,-0.038l0.033,-0.039l0.032,-0.039l0.031,-0.04l0.031,-0.039l0.03,-0.041l0.03,-0.04l0.03,-0.042l0.029,-0.041l0.029,-0.041l0.027,-0.042l0.028,-0.043l0.027,-0.043l0.027,-0.042l0.026,-0.044l0.025,-0.044l0.025,-0.043l0.024,-0.045l0.025,-0.045l0.023,-0.044l0.023,-0.046l0.022,-0.045l0.022,-0.046l0.021,-0.046l0.02,-0.046l0.021,-0.047l0.019,-0.047l0.019,-0.047l0.018,-0.048l0.018,-0.048l0.017,-0.047l0.017,-0.049l0.016,-0.048l0.016,-0.049l0.015,-0.049l0.014,-0.05l0.014,-0.049l0.013,-0.05l0.012,-0.05l0.012,-0.05l0.012,-0.051l0.01,-0.05l0.011,-0.052l0.009,-0.051l0.009,-0.052l0.008,-0.051l0.008,-0.052l0.007,-0.053l0.006,-0.052l0.006,-0.053l0.005,-0.053l0.004,-0.054l0.004,-0.053l0.003,-0.054l0.003,-0.054l0.001,-0.055l0.001,-0.054l0.001,-0.055l-0.001,-0.055l-0.001,-0.055l-0.001,-0.054l-0.003,-0.054l-0.003,-0.054l-0.004,-0.054l-0.004,-0.053l-0.005,-0.053l-0.006,-0.053l-0.006,-0.053l-0.007,-0.052l-0.008,-0.052l-0.008,-0.052l-0.009,-0.051l-0.009,-0.052l-0.011,-0.051l-0.01,-0.051l-0.012,-0.05l-0.012,-0.051l-0.012,-0.05l-0.013,-0.049l-0.014,-0.05l-0.014,-0.049l-0.015,-0.05l-0.016,-0.049l-0.016,-0.048l-0.017,-0.048l-0.017,-0.048l-0.018,-0.048l-0.018,-0.047l-0.019,-0.047l-0.019,-0.047l-0.021,-0.047l-0.02,-0.047l-0.021,-0.045l-0.022,-0.046l-0.022,-0.046l-0.023,-0.045l-0.023,-0.045l-0.025,-0.045l-0.024,-0.044l-0.025,-0.044l-0.025,-0.044l-0.026,-0.043l-0.027,-0.043l-0.027,-0.043l-0.028,-0.042l-0.027,-0.042l-0.029,-0.042l-0.029,-0.041l-0.03,-0.041l-0.03,-0.041l-0.03,-0.04l-0.031,-0.04l-0.031,-0.039l-0.032,-0.039l-0.033,-0.04l-0.033,-0.038l-0.033,-0.038l-0.034,-0.037l-0.034,-0.037l-0.035,-0.037l-0.035,-0.037l-0.035,-0.036l-0.036,-0.035l-0.037,-0.035l-0.036,-0.035l-0.038,-0.034l-0.037,-0.034l-0.038,-0.033l-0.039,-0.033l-0.038,-0.032l-0.04,-0.032l-0.039,-0.032l-0.04,-0.03l-0.041,-0.031l-0.04,-0.03l-0.041,-0.03l-0.042,-0.029l-0.041,-0.028l-0.042,-0.028l-0.043,-0.028l-0.042,-0.027l-0.044,-0.026l-0.043,-0.026l-0.044,-0.026l-0.044,-0.025l-0.044,-0.024l-0.045,-0.024l-0.045,-0.023l-0.045,-0.023l-0.045,-0.023l-0.046,-0.021l-0.047,-0.022l-0.046,-0.02l-0.047,-0.02l-0.047,-0.02l-0.047,-0.019l-0.047,-0.018l-0.048,-0.018l-0.048,-0.017l-0.049,-0.017l-0.048,-0.016l-0.049,-0.016l-0.049,-0.014l-0.049,-0.015l-0.051,-0.014l-0.049,-0.013l-0.05,-0.012l-0.051,-0.012l-0.05,-0.012l-0.051,-0.01l-0.051,-0.011l-0.052,-0.009l-0.051,-0.009l-0.052,-0.008l-0.053,-0.008l-0.052,-0.007l-0.053,-0.006l-0.052,-0.006l-0.054,-0.005l-0.053,-0.004l-0.054,-0.004l-0.054,-0.003l-0.054,-0.003l-0.054,-0.001l-0.055,-0.001l-3.055,-0.02l0,-8.443l0.004,-0.152l0.011,-0.152l0.019,-0.151l0.027,-0.149l0.034,-0.148l0.042,-0.146l0.049,-0.144l0.057,-0.141l0.063,-0.139l0.071,-0.134l0.077,-0.131l0.083,-0.127l0.09,-0.123l0.096,-0.117l0.102,-0.113l0.108,-0.108l0.113,-0.102l0.117,-0.096l0.123,-0.09l0.127,-0.083l0.131,-0.077l0.134,-0.071l0.139,-0.063l0.141,-0.057l0.144,-0.049l0.146,-0.042l0.148,-0.034l0.149,-0.027l0.151,-0.019l0.152,-0.012l0.152,-0.003l0.152,0.003Z" style="fill:#6c7a89;"/><rect x="436.759" y="133.753" width="9.899" height="4.057" style="fill:#4b4b4b;"/><path d="M432.859,133.754l17.699,0l0,-4.057l-17.699,0l0,4.057ZM436.759,93.748l9.899,0l0,-4.056l-9.899,0l0,4.056Z" style="fill:#4b4b4b;"/><rect x="432.859" y="85.636" width="17.7" height="4.057" style="fill:#4b4b4b;"/><rect x="439.282" y="93.748" width="4.901" height="35.948" style="fill:#6c7a89;"/><path d="M504.497,283.349c0,1.191 -0.967,2.158 -2.158,2.158l-126.21,0c-1.192,0 -2.159,-0.967 -2.159,-2.158l0,-103.387c0,-1.192 0.967,-2.158 2.159,-2.158l126.21,0c1.191,0 2.158,0.966 2.158,2.158l0,103.387Z" style="fill:#fff;"/><path d="M504.497,186.868l0,-6.907c0,-1.191 -0.967,-2.157 -2.158,-2.157l-126.21,0c-1.192,0 -2.159,0.966 -2.159,2.157l0,6.907l130.527,0Z" style="fill:#6c7a89;"/><path d="M381.033,182.336c0,1.229 -0.997,2.226 -2.227,2.226c-1.231,0 -2.228,-0.997 -2.228,-2.226c0,-1.23 0.997,-2.226 2.228,-2.226c1.23,0 2.227,0.996 2.227,2.226" style="fill:#c1272d;"/><path d="M388.626,182.336c0,1.229 -0.996,2.226 -2.226,2.226c-1.231,0 -2.229,-0.997 -2.229,-2.226c0,-1.23 0.998,-2.226 2.229,-2.226c1.23,0 2.226,0.996 2.226,2.226" style="fill:#fbb03b;"/><path d="M396.22,182.336c0,1.229 -0.997,2.226 -2.227,2.226c-1.231,0 -2.228,-0.997 -2.228,-2.226c0,-1.23 0.997,-2.226 2.228,-2.226c1.23,0 2.227,0.996 2.227,2.226" style="fill:#8cc63f;"/><rect x="373.97" y="186.867" width="130.527" height="13.018" style="fill:#cfd1d9;"/><path d="M384.544,197.065l32.702,0l0,-6.888l-32.702,0l0,6.888ZM422.883,197.065l32.702,0l0,-6.888l-32.702,0l0,6.888ZM461.222,197.065l32.701,0l0,-6.888l-32.701,0l0,6.888Z" style="fill:#aeb8bf;"/><rect x="384.544" y="207.162" width="32.701" height="22.02" style="fill:#446b34;"/><rect x="422.883" y="207.162" width="32.701" height="22.02" style="fill:#9c9e4c;"/><rect x="461.222" y="207.162" width="32.701" height="22.02" style="fill:#ffbd4f;"/><path d="M384.544,235.085l32.702,0l0,-1.752l-32.702,0l0,1.752ZM384.544,239.656l32.702,0l0,-1.752l-32.702,0l0,1.752ZM384.544,244.228l32.702,0l0,-1.753l-32.702,0l0,1.753ZM422.883,235.085l32.702,0l0,-1.752l-32.702,0l0,1.752ZM422.883,239.656l32.702,0l0,-1.752l-32.702,0l0,1.752ZM422.883,244.228l32.702,0l0,-1.753l-32.702,0l0,1.753ZM461.222,235.085l32.701,0l0,-1.752l-32.701,0l0,1.752ZM461.222,239.656l32.701,0l0,-1.752l-32.701,0l0,1.752ZM461.222,244.228l32.701,0l0,-1.753l-32.701,0l0,1.753Z" style="fill:#aeb8bf;"/><rect x="384.544" y="248.441" width="32.701" height="22.02" style="fill:#76abd5;"/><rect x="422.883" y="248.441" width="32.701" height="22.02" style="fill:#ffbd4f;"/><rect x="461.222" y="248.441" width="32.701" height="22.02" style="fill:#446b34;"/><path d="M384.544,276.363l32.702,0l0,-1.752l-32.702,0l0,1.752ZM384.544,280.935l32.702,0l0,-1.752l-32.702,0l0,1.752ZM422.883,276.363l32.702,0l0,-1.752l-32.702,0l0,1.752ZM422.883,280.935l32.702,0l0,-1.752l-32.702,0l0,1.752ZM461.222,276.363l32.701,0l0,-1.752l-32.701,0l0,1.752ZM461.222,280.935l32.701,0l0,-1.752l-32.701,0l0,1.752Z" style="fill:#aeb8bf;"/><path d="M156.928,461.646l12.813,0l0,-24.599l-12.813,0l0,24.599ZM194.536,461.646l313.536,0l0,-24.599l-313.536,0l0,24.599Z" style="fill:#99bfb2;"/><rect x="237.747" y="58.847" width="91.69" height="77.163" style="fill:#fff;"/><path d="M242.874,69.396l45.544,0l0,-2.712l-45.544,0l0,2.712ZM242.874,78.089l45.544,0l0,-2.713l-45.544,0l0,2.713ZM242.874,86.782l45.544,0l0,-2.713l-45.544,0l0,2.713ZM242.874,95.474l82.031,0l0,-2.713l-82.031,0l0,2.713ZM242.874,104.167l82.031,0l0,-2.713l-82.031,0l0,2.713ZM242.874,112.86l82.031,0l0,-2.713l-82.031,0l0,2.713ZM242.874,121.552l82.031,0l0,-2.712l-82.031,0l0,2.712ZM242.874,130.245l82.031,0l0,-2.712l-82.031,0l0,2.712Z" style="fill:#aeb8bf;"/><rect x="292.884" y="66.683" width="32.021" height="20.397" style="fill:#ffbd4f;"/><rect x="229.63" y="74.372" width="4.059" height="9.893" style="fill:#4b4b4b;"/><rect x="233.688" y="70.473" width="4.059" height="17.688" style="fill:#4b4b4b;"/><rect x="219.909" y="76.893" width="9.72" height="4.898" style="fill:#6c7a89;"/><rect x="333.494" y="74.372" width="4.059" height="9.893" style="fill:#4b4b4b;"/><rect x="329.436" y="70.473" width="4.059" height="17.688" style="fill:#4b4b4b;"/><path d="M337.553,81.79l9.721,0l0,-4.897l-9.721,0l0,4.897ZM219.909,81.594l4.9,0l0,-81.594l-4.9,0l0,81.594Z" style="fill:#6c7a89;"/><rect x="342.414" y="0" width="4.901" height="81.594" style="fill:#6c7a89;"/><path d="M459.429,489.367c0,2.934 -1.961,5.312 -4.38,5.312c-2.419,0 -4.381,-2.378 -4.381,-5.312c0,-2.933 1.962,-5.312 4.381,-5.312c2.419,0 4.38,2.379 4.38,5.312" style="fill:#cca66a;"/><path d="M469.956,516.289c-2.55,0 -5.412,-0.435 -8.558,-1.548c-12.04,-4.263 -12.578,-17.956 -11.182,-24.601l9.066,1.904l-4.532,-0.953l4.536,0.935c-0.094,0.463 -2.205,11.366 5.204,13.988c8.328,2.948 12.926,-1.577 12.971,-1.623l6.726,6.364c-0.271,0.285 -5.373,5.534 -14.231,5.534" style="fill:#e6aa47;"/><path d="M561.041,508.172c-1.392,5.296 -6.816,8.461 -12.115,7.07l-6.126,-1.609c-5.298,-1.392 -8.466,-6.811 -7.074,-12.107c1.391,-5.295 6.816,-8.46 12.115,-7.07l6.126,1.609c5.3,1.391 8.466,6.812 7.074,12.107" style="fill:#ff7bac;"/><path d="M547.407,514.843l-15.557,-4.085l5.04,-19.176l15.558,4.084l-5.041,19.177l0,0Z" style="fill:#ccc;"/><path d="M531.85,510.758l-149.37,-39.214l5.041,-19.177l149.369,39.215l-5.04,19.176Z" style="fill:#f2f2f2;"/><path d="M533.295,505.261l-149.37,-39.214l2.151,-8.181l149.369,39.213l-2.15,8.182Z" style="fill:#e6e6e6;"/><path d="M532.807,510.897c-0.134,0.513 -0.661,0.82 -1.175,0.685c-0.512,-0.134 -0.819,-0.66 -0.685,-1.173l4.986,-18.966c0.136,-0.513 0.661,-0.82 1.174,-0.686c0.513,0.135 0.821,0.661 0.685,1.174l-4.985,18.966ZM548.364,514.982c-0.134,0.512 -0.66,0.819 -1.173,0.685c-0.514,-0.135 -0.82,-0.661 -0.686,-1.174l4.986,-18.966c0.135,-0.513 0.66,-0.82 1.174,-0.685c0.514,0.134 0.821,0.661 0.685,1.173l-4.986,18.967Z" style="fill:#999;"/><path d="M382.454,471.645l-20.195,-15.669l25.292,-3.726l-5.097,19.395Z" style="fill:#fbcc83;"/><path d="M370.846,454.711l-8.587,1.264l6.856,5.32l1.731,-6.584Z" style="fill:#f2f2f2;"/><rect x="473.59" y="499.562" width="4.58" height="8.585" style="fill:#fbcc83;"/><path d="M485.699,475.804c-4.824,-2.955 -11.131,-1.442 -14.088,3.378l-2.046,3.336l-0.837,-0.513c-0.675,-0.414 -1.556,-0.202 -1.969,0.471c-0.413,0.674 -0.202,1.555 0.473,1.969l0.837,0.513l-0.548,0.895c-2.956,4.821 -4.699,9.131 0.125,12.085c4.825,2.955 14.387,3.436 17.344,-1.386l4.09,-6.669c2.957,-4.822 1.444,-11.124 -3.381,-14.079" style="fill:#fbcc83;"/><path d="M479.118,468.599c0,0 -8.134,2.544 -4.471,8.074c3.661,5.529 10.072,5.348 10.31,7.752l-5.095,8.308l1.045,0.64c0,0 2.289,-4.963 4.384,-1.9c2.094,3.061 -3.042,6.076 -4.713,3.888c0,0 -3.814,1.613 -3.812,4.806c0,0 4.835,4.581 8.963,-1.925c4.125,-6.506 10.809,-14.389 5.556,-16.989c0,0 0.211,-6.574 -7.942,-8.491c-8.15,-1.918 -4.225,-4.163 -4.225,-4.163" style="fill:#754c24;"/><path d="M494.69,581.283c0,0 5.582,4.39 5.215,6.859l-6.589,3.812l-10.8,0c0,0 -2.92,-6.324 5.619,-7.625l6.555,-3.046Z" style="fill:#fff;"/><path d="M484.082,554.239c0,0 -1.464,21.736 11.715,27.59c0,0 -3.392,5.523 -11.764,3.677c0,0 -12.567,-4.591 -13.306,-26.909l13.355,-4.358l0,0Z" style="fill:#7e803d;"/><path d="M465.336,585.155c0,0 1.351,4.754 -0.338,6.785l-17.263,0c0,0 -2.181,-6.59 4.945,-6.435l12.656,-0.35l0,0Z" style="fill:#fff;"/><path d="M485.81,544.33c0,0 2.381,14.45 -7.504,17.743l-12.544,5.305l0,18.128c0,0 -7.224,3.859 -13.082,0c0,0 -1.099,-22.092 2.928,-26.512c4.028,-4.42 11.166,-14.664 11.166,-14.664l19.036,0Z" style="fill:#9c9e4c;"/><path d="M487.275,548.336l0,-32.086c0,-8.638 -5.204,-13.079 -11.624,-13.079c-6.419,0 -11.623,4.441 -11.623,13.079l0,32.086l23.247,0Z" style="fill:#ffbd4f;"/><path d="M451.34,490.848c0,3.602 -2.408,6.523 -5.378,6.523c-2.972,0 -5.38,-2.921 -5.38,-6.523c0,-3.603 2.408,-6.525 5.38,-6.525c2.97,0 5.378,2.922 5.378,6.525" style="fill:#fbcc83;"/><path d="M464.268,523.908c-3.132,0 -6.646,-0.534 -10.511,-1.903c-14.784,-5.232 -15.445,-22.049 -13.729,-30.209l11.131,2.338l-5.565,-1.169l5.57,1.148c-0.114,0.568 -2.707,13.957 6.391,17.177c10.227,3.619 15.874,-1.935 15.928,-1.994l8.26,7.816c-0.332,0.351 -6.598,6.796 -17.475,6.796" style="fill:#ffbd4f;"/><rect x="191.114" y="499.562" width="4.58" height="8.585" style="fill:#fbcc83;"/><path d="M182.859,585.155c0,0 1.351,4.754 -0.338,6.785l-17.262,0c0,0 -2.182,-6.59 4.944,-6.435l12.656,-0.35l0,0Z" style="fill:#fff;"/><path d="M203.334,544.33c0,0 2.381,14.45 -7.504,17.743l-12.545,5.305l0,18.128c0,0 -7.224,3.859 -13.081,0c0,0 -1.099,-22.092 2.927,-26.512c4.028,-4.42 11.166,-14.664 11.166,-14.664l19.037,0Z" style="fill:#ffbd4f;"/><path d="M203.49,585.155c0,0 -1.351,4.754 0.338,6.785l17.263,0c0,0 2.181,-6.59 -4.945,-6.435l-12.656,-0.35l0,0Z" style="fill:#fff;"/><path d="M183.016,544.33c0,0 -2.381,14.45 7.504,17.743l12.544,5.305l0,18.128c0,0 7.224,3.859 13.082,0c0,0 1.099,-22.092 -2.928,-26.512c-4.028,-4.42 -11.166,-14.664 -11.166,-14.664l-19.036,0Z" style="fill:#ffbd4f;"/><path d="M204.798,548.336l0,-32.086c0,-8.638 -5.203,-13.079 -11.623,-13.079c-6.42,0 -11.624,4.441 -11.624,13.079l0,32.086l23.247,0Z" style="fill:#7ca9d1;"/><path d="M180.962,476.165c-1.962,3.022 -5.573,4.161 -8.065,2.545c-2.493,-1.617 -2.921,-5.375 -0.96,-8.397c1.963,-3.023 5.574,-4.164 8.066,-2.547c2.493,1.615 2.922,5.376 0.959,8.399" style="fill:#fbcc83;"/><path d="M173.8,510.93c-2.627,-1.703 -5.284,-4.063 -7.781,-7.313c-9.552,-12.433 -0.947,-26.899 4.937,-32.811l8.065,8.017l-4.033,-4.009l4.048,3.995c-0.405,0.413 -9.874,10.234 -3.995,17.886c6.608,8.598 14.371,7.009 14.448,6.991l2.673,11.05c-0.471,0.113 -9.238,2.111 -18.362,-3.806" style="fill:#7ca9d1;"/><path d="M205.387,476.165c1.963,3.022 5.573,4.161 8.065,2.545c2.493,-1.617 2.922,-5.375 0.959,-8.397c-1.962,-3.023 -5.573,-4.164 -8.065,-2.547c-2.493,1.615 -2.922,5.376 -0.959,8.399" style="fill:#fbcc83;"/><path d="M212.549,510.93c2.627,-1.703 5.284,-4.063 7.781,-7.313c9.552,-12.433 0.948,-26.899 -4.936,-32.811l-8.066,8.017l4.033,-4.009l-4.048,3.995c0.406,0.413 9.874,10.234 3.995,17.886c-6.607,8.598 -14.37,7.009 -14.448,6.991l-2.672,11.05c0.47,0.113 9.237,2.111 18.361,-3.806" style="fill:#7ca9d1;"/><path d="M210.018,452.726l-0.875,-0.874l-0.783,0.482l-22.138,-5.25l-5.253,22.125l-1.268,0.781l0.875,0.874l5.069,1.202l0.001,0l18.726,4.44l5.646,-23.78l0,0Z" style="fill:#7b998f;"/><path d="M203.497,475.632l-23.796,-5.642l5.646,-23.78l23.795,5.642l-5.645,23.78Z" style="fill:#99bfb2;"/><path d="M185.379,467.431c0,0 -0.118,0.433 0.305,0.533c0.532,0.127 4.915,1.159 4.915,1.159l0.963,-4.022c0,0 0.09,-0.678 0.734,-0.526l2.036,0.483c0.764,0.182 0.558,0.831 0.558,0.831l-0.96,4.011l4.809,1.14c0.543,0.129 0.646,-0.418 0.646,-0.418l1.761,-7.421l-5.35,-7.631l-8.626,4.317l-1.791,7.544l0,0Z" style="fill:#fff;"/><path d="M184.654,458.7c0,0 0.342,1.27 1.945,0.461l9.558,-4.844l5.879,8.459c1.28,1.479 2.121,0.503 2.121,0.503l-7.528,-10.95l-11.975,6.371ZM203.446,456.027l-1.919,-0.455l-0.546,2.329l1.527,2.077l0.938,-3.951l0,0Z" style="fill:#fff;"/><path d="M203.223,475.804c-4.824,-2.955 -11.131,-1.442 -14.089,3.378l-2.046,3.336l-0.837,-0.513c-0.675,-0.414 -1.556,-0.202 -1.969,0.471c-0.413,0.674 -0.202,1.555 0.474,1.969l0.837,0.513l-0.549,0.895c-2.956,4.821 -4.699,9.131 0.126,12.085c4.824,2.955 14.387,3.436 17.343,-1.386l4.091,-6.669c2.956,-4.822 1.443,-11.124 -3.381,-14.079" style="fill:#fbcc83;"/><path d="M196.641,468.599c0,0 -8.134,2.544 -4.471,8.074c3.661,5.529 10.072,5.348 10.31,7.752l-5.095,8.308l1.046,0.64c0,0 2.289,-4.963 4.383,-1.9c2.094,3.061 -3.042,6.076 -4.712,3.888c0,0 -3.814,1.613 -3.813,4.806c0,0 4.836,4.581 8.963,-1.925c4.126,-6.506 10.81,-14.389 5.556,-16.989c0,0 0.21,-6.574 -7.941,-8.491c-8.151,-1.918 -4.226,-4.163 -4.226,-4.163" style="fill:#754c24;"/></g></svg>