<svg data-name="Calque 1" xmlns="http://www.w3.org/2000/svg" viewBox="0 0 623 512.35"><title>contact-me_img</title><path fill="#00B1C5" d="M0 .01h623v512.34H0z"/><path d="M493 428.33a17.1 17.1 0 0 1-17.11 17.1H183.78a17.1 17.1 0 0 1-17.11-17.1V229a17.1 17.1 0 0 1 17.11-17.1h292.11A17.1 17.1 0 0 1 493 229v199.33z" fill="#999" fill-rule="evenodd"/><path d="M166.67 399.52v28.81a17.1 17.1 0 0 0 17.11 17.1h292.11a17.1 17.1 0 0 0 17.11-17.1v-28.8H166.67z" fill="#323634" fill-rule="evenodd"/><path fill="#c2ddd4" d="M177.89 222.37h303.89v177.15H177.89z"/><path fill="#999" fill-rule="evenodd" d="M358.3 445.42h-56.93l-15.15 61.29h87.22l-15.14-61.29"/><path d="M399.28 506.72a5.57 5.57 0 0 1-5.57 5.57H265.95a5.57 5.57 0 1 1 0-11.14h127.76a5.57 5.57 0 0 1 5.57 5.57" fill="#323634" fill-rule="evenodd"/><path d="M464.38 263.86h2.57v-8.35h-2.6v8.35zm0 19.48h2.57v-8.35h-2.6v8.34zm0 19.48h2.57v-8.35h-2.6v8.35zm0 19.48h2.57v-8.35h-2.6v8.38zm0 19.48h2.57v-8.35h-2.6v8.35zm2.6-96h-2.6v-2.11h-2.11v-2.6h4.68v4.7zm-28.59-2.11h8.19v-2.6h-8.19v2.6zm-19.11 0h8.19v-2.6h-8.19v2.6zm-19.11 0h8.19v-2.6h-8.19v2.6zm-19.11 0h8.19v-2.6h-8.19v2.6zm-19.11 0h8.19v-2.6h-8.19v2.6zm-9.55 0h-2.11v2.11h-2.6v-4.7h4.71v2.6zm-4.71 26.39h2.6v-8.35h-2.6v8.35zm0 19.48h2.6v-8.35h-2.6v8.35zm0 19.48h2.6v-8.35h-2.6v8.35zm0 19.48h2.6v-8.35h-2.6v8.35zm0 19.48h2.6v-8.35h-2.6v8.35zm2.6 11.84h2.11v2.6h-4.71v-4.7h2.6v2.11zm17.8 2.6h8.19v-2.6h-8.19v2.6zm19.11 0h8.19v-2.6h-8.19v2.6zm19.11 0h8.19v-2.6h-8.19v2.6zm19.11 0h8.19v-2.6h-8.19v2.6zm19.11 0h8.19v-2.6h-8.19v2.6zm22.45 0h-4.71v-2.6h2.11v-2.11h2.57v4.7zm-157.6-98.55h2.57v-8.35h-2.6v8.35zm0 19.48h2.57V275h-2.6v8.33zm0 19.48h2.57v-8.35h-2.6v8.35zm0 19.48h2.57v-8.35h-2.6v8.37zm0 19.48h2.57v-8.35h-2.6v8.35zm2.6-96h-2.6v-2.11h-2.11v-2.6h4.68v4.7zm-28.59-2.11h8.19v-2.6h-8.19v2.6zm-19.11 0h8.19v-2.6h-8.19v2.6zm-19.11 0h8.19v-2.6h-8.19v2.6zm-19.11 0h8.19v-2.6h-8.19v2.6zm-19.11 0h8.19v-2.6h-8.19v2.6zm-9.55 0h-2.11v2.11h-2.6v-4.7h4.71v2.6zm-4.71 26.39h2.6v-8.35h-2.6v8.35zm0 19.48h2.6v-8.35h-2.6v8.35zm0 19.48h2.6v-8.35h-2.6v8.35zm0 19.48h2.6v-8.35h-2.6v8.35zm0 19.48h2.6v-8.35h-2.6v8.35zm2.6 11.84h2.11v2.6h-4.71v-4.7h2.6v2.11zm17.8 2.6h8.19v-2.6h-8.19v2.6zm19.11 0h8.19v-2.6h-8.19v2.6zm19.11 0h8.19v-2.6h-8.19v2.6zm19.11 0h8.19v-2.6h-8.19v2.6zm19.11 0h8.19v-2.6h-8.19v2.6zm22.45 0h-4.71v-2.6h2.11v-2.11h2.57v4.7z" fill="#fff" fill-rule="evenodd"/><path d="M114.22 115.59h-4.27L99.1 104.76l-8.73 10.83h-2.32v-2l8.9-11-8.9-8.89v-3h1.28l9.52 9.52 7.68-9.52h2l.44 1.8-8 9.87zm-30.71 2.89v5.77H47.86v15.53h35.65v5.77H42.08v-27.08h41.43zm42.31 21.3h113.79l-16.38-9.5-2.71-1.57-7.69-4.46h-91.48l-1.4-5.77h92.89l36.73 21.3v5.77h-123l-1.4-5.77h.7z" fill="#6d7b89" fill-rule="evenodd"/><path d="M220.52 128.75l-10.19 10.19-7.39-7.4 7.25-7.26h-4.24l-5.11 5.11-5.15-5.06h-4.28l7.25 7.26-8 8-8-8 7.29-7.26h-4.28l-5.11 5.11-5.15-5.11h-4.28l7.26 7.26-8 8-8-8 7.25-7.26h-4.29l-5.11 5.11-5.12-5.11h-4.28l7.25 7.26-8 8-8-8 7.26-7.26h-4.28l-5.12 5.07-5.11-5.07h-4.28l7.26 7.26-8 8-6.29-6.3-.67-2.75 6.21-6.22h-4.28l-2.76 2.77-.68-2.76-1.4-5.78-7.84-32.33h-28.6v38.82l-4.4 4.4-5.16-5.11h-4.24l7.24 7.21-8 8-8-8 7.27-7.21h-4.27l-5.11 5.11-5.13-5.11h-4.28l7.26 7.26-8.29 8.29h4.28l6.14-6.15 6.13 6.1h8l6.14-6.15 4.4 4.4v12.75h26.46l-7.65 7.66-7.25-7.26v4.29l5.11 5.11-5.11 5.11v4.29l7.25-7.26 8 8-8 8-7.25-7.26v4.29l5.11 5.11-5.11 5.11v4.31l7.25-7.26 8 8-8 8-7.25-7.26v4.29l5.11 5.11-5.1 5.12v4.29l7.25-7.26 8 8-8 8-7.25-7.26v4.28l5.11 5.12-5.11 5.11v4.29l7.25-7.26 8 8-8 8-7.25-7.26v4.29l5.11 5.11-5.11 5.11v4.29l7.25-7.26 8 8-8 8-7.25-7.26v4.29l5.11 5.12-5.11 5.11v4.29l7.25-7.26 8 8-8 8-7.25-7.26v4.29l5.11 5.12-5.11 5.11v4.29l7.25-7.26 8 8-8 8-7.25-7.26v4.29l5.11 5.11-5.11 5.11v4.29l7.25-7.26 8 8-8 8-7.25-7.26v4.29l5.11 5.11-5.11 5.11v4.3l7.25-7.26 8 8-8 8-7.25-7.26v4.29l5.11 5.12-5.11 5.11v4.29l7.25-7.26 8 8-8 8-7.25-7.26v4.29l5.11 5.11-5.11 5.11v4.29l7.25-7.26 8 8-8 8-7.25-7.26v4.28l5.11 5.12-5.11 5.11v4.28l7.25-7.26 8 8-8 8-7.25-7.26v4.28l5.11 5.11-5.11 5.11v4.28l7.25-7.26 8 8-8 8-7.25-7.26v4.42l5.11 5.12-5.11 5.11v4.28l7.25-7.26 8 8-8 8-7.25-7.25v4.29l5.11 5.11-5.11 5.11v4.29l7.25-7.26 8 8-8 8-7.25-7.26v4.29l5.11 5.12-5.11 5.11v4.29l7.25-7.26 8 8-8 8-7.25-7.26v4.28l5.11 5.11-5.11 5.11v4.28l7.25-7.26 8 8-8 8-7.25-7.26v4.29l5.11 5.11-5.11 5.11v1.66h2.64l4.62-4.62 4.63 4.62h3.67v-.6l-6.14-6.14 6.14-6.15v-8l-6.17-6.11 6.14-6.15v-8l-6.14-6.14 6.14-6.15v-8l-6.14-6.15 6.14-6.14v-8l-6.14-6.15 6.14-6.15v-8l-6.14-6.15 6.14-6.14v-8l-6.14-6.14 6.14-6.15v-8l-6.14-6.15 6.14-6.15v-8l-6.14-6.14 6.14-6.15v-8l-6.14-6.15 6.14-6.15v-8l-6.14-6.15 6.14-6.15v-8l-6.14-6.15 6.14-6.15v-3.65h2.2l-1.42-1.42-.79.79v-3.71l-6.14-6.15 6.14-6.15v-8l-6.14-6.14 6.14-6.15v-8l-6.14-6.15 6.14-6.15v-8l-6.14-6.15 6.14-6.15v-8l-6.14-6.15 6.14-6.15v-8l-6.14-6.15 6.14-6.15v-3.65h17.19l-1.27-5.23-1.4-5.78-.22-.92.92.92h8l6.14-6.15 6.14 6.15h8l6.14-6.15 6.14 6.15h8l6.14-6.15 6.14 6.15h8l6.14-6.15 6.17 6.19h6.78l9.5-9.51zm-137 5.05l-2.26-2.26 2.25-2.21v4.52zm19.8 10.43a10.18 10.18 0 1 1 10.18-10.18 10.18 10.18 0 0 1-10.19 10.18zm-15.27-28.61v-24.9h20.48l.42 1.81 5.6 23.09h-26.5z" fill="#4c4c4c" fill-rule="evenodd"/><path d="M89.28 512.33h5.78V150.8h-5.78v361.53zm4-241.21l1.42 1.42h-2.88zm-.15-137.11a10.18 10.18 0 1 1 10.18 10.18 10.18 10.18 0 0 1-10.18-10.18" fill="#6d7b89" fill-rule="evenodd"/><path fill="#4c4c4c" fill-rule="evenodd" d="M93.24 270.97l1.41 1.41h-2.83l1.42-1.41"/><path d="M155.1 232.22h87.13l-43.57-26.89zm93.7 1l-.45 1.6h-99.4l-.45-1.6 50.16-30.89zM116.37 512.33V150.77h-5.78V271.9l.79-.79 1.42 1.42h-2.2v239.8h5.78z" fill="#6d7b89" fill-rule="evenodd"/><path fill="#6d7b89" fill-rule="evenodd" d="M198.79 185.6l.13.01.13.02.13.02.13.03.12.04.13.04.12.05.12.05.12.06.11.07.11.07.11.08.1.08.1.09.09.09.09.1.08.1.08.11.07.11.07.11.06.12.05.12.05.12.04.12.04.13.03.13.02.13.02.13.01.13v2.65l.03.01.1.03.11.04.1.03.1.04.1.04.1.04.1.04.1.04.1.04.1.04.1.05.09.04.1.05.1.05.09.05.1.05.09.05.09.05.09.06.09.05.09.06.09.05.09.06.09.06.09.06.09.06.08.06.09.07.08.06.09.07.08.06.08.07.08.07.08.06.08.07.08.08.08.07.08.07.07.07.08.08.07.07.07.08.08.07.07.08.07.08.07.08.07.08.07.08.06.08.07.09.06.08.07.09.06.08.06.08.06.09.06.09.06.09.06.09.06.09.05.09.06.09.05.09.05.09.05.1.05.09.05.1.05.09.05.1.05.09.04.1.04.1.05.1.04.1.04.1.04.1.03.1.04.1.04.1.03.11.03.1.04.11.03.1.03.11.02.1.03.11.02.1.03.11.02.11.02.11.02.11.02.1.02.11.02.11.01.11.01.11.02.11.01.12.01.11v.11l.01.11v.11l.01.12v.45l-.01.11v.11l-.01.12v.11l-.01.11-.01.11-.02.11-.01.11-.01.11-.02.11-.02.11-.02.11-.02.11-.02.11-.02.11-.03.1-.02.11-.03.11-.02.1-.03.11-.03.1-.04.1-.03.11-.03.1-.04.1-.04.11-.03.1-.04.1-.04.1-.04.1-.05.1-.04.09-.04.1-.05.1-.05.09-.05.1-.05.09-.05.1-.05.09-.05.1-.05.09-.06.09-.05.09-.06.09-.06.09-.06.09-.06.08-.06.09-.06.09-.06.08-.07.09-.06.08-.07.08-.06.08-.07.09-.07.08-.07.08-.07.07-.07.08-.08.08-.07.08-.07.07-.08.07-.07.08-.08.07-.08.07-.08.07-.08.07-.08.07-.08.07-.08.06-.08.07-.09.07-.08.06-.09.06-.08.07-.09.06-.09.06-.09.05-.09.06-.09.06-.09.06-.09.05-.09.05-.09.06-.09.05-.1.05-.09.05-.1.04-.1.05-.09.05-.1.04-.1.05-.1.04-.1.04-.1.04-.1.04-.1.04-.1.03-.1.04-.11.03-.1.04-.1.03-.11.03-.1.03-.11.03-.11.02-.1.03-.11.02-.11.02-.11.03-.1.02-.11.01-.11.02-.11.02-.11.01-.11.02-.11.01-.12.01-.11.01h-.11l-.11.01-.11.01h-.68l-.11-.01-.12-.01h-.11l-.11-.01-.11-.01-.11-.01-.11-.02-.11-.01-.11-.02-.11-.02-.11-.01-.11-.02-.11-.03-.11-.02-.1-.02-.11-.03-.1-.02-.11-.03-.11-.03-.1-.03-.11-.03-.1-.04-.1-.03-.1-.04-.11-.03-.1-.04-.1-.04-.1-.04-.1-.04-.1-.04-.09-.05-.1-.04-.1-.05-.09-.05-.1-.04-.1-.05-.09-.05-.09-.05-.1-.06-.09-.05-.09-.05-.09-.06-.09-.06-.09-.06-.09-.05-.09-.06-.08-.06-.09-.07-.08-.06-.09-.06-.08-.07-.08-.07-.09-.06-.08-.07-.08-.07-.08-.07-.08-.07-.07-.07-.08-.07-.08-.07-.07-.08-.08-.07-.07-.08-.07-.08-.07-.08-.07-.07-.07-.08-.07-.08-.07-.09-.07-.08-.06-.08-.07-.08-.06-.09-.06-.08-.07-.09-.06-.09-.06-.08-.06-.09-.05-.09-.06-.09-.06-.09-.05-.09-.06-.09-.05-.1-.05-.09-.05-.09-.05-.1-.05-.1-.04-.09-.05-.1-.04-.09-.05-.1-.04-.1-.04-.1-.04-.1-.04-.1-.04-.1-.04-.11-.03-.1-.04-.1-.03-.1-.03-.11-.03-.1-.03-.11-.03-.1-.02-.11-.03-.11-.02-.1-.03-.11-.02-.11-.02-.11-.02-.11-.01-.11-.02-.11-.02-.11-.01-.11-.01-.11-.01-.11-.01-.11-.01-.11-.01-.12v-.22l-.01-.11v-.1l.01-.13v-.13l.02-.13.02-.13.03-.13.04-.13.04-.12.05-.13.05-.12.06-.11.07-.12.07-.11.08-.1.08-.1.09-.1.09-.1.1-.09.1-.08.1-.08.11-.07.12-.07.11-.06.12-.06.12-.05.13-.04.12-.04.13-.03.13-.02.13-.02.13-.01h.26l.14.01.13.01.13.03.12.03.13.03.13.04.12.05.12.06.12.06.11.06.11.07.11.08.1.08.1.09.09.09.09.1.08.1.08.11.07.11.07.11.06.12.06.11.05.13.04.12.04.13.03.12.02.13.02.13.01.14.01.13v.25l.01.05v.09l.01.04.01.05v.04l.01.05v.04l.01.05.01.04.01.05.01.04.01.04.01.05.01.04.01.04.01.05.02.04.01.04.01.04.02.05.01.04.02.04.01.04.02.04.01.04.02.04.02.04.01.04.02.05.02.03.02.04.02.04.02.04.02.04.02.04.02.04.03.03.02.04.02.04.03.04.02.03.02.04.03.04.02.03.03.04.03.03.02.04.03.03.03.03.02.04.03.03.03.04.03.03.03.03.03.03.03.04.03.03.03.03.03.03.03.03.03.03.04.03.03.03.03.03.03.02.04.03.03.03.04.03.03.03.04.02.03.03.04.02.03.03.04.02.03.03.04.02.04.02.04.03.03.02.04.02.04.02.04.02.04.02.03.03.04.02.04.01.04.02.04.02.04.02.04.02.04.01.04.02.05.01.04.02.04.02.04.01.04.01.05.02.04.01.04.01.04.02.05.01.04.01.04.01.05.01.04.01.05.01h.04l.05.01.04.01.05.01h.04l.05.01h.04l.05.01h.14l.04.01h.29l.09-.01h.1l.04-.01h.05l.04-.01h.05l.09-.02.04-.01h.05l.04-.01.09-.02.04-.01.09-.02.04-.02.05-.01.04-.01.08-.03.04-.01.13-.05.08-.03.04-.02.04-.02.04-.02.08-.03.04-.02.04-.03.04-.01.11-.07.04-.02.07-.05.04-.02.04-.03.07-.05.03-.02.07-.05.04-.03.03-.03.04-.03.03-.03.07-.05.03-.03.03-.03.03-.03.06-.06.04-.03.03-.03.03-.04.03-.03.03-.03.02-.03.03-.04.06-.07.08-.1.02-.03.03-.04.03-.03.02-.04.05-.07.02-.04.05-.08.02-.03.02-.04.02-.04.02-.04.04-.08.02-.04.02-.03.02-.05.02-.04.01-.04.02-.04.02-.04.03-.08.03-.08.01-.05.03-.08.01-.04.01-.05.03-.08v-.04l.02-.09.02-.09.01-.05.01-.04.01-.14.01-.04v-.05l.01-.09v-.05l.01-.09v-.19l-.01-.05v-.14l-.01-.04v-.05l-.01-.05v-.04l-.01-.05v-.04l-.01-.05-.01-.04-.01-.05-.01-.04v-.04l-.02-.05v-.04l-.02-.04-.01-.05-.01-.04-.01-.04-.01-.05-.02-.04-.01-.04-.02-.04-.01-.04-.02-.05-.01-.04-.02-.04-.02-.04-.01-.04-.02-.04-.02-.04-.02-.04-.02-.04-.02-.04-.02-.03-.02-.04-.02-.04-.02-.04-.02-.04-.03-.04-.02-.03-.02-.04-.03-.04-.02-.03-.02-.04-.03-.03-.03-.04-.02-.04-.03-.03-.03-.03-.02-.04-.03-.03-.03-.04-.03-.03-.02-.03-.03-.03-.03-.04-.03-.03-.03-.03-.04-.03-.03-.03-.03-.03-.03-.03-.03-.03-.03-.03-.04-.03-.03-.03-.03-.03-.04-.02-.03-.03-.04-.03-.03-.02-.04-.03-.03-.03-.04-.02-.03-.03-.04-.02-.04-.02-.03-.03-.04-.02-.04-.02-.04-.02-.03-.03-.04-.02-.04-.02-.04-.02-.04-.02-.04-.02-.04-.02-.04-.01-.04-.02-.04-.02-.04-.02-.04-.01-.04-.02-.04-.01-.05-.02-.04-.01-.04-.02-.04-.01-.04-.02-.05-.01-.04-.01-.04-.01-.05-.01-.04-.01-.04-.01-.05-.01-.04-.01-.05-.01-.04-.01h-.05l-.04-.01-.05-.01h-.04l-.05-.01h-.09l-.05-.01h-.18l-2.65-.02v-7.44l.01-.13.02-.13.03-.13.02-.13.04-.13.04-.12.05-.12.06-.12.06-.12.06-.11.08-.11.07-.11.09-.1.09-.1.09-.09.1-.09.1-.08.1-.08.11-.07.12-.07.11-.06.12-.05.12-.05.13-.04.13-.04.12-.03.13-.02.14-.02.13-.01.13-.01.13.01"/><path d="M191 148.33h15.32v-3.51H191v3.51zm3.38 3.51h8.57v-3.51h-8.57v3.51zm-3.37 34.62h15.32v-3.53H191v3.51zm3.38 3.51h8.56v-3.51h-8.57v3.51z" fill="#4c4c4c" fill-rule="evenodd"/><path fill="#6d7b89" d="M196.56 151.82h4.24v31.11h-4.24z"/><rect x="142.18" y="225.07" width="112.96" height="93.21" rx="1.87" ry="1.87" fill="#fff"/><path d="M142.18 294.75v21.67a1.87 1.87 0 0 0 1.87 1.91h109.22a1.87 1.87 0 0 0 1.87-1.87v-21.71h-113z" fill="#cfd1d9" fill-rule="evenodd"/><path d="M255.14 232.92v-6a1.87 1.87 0 0 0-1.87-1.87H144.05a1.87 1.87 0 0 0-1.87 1.87v6h113z" fill="#6d7b89" fill-rule="evenodd"/><path d="M148.29 228.99a1.93 1.93 0 1 1-1.93-1.93 1.93 1.93 0 0 1 1.93 1.93" fill="#c2292e" fill-rule="evenodd"/><path d="M154.86 228.99a1.93 1.93 0 1 1-1.93-1.93 1.93 1.93 0 0 1 1.93 1.93" fill="#e5aa48" fill-rule="evenodd"/><path d="M161.43 228.99a1.93 1.93 0 1 1-1.93-1.93 1.93 1.93 0 0 1 1.93 1.93" fill="#8ab544" fill-rule="evenodd"/><path fill="#cfd1d9" d="M142.18 232.91h112.96v11.27H142.18z"/><path fill="#456c37" d="M151.33 235.78h28.3v5.96h-28.3z"/><path fill="#e9b658" d="M184.51 235.78h28.3v5.96h-28.3z"/><path fill="#9d9e4c" d="M217.69 235.78h28.3v5.96h-28.3z"/><path d="M211.2 260.79a12.54 12.54 0 1 1-12.54-12.53 12.54 12.54 0 0 1 12.54 12.53" fill="#77abd6" fill-rule="evenodd"/><path d="M245.95 287.88a1 1 0 0 1-1 1h-92.57a1.045 1.045 0 1 1 0-2.09h92.57a1 1 0 0 1 1 1m0-5.18a1 1 0 0 1-1 1h-92.57a1.045 1.045 0 1 1 0-2.09h92.57a1 1 0 0 1 1 1m0-5.18a1 1 0 0 1-1 1h-92.57a1.045 1.045 0 1 1 0-2.09h92.57a1 1 0 0 1 1 1" fill="#aeb8bf" fill-rule="evenodd"/><path fill="#fff" d="M151.33 299.1h94.66v14.94h-94.66z"/><path d="M508.79 44.46h4.28l10.88-10.83 8.73 10.83h2.27v-2l-8.9-11 8.9-8.89v-3h-1.28l-9.52 9.52-7.68-9.52h-2l-.44 1.8 8 9.87zm30.71 2.87v5.77h35.65v15.54H539.5v5.77h41.45V47.33H539.5zm-42.31 21.3H383.4l16.38-9.5 2.71-1.57 7.69-4.46h91.49l1.4-5.77h-92.9l-36.72 21.31v5.77h123l1.4-5.77h-.7z" fill="#6d7b89" fill-rule="evenodd"/><path d="M539.5 66.9l4.4-4.4 6.14 6.14h8l6.14-6.14 6.14 6.14h4.28l-8.27-8.31 7.26-7.25h-4.28l-5.11 5.11-5.11-5.11h-4.28l7.23 7.25-8 8-8-8 7.25-7.25h-4.28l-5.06 5.15-4.4-4.4V15.05h-28.6l-7.89 32.28-1.4 5.77-.71 2.78-2.77-2.76h-4.23l6.21 6.21-.67 2.75-6.29 6.25-8-8 7.26-7.25h-4.28l-5.11 5.11-5.12-5.07h-4.28l7.28 7.21-8 8-8-8 7.25-7.25h-4.28l-5.11 5.11-5.11-5.11h-4.28l7.21 7.25-8 8-8-8 7.26-7.25h-4.28l-5.11 5.11-5.11-5.11h-4.28l7.24 7.25-8 8-8-8 7.25-7.25h-4.28l-5.11 5.11-5.11-5.11h-4.28l7.25 7.25-7.39 7.39-10.19-10.15-2.71 1.57 9.51 9.5h6.78l6.14-6.14 6.14 6.14h8l6.14-6.14 6.14 6.14h8l6.14-6.14 6.18 6.14h8l6.15-6.14 6.14 6.14h8l.92-.92-.22.92-1.4 5.77-1.27 5.22h17.19v3.7l6.14 6.14-6.14 6.14v8l6.14 6.14-6.14 6.14v8l6.14 6.14-6.14 6.14v8l6.14 6.14-6.19 6.02v8l6.14 6.14-6.14 6.14v8l6.14 6.14-6.14 6.14v3.71l-.79-.79-1.42 1.42h2.2v3.65l6.14 6.14-6.14 6.14v8l6.14 6.14-6.14 6.14v8l6.14 6.14-6.14 6.14v8l6.14 6.14-6.14 6.14v8l6.14 6.14-6.14 6.14v8l6.14 6.14-6.14 6.14v8l6.14 6.14-6.14 6.14v8l6.14 6.14-6.14 6.14v8l6.14 6.14-6.13 6.07v8l6.14 6.14-6.14 6.14v8l6.14 6.14-6.14 6.14v8l6.14 6.14-6.14 6.14v8l6.14 6.14-6.14 6.14v8l6.14 6.14-6.14 6.14v8l6.14 6.14-6.14 6.14v8l3.35 3.35h4.28l-7.35-7.34 8-8 7.25 7.25v-4.34l-5.11-5.11 5.11-5.11v-4.28l-7.25 7.25-8-8 8-8 7.25 7.25v-4.28l-5.11-5.11 5.11-5.11v-4.28l-7.25 7.25-8-8 8-8 7.25 7.25v-4.28l-5.11-5.11 5.11-5.11v-4.28l-7.25 7.25-8-8 8-8 7.25 7.25v-4.28l-5.11-5.11 5.11-5.11v-4.28l-7.25 7.25-8-8 8-8 7.26 7.29v-4.28l-5.11-5.11 5.11-5.11v-4.3l-7.25 7.25-8-8 8-8 7.25 7.25v-4.28l-5.11-5.11 5.11-5.11v-4.28l-7.25 7.28-8-8 8-8 7.25 7.25v-4.25l-5.11-5.11 5.11-5.11v-4.28l-7.25 7.25-8-8 8-8 7.25 7.25v-4.28l-5.11-5.11 5.11-5.11v-4.28l-7.25 7.25-8-8 8-8 7.25 7.25v-4.28l-5.11-5.11 5.11-5.11v-4.28l-7.25 7.25-8-8 8-8 7.25 7.25v-4.28l-5.11-5.11 5.11-5.05v-4.28l-7.25 7.25-8-8 8-8 7.25 7.25v-4.32l-5.11-5.11 5.11-5.11v-4.28l-7.25 7.25-8-8 8-8 7.25 7.25v-4.28l-5.11-5.11 5.11-5.11v-4.28l-7.25 7.25-8-8 8-8 7.25 7.25v-4.28l-5.11-5.11 5.11-5.11v-4.28l-7.25 7.25-8-8 8-8 7.25 7.25v-4.28l-5.11-5.06 5.11-5.11v-4.29l-7.25 7.25-8-8 8-8 7.25 7.25v-4.28l-5.11-5.11 5.11-5.11v-4.28l-7.25 7.25-8-8 8-8 7.25 7.25v-4.28l-5.11-5.11 5.11-5.11v-4.28l-7.25 7.25-8-8 8-8 7.25 7.25v-4.28l-5.11-5.11 5.11-5.11v-4.28l-7.25 7.24-8-8 8-8 7.25 7.3v-4.3l-5.11-5.11 5.11-5.09v-4.28l-7.25 7.25-8-8 8-8 7.25 7.23v-4.28l-5.11-5.11 5.11-5.11v-4.28l-7.25 7.25-8-8 8-8 7.25 7.25v-4.28l-5.11-5.11 5.11-5.11v-4.22l-7.25 7.25-8-8 8-8 7.25 7.24v-4.28l-5.11-5.11 5.11-5.1v-4.29l-7.25 7.29-7.65-7.65h26.46V66.9zm-25.46-45.5l.44-1.8h20.47v24.86h-26.51zm-4.51 41.48a10.18 10.18 0 1 1 10.17 10.17 10.17 10.17 0 0 1-10.17-10.18zm32.23-2.55l-2.26 2.26v-4.48z" fill="#4c4c4c" fill-rule="evenodd"/><path d="M527.95 512.33h5.78V79.64h-5.78v432.69zm.4-311l1.42-1.42 1.42 1.42h-2.84zm1.53-138.38a10.18 10.18 0 1 0-10.18 10.17 10.17 10.17 0 0 0 10.18-10.17" fill="#6d7b89" fill-rule="evenodd"/><path d="M521.35 512.33h4.28l2.32-2.32v-4.28zm8.42-312.46l-1.42 1.42h2.83z" fill="#4c4c4c" fill-rule="evenodd"/><path d="M380.79 161.53h87.16l-43.6-26.84zm93.7 1l-.45 1.6h-99.37l-.45-1.6 50.14-30.9zm37.93 338.42V201.26h-2.2l1.42-1.42.79.79v-121h-5.77v432.7h5.77v-11.37z" fill="#6d7b89" fill-rule="evenodd"/><path fill="#6d7b89" fill-rule="evenodd" d="M424.48 114.92l.13.01.13.01.13.03.13.03.12.03.13.05.12.04.12.06.12.06.11.07.11.07.11.08.1.08.1.09.09.09.09.1.08.1.08.11.07.11.07.11.06.12.05.12.05.12.04.12.04.13.03.13.02.13.02.13.01.13v2.65l.03.01.1.03.11.04.1.03.1.04.1.04.1.03.1.04.1.04.1.05.1.04.1.05.09.04.1.05.1.05.09.05.09.05.1.05.09.05.09.05.09.06.09.05.09.06.09.06.09.06.09.06.09.06.08.06.09.06.08.07.09.06.08.07.08.07.08.06.08.07.08.07.08.07.08.07.08.08.07.07.08.07.07.08.07.08.08.07.07.08.07.08.07.08.07.08.06.08.07.08.07.08.06.09.07.08.06.09.06.08.06.09.06.09.06.09.06.08.05.09.06.1.06.09.05.09.05.09.05.09.05.1.05.09.05.1.05.1.05.09.04.1.04.1.05.1.04.1.04.1.04.1.03.1.04.1.04.1.03.11.03.1.04.1.02.11.03.1.03.11.03.1.02.11.03.11.02.11.02.1.02.11.02.11.02.11.01.11.02.11.01.11.01.11.02.11v.11l.01.12.01.11v.11l.01.11v.46l-.01.11v.11l-.01.12-.01.11v.11l-.02.11-.01.11-.01.11-.02.11-.01.11-.02.11-.02.11-.02.11-.02.11-.02.1-.03.11-.02.11-.03.1-.03.11-.03.11-.02.1-.04.1-.03.11-.03.1-.04.1-.04.1-.03.1-.04.1-.04.11-.04.1-.05.09-.04.1-.04.1-.05.1-.05.09-.05.1-.05.09-.05.1-.05.09-.05.09-.05.1-.06.09-.06.09-.05.09-.06.09-.06.09-.06.08-.06.09-.06.09-.06.08-.07.08-.06.09-.07.08-.07.08-.06.08-.07.09-.07.07-.07.08-.07.08-.08.08-.07.07-.07.08-.08.07-.07.08-.08.07-.08.07-.08.07-.08.07-.08.07-.08.07-.08.06-.08.07-.09.06-.08.07-.09.06-.08.06-.09.06-.09.06-.09.06-.09.06-.09.06-.09.05-.09.06-.09.05-.09.05-.1.06-.09.05-.09.04-.1.05-.1.05-.09.05-.1.04-.1.04-.1.05-.1.04-.1.04-.1.04-.1.04-.1.03-.1.04-.11.03-.1.03-.1.04-.11.03-.11.02-.1.03-.11.03-.1.03-.11.02-.11.02-.11.02-.1.02-.11.02-.11.02-.11.02-.11.01-.11.01-.11.02-.12.01-.11.01h-.11l-.11.01-.11.01h-.68l-.12-.01-.11-.01h-.11l-.11-.01-.11-.01-.11-.02-.11-.01-.11-.01-.11-.02-.11-.02-.11-.02-.11-.02-.11-.02-.11-.02-.1-.02-.11-.03-.11-.03-.1-.03-.11-.02-.1-.03-.11-.04-.1-.03-.1-.03-.1-.04-.11-.03-.1-.04-.1-.04-.1-.04-.1-.04-.1-.05-.1-.04-.09-.04-.1-.05-.1-.05-.09-.05-.1-.04-.09-.05-.09-.06-.1-.05-.09-.05-.09-.06-.09-.05-.09-.06-.09-.06-.09-.06-.09-.06-.08-.06-.09-.06-.08-.06-.09-.07-.08-.06-.09-.07-.08-.06-.08-.07-.08-.07-.08-.07-.08-.07-.07-.07-.08-.07-.08-.08-.07-.07-.08-.08-.07-.07-.07-.08-.07-.08-.07-.08-.07-.07-.07-.09-.07-.08-.07-.08-.06-.08-.07-.09-.06-.08-.07-.08-.06-.09-.06-.09-.06-.08-.06-.09-.05-.09-.06-.09-.06-.09-.05-.09-.06-.1-.05-.09-.05-.09-.05-.1-.05-.09-.05-.1-.05-.09-.04-.1-.05-.1-.04-.1-.04-.09-.04-.1-.04-.1-.04-.1-.04-.11-.04-.1-.03-.1-.04-.1-.03-.11-.03-.1-.03-.1-.03-.11-.03-.11-.03-.1-.02-.11-.02-.11-.03-.1-.02-.11-.02-.11-.02-.11-.02-.11-.01-.11-.02-.11-.01-.11-.01-.11-.01-.11-.01-.11-.01-.11-.01-.12v-.22l-.01-.12v-.09l.01-.13v-.13l.02-.14.02-.13.03-.12.04-.13.04-.12.05-.13.05-.12.06-.11.07-.12.07-.11.08-.11.08-.1.09-.1.09-.09.1-.09.1-.08.1-.08.11-.07.12-.07.11-.06.12-.06.12-.05.13-.04.12-.04.13-.03.13-.02.13-.02.13-.01.13-.01.14.01.13.01.13.01.13.02.12.03.13.04.13.04.12.05.12.05.12.06.11.07.11.07.1.08.11.08.1.09.09.09.09.1.08.1.08.1.07.11.07.12.06.11.06.12.05.12.04.13.04.12.03.13.02.13.02.13.01.13.01.13v.26l.01.04v.05l.01.05v.04l.01.05v.04l.01.05v.04l.01.05.01.04.01.04.01.05.01.04.01.05.01.04.01.04.01.05.02.04.01.04.01.04.01.04.02.05.02.04.01.04.02.04.01.04.02.04.02.04.02.04.01.04.02.04.02.04.02.04.02.04.02.04.02.04.02.03.03.04.02.04.02.04.03.03.02.04.02.04.03.03.02.04.03.03.03.04.02.03.03.04.02.03.03.04.03.03.03.03.03.04.03.03.03.03.03.03.03.03.03.04.03.03.03.03.03.03.03.03.04.03.03.02.03.03.04.03.03.03.04.02.03.03.04.03.03.02.04.03.03.02.04.03.03.03.04.02.04.02.03.02.04.03.04.02.04.02.04.02.04.02.03.02.04.02.04.02.04.02.04.02.04.02.04.01.05.02.03.02.05.01.04.02.04.01.04.02.04.01.04.02.05.01.04.01.04.01.05.01.04.02.04.01h.05l.04.01.05.01.04.01.05.01.04.01h.05l.04.01h.05l.04.01h.05l.04.01h.1l.04.01h.24l.1-.01h.09l.05-.01h.04l.05-.01h.04l.05-.01h.04l.05-.01.04-.01.05-.01.04-.01.05-.01h.04l.04-.01.09-.03.04-.01.05-.01.04-.01.04-.02.04-.01.04-.02.05-.01.04-.02.12-.05.04-.01.04-.02.04-.02.04-.02.04-.02.08-.04.04-.02.11-.06.04-.03.04-.02.03-.02.04-.02.04-.03.03-.03.07-.04.04-.03.03-.03.04-.03.03-.02.04-.03.03-.03.03-.02.04-.03.03-.03.03-.03.03-.03.07-.06.06-.07.03-.03.03-.03.02-.03.06-.07.03-.03.03-.04.02-.03.03-.04.03-.03.02-.04.03-.03.05-.07.02-.04.03-.04.02-.03.02-.04.03-.04.02-.04.02-.03.02-.04.02-.04.02-.04.02-.04.02-.04.02-.04.02-.04.02-.04.01-.04.04-.08.03-.08.01-.04.02-.05.01-.04.01-.04.02-.04.01-.04.01-.05.01-.04.02-.09.01-.04.01-.05.01-.04.01-.04.01-.05.01-.04v-.05l.01-.04v-.05l.01-.04v-.05l.01-.05v-.04l.01-.1v-.28l-.01-.05v-.09l-.01-.05v-.04l-.01-.05V128l-.01-.05v-.04l-.01-.05-.01-.04-.01-.05-.01-.04-.01-.05-.01-.04-.01-.04-.01-.05-.01-.04-.01-.04-.01-.05-.02-.04-.01-.04-.01-.04-.02-.04-.01-.05-.02-.04-.01-.04-.02-.04-.02-.04-.01-.04-.02-.04-.02-.04-.02-.04-.02-.04-.02-.04-.02-.04-.02-.04-.02-.03-.02-.04-.02-.04-.03-.04-.02-.03-.02-.04-.03-.04-.02-.03-.03-.04-.02-.04-.03-.03-.02-.04-.03-.03-.03-.04-.02-.03-.03-.03-.03-.04-.03-.03-.03-.03-.02-.04-.03-.03-.03-.03-.04-.03-.02-.03-.04-.03-.03-.04-.03-.02-.03-.03-.03-.03-.04-.03-.03-.03-.03-.03-.04-.03-.03-.02-.04-.03-.03-.03-.04-.02-.03-.03-.04-.02-.03-.03-.04-.02-.04-.03-.03-.02-.04-.02-.04-.03-.04-.02-.04-.02-.03-.02-.04-.02-.04-.02-.04-.02-.04-.02-.04-.02-.04-.02-.04-.01-.04-.02-.04-.02-.04-.02-.04-.01-.04-.02-.05-.01-.04-.02-.04-.01-.04-.01-.04-.02-.05-.01-.04-.01-.04-.01-.05-.01-.04-.01-.04-.01-.05-.01-.04-.01-.05-.01-.04-.01h-.05l-.04-.01-.05-.01h-.04l-.05-.01h-.04l-.05-.01h-.14l-.05-.01h-.05l-2.64-.01v-7.44l.01-.13.02-.13.02-.13.03-.13.04-.13.04-.12.05-.12.06-.12.06-.12.06-.11.08-.11.07-.11.09-.1.08-.1.1-.09.1-.09.1-.08.1-.08.11-.07.12-.07.11-.06.12-.06.12-.04.13-.05.13-.03.12-.03.13-.03.13-.01.14-.01.13-.01.13.01"/><path fill="#4c4c4c" d="M420.06 115.75h8.57v3.51h-8.57z"/><path d="M420.07 81.13h8.57v-3.51h-8.57v3.51zm-3.37 34.62h15.32v-3.51h-15.33v3.51z" fill="#4c4c4c" fill-rule="evenodd"/><path fill="#4c4c4c" d="M416.69 74.11h15.32v3.51h-15.32z"/><path fill="#6d7b89" d="M422.25 81.13h4.24v31.11h-4.24z"/><rect x="365.72" y="153.88" width="112.96" height="93.21" rx="1.87" ry="1.87" fill="#fff"/><path d="M478.69 161.72v-6a1.87 1.87 0 0 0-1.87-1.87H367.59a1.87 1.87 0 0 0-1.87 1.87v6h113z" fill="#6d7b89" fill-rule="evenodd"/><path d="M371.84 157.8a1.93 1.93 0 1 1-1.93-1.93 1.93 1.93 0 0 1 1.93 1.93" fill="#c2292e" fill-rule="evenodd"/><path d="M378.41 157.8a1.93 1.93 0 1 1-1.93-1.93 1.93 1.93 0 0 1 1.93 1.93" fill="#e5aa48" fill-rule="evenodd"/><path d="M384.95 157.8a1.93 1.93 0 1 1-1.93-1.93 1.93 1.93 0 0 1 1.93 1.93" fill="#8ab544" fill-rule="evenodd"/><path fill="#cfd1d9" d="M365.72 161.72h112.96v11.27H365.72z"/><path d="M441.24 170.55h28.3v-6h-28.3v6zm-33.18 0h28.3v-6h-28.3v6zm-33.18 0h28.3v-6h-28.3v6z" fill="#aeb8bf" fill-rule="evenodd"/><path fill="#456c37" d="M374.88 179.28h28.3v19.06h-28.3z"/><path fill="#9d9e4c" d="M408.05 179.28h28.3v19.06h-28.3z"/><path fill="#e9b658" d="M441.23 179.28h28.3v19.06h-28.3z"/><path d="M441.24 211.33h28.3v-1.52h-28.3v1.52zm0-4h28.3v-1.52h-28.3v1.52zm0-4h28.3v-1.4h-28.3v1.52zm-33.18 8h28.3v-1.52h-28.3v1.52zm0-4h28.3v-1.52h-28.3v1.52zm0-4h28.3v-1.4h-28.3v1.52zm-33.18 8h28.3v-1.52h-28.3v1.52zm0-4h28.3v-1.52h-28.3v1.52zm0-4h28.3v-1.4h-28.3v1.52z" fill="#aeb8bf" fill-rule="evenodd"/><path fill="#77abd6" d="M374.88 215.01h28.3v19.06h-28.3z"/><path fill="#e9b658" d="M408.05 215.01h28.3v19.06h-28.3z"/><path fill="#456c37" d="M441.23 215.01h28.3v19.06h-28.3z"/><path d="M441.24 243.13h28.3v-1.52h-28.3v1.52zm0-4h28.3v-1.52h-28.3v1.52zm-33.18 4h28.3v-1.52h-28.3v1.52zm0-4h28.3v-1.52h-28.3v1.52zm-33.18 4h28.3v-1.52h-28.3v1.52zm0-4h28.3v-1.52h-28.3v1.52z" fill="#aeb8bf" fill-rule="evenodd"/><path d="M210.44 399.52h271.34v-21.28H210.44v21.29zm-32.55 0h11.06v-21.28h-11.06v21.29z" fill="#99bfb2" fill-rule="evenodd"/><path fill="#fff" d="M247.83 50.93h79.35v66.78h-79.35z"/><path d="M252.27 112.72h71v-2.39h-71v2.35zm0-7.52h71v-2.35h-71v2.35zm0-7.52h71v-2.35h-71v2.35zm0-7.52h71V87.8h-71v2.35zm0-7.52h71v-2.36h-71v2.35zm0-7.52h39.41v-2.36h-39.41v2.35zm0-7.52h39.41v-2.37h-39.41v2.35zm0-7.52h39.41v-2.37h-39.41v2.35z" fill="#aeb8bf" fill-rule="evenodd"/><path fill="#e9b658" d="M295.55 57.71h27.71v17.65h-27.71z"/><path fill="#4c4c4c" d="M240.81 64.36h3.51v8.56h-3.51zm3.51-3.37h3.51V76.3h-3.51z"/><path fill="#6d7b89" d="M232.39 66.55h8.41v4.24h-8.41z"/><path fill="#4c4c4c" d="M330.69 64.36h3.51v8.56h-3.51zm-3.51-3.37h3.51V76.3h-3.51z"/><path d="M232.4 70.62h4.24V0h-4.24v70.62zm101.81.17h8.41v-4.24h-8.41v4.24z" fill="#6d7b89" fill-rule="evenodd"/><path fill="#6d7b89" d="M338.41 0h4.24v70.61h-4.24z"/><path d="M439.69 423.51c0 2.54-1.7 4.6-3.79 4.6s-3.79-2.06-3.79-4.6 1.7-4.6 3.79-4.6 3.79 2.06 3.79 4.6" fill="#cca66a" fill-rule="evenodd"/><path d="M448.8 446.81a22.11 22.11 0 0 1-7.41-1.34c-10.42-3.69-10.89-15.54-9.68-21.29l7.85 1.65-3.92-.82 3.93.81c-.08.4-1.91 9.84 4.5 12.11 7.21 2.55 11.19-1.36 11.23-1.4l5.82 5.51a17.65 17.65 0 0 1-12.32 4.79" fill="#e5aa48" fill-rule="evenodd"/><path d="M527.62 439.79a8.59 8.59 0 0 1-10.48 6.12l-5.3-1.39a8.582 8.582 0 1 1 4.36-16.6l5.3 1.39a8.58 8.58 0 0 1 6.12 10.48" fill="#d47aa7" fill-rule="evenodd"/><path fill="#ccc" d="M502.344 442.012l4.357-16.597 13.466 3.534-4.357 16.596z"/><path fill="#f2f2f2" d="M373.1 408.084l4.357-16.597 129.27 33.937-4.358 16.598z"/><path fill="#e6e6e6" d="M373.607 400.75l1.83-7.1 129.64 33.414-1.83 7.1z"/><path d="M516.65 445.68a.832.832 0 0 1-1.61-.42l4.32-16.41a.832.832 0 0 1 1.61.42zm-13.46-3.54a.832.832 0 0 1-1.61-.42l4.31-16.39a.832.832 0 1 1 1.61.42z" fill="#9a9a99" fill-rule="evenodd"/><path fill="#eec887" fill-rule="evenodd" d="M373.07 408.18l-17.48-13.56 21.89-3.23-4.41 16.79"/><path fill="#f2f2f2" fill-rule="evenodd" d="M363.02 393.52l-7.43 1.1 5.93 4.6 1.5-5.7"/><path fill="#eec887" d="M451.94 432.34h3.96v7.43h-3.96z"/><path d="M462.42 411.78a8.87 8.87 0 0 0-12.19 2.92l-1.77 2.89-.72-.44a1.24 1.24 0 1 0-1.29 2.11l.72.44-.47.77c-2.56 4.17-4.07 7.9.11 10.46s12.45 3 15-1.2l3.54-5.77a8.86 8.86 0 0 0-2.93-12.18" fill="#eec887" fill-rule="evenodd"/><path d="M456.72 405.54s-7 2.2-3.87 7 8.72 4.63 8.92 6.71l-4.41 7.19.9.55s2-4.3 3.79-1.64-2.63 5.26-4.08 3.36c0 0-3.3 1.4-3.3 4.16 0 0 4.18 4 7.76-1.67s9.35-12.45 4.81-14.7c0 0 .18-5.69-6.87-7.35s-3.66-3.6-3.66-3.6" fill="#764d25" fill-rule="evenodd"/><path d="M470.2 503.06s4.83 3.8 4.51 5.94l-5.7 3.3h-9.35s-2.53-5.47 4.86-6.6z" fill="#fff" fill-rule="evenodd"/><path d="M461.02 479.66s-1.27 18.81 10.14 23.88c0 0-2.94 4.78-10.18 3.18 0 0-10.88-4-11.52-23.29z" fill="#7f813d" fill-rule="evenodd"/><path d="M444.8 506.41s1.17 4.11-.29 5.87h-14.95s-1.89-5.7 4.28-5.57z" fill="#fff" fill-rule="evenodd"/><path d="M462.52 471.08s2.06 12.51-6.49 15.36l-10.86 4.59v15.69s-6.25 3.34-11.32 0c0 0-1-19.12 2.53-22.94s9.66-12.69 9.66-12.69h16.48z" fill="#9d9e4c" fill-rule="evenodd"/><path d="M463.78 474.55v-27.77c0-7.48-4.5-11.32-10.06-11.32s-10.06 3.84-10.06 11.32v27.77h20.12z" fill="#e9b658" fill-rule="evenodd"/><path d="M432.68 424.8c0 3.12-2.08 5.65-4.65 5.65s-4.66-2.53-4.66-5.65 2.08-5.65 4.66-5.65 4.65 2.53 4.65 5.65" fill="#eec887" fill-rule="evenodd"/><path d="M443.87 453.41a27.13 27.13 0 0 1-9.1-1.65c-12.79-4.53-13.37-19.08-11.88-26.14l9.63 2-4.82-1 4.82 1c-.1.49-2.34 12.08 5.53 14.87 8.85 3.13 13.74-1.67 13.78-1.73l7.12 6.77a21.67 21.67 0 0 1-15.12 5.88" fill="#e9b658" fill-rule="evenodd"/><path fill="#eec887" d="M207.47 432.34h3.96v7.43h-3.96z"/><path d="M200.33 506.41s1.17 4.11-.29 5.87H185.1s-1.89-5.7 4.28-5.57z" fill="#fff" fill-rule="evenodd"/><path d="M218.05 471.08s2.06 12.51-6.49 15.36l-10.86 4.59v15.69s-6.25 3.34-11.32 0c0 0-1-19.12 2.53-22.94s9.66-12.69 9.66-12.69h16.48z" fill="#e9b658" fill-rule="evenodd"/><path d="M218.19 506.41s-1.17 4.11.29 5.87h14.94s1.89-5.7-4.28-5.57z" fill="#fff" fill-rule="evenodd"/><path d="M200.47 471.08s-2.06 12.51 6.49 15.36l10.86 4.59v15.69s6.25 3.34 11.32 0c0 0 1-19.12-2.53-22.94s-9.66-12.7-9.66-12.7h-16.48z" fill="#e9b658" fill-rule="evenodd"/><path d="M219.32 474.55v-27.77c0-7.48-4.5-11.32-10.06-11.32s-10.06 3.84-10.06 11.32v27.77h20.12z" fill="#7da9d2" fill-rule="evenodd"/><path d="M198.69 412.09c-1.7 2.62-4.82 3.6-7 2.2s-2.53-4.65-.83-7.27 4.82-3.6 7-2.2 2.53 4.65.83 7.27" fill="#eec887" fill-rule="evenodd"/><path d="M192.49 442.18a27.13 27.13 0 0 1-6.73-6.33c-8.27-10.76-.82-23.28 4.27-28.4l7 6.94-3.49-3.47 3.5 3.46c-.35.36-8.55 8.86-3.46 15.48 5.72 7.44 12.44 6.07 12.5 6.05l2.31 9.56a21.68 21.68 0 0 1-15.89-3.29" fill="#7da9d2" fill-rule="evenodd"/><path d="M219.83 412.09c1.7 2.62 4.82 3.6 7 2.2s2.53-4.65.83-7.27-4.82-3.6-7-2.2-2.53 4.65-.83 7.27" fill="#eec887" fill-rule="evenodd"/><path d="M226.03 442.18a27.13 27.13 0 0 0 6.73-6.33c8.27-10.76.82-23.28-4.27-28.4l-7 6.94 3.49-3.47-3.5 3.46c.35.36 8.55 8.86 3.46 15.48-5.72 7.44-12.44 6.07-12.5 6.05l-2.31 9.56a21.68 21.68 0 0 0 15.89-3.29" fill="#7da9d2" fill-rule="evenodd"/><path fill="#7b998f" fill-rule="evenodd" d="M223.83 391.8l-.75-.75-.68.41-19.16-4.54-4.55 19.15-1.09.67.75.76 4.39 1.04 16.21 3.84 4.88-20.58"/><path fill="#99bfb2" d="M197.594 406.76l4.88-20.58 20.588 4.882-4.88 20.58z"/><path d="M202.51 404.53a.36.36 0 0 0 .26.46l4.25 1 .83-3.48a.51.51 0 0 1 .63-.46l1.76.42a.56.56 0 0 1 .48.72l-.77 3.48 4.16 1a.45.45 0 0 0 .56-.36l1.52-6.42-4.63-6.6-7.46 3.74z" fill="#fff" fill-rule="evenodd"/><path d="M218.15 394.66l-1.66-.39-.47 2 1.32 1.8zm-16.26 2.31s.3 1.1 1.68.4l8.27-4.19 5.09 7.32c1.11 1.28 1.84.43 1.84.43l-6.51-9.48z" fill="#fff" fill-rule="evenodd"/><path d="M217.95 411.78a8.87 8.87 0 0 0-12.19 2.92l-1.81 2.89-.72-.44a1.24 1.24 0 1 0-1.29 2.11l.72.44-.48.77c-2.56 4.17-4.07 7.9.11 10.46s12.45 3 15-1.2l3.54-5.77a8.86 8.86 0 0 0-2.88-12.18" fill="#eec887" fill-rule="evenodd"/><path d="M212.26 405.54s-7 2.2-3.87 7 8.72 4.63 8.92 6.71l-4.36 7.18.91.55s2-4.3 3.79-1.64-2.63 5.26-4.08 3.36c0 0-3.3 1.4-3.3 4.16 0 0 4.18 4 7.76-1.67s9.35-12.45 4.81-14.7c0 0 .18-5.69-6.87-7.35s-3.66-3.6-3.66-3.6" fill="#764d25" fill-rule="evenodd"/></svg>