<svg width="623" height="592" viewBox="0 0 623 592" xmlns="http://www.w3.org/2000/svg" xmlns:xlink="http://www.w3.org/1999/xlink"><title>Page 1</title><defs><path id="a" d="M0 591.954529h622.63425V0H0v591.954529z" /></defs><g fill="none" fill-rule="evenodd"><path d="M521.035988 494.925204c0 10.912213-8.850625 19.755486-19.768 19.755486H163.731487c-10.917375 0-19.767125-8.843273-19.767125-19.755486V264.60485c0-10.910464 8.84975-19.754612 19.767125-19.754612h337.536501c10.917375 0 19.768 8.844148 19.768 19.754612v230.320354z" fill="#989999"/><path d="M143.964013 461.645885v33.279669c0 10.911338 8.84975 19.754611 19.768 19.754611h337.536499c10.9165 0 19.767125-8.843273 19.767125-19.754611v-33.279669H143.964013z" fill="#313533"/><mask id="b" fill="#fff"><use xlink:href="#a"/></mask><path d="M156.926875 461.646322H508.07225V256.946363H156.926875v204.699959z" fill="#C2E2D7" mask="url(#b)"/><path d="M365.391075 514.680515h-65.7825l-17.5 70.824886h100.7825l-17.5-70.824886z" fill="#989999" mask="url(#b)"/><path d="M412.73855 585.505489c0 3.553749-2.883125 6.434174-6.43825 6.434174H258.70005c-3.556 0-6.43825-2.880425-6.43825-6.434174 0-3.552875 2.88225-6.434174 6.43825-6.434174H406.3003c3.555125 0 6.43825 2.881299 6.43825 6.434174" fill="#313533" mask="url(#b)"/><path d="M310.35795 413.324169v3.935007h-3.9375" stroke="#FFF" stroke-width="3" mask="url(#b)"/><path d="M295.381713 417.259176h-110.3865" stroke="#FFF" stroke-width="3" stroke-dasharray="9.462,12.616" mask="url(#b)"/><path d="M179.4758 417.259176h-3.9375v-3.935007" stroke="#FFF" stroke-width="3" mask="url(#b)"/><path d="M175.5383 402.077656V289.616893" stroke="#FFF" stroke-width="3" stroke-dasharray="9.646000000000001,12.861" mask="url(#b)"/><path d="M175.5383 283.993243v-3.935007h3.9375" stroke="#FFF" stroke-width="3" mask="url(#b)"/><path d="M190.514625 280.058236h110.3865" stroke="#FFF" stroke-width="3" stroke-dasharray="9.462,12.616" mask="url(#b)"/><path d="M306.42045 280.058236h3.9375v3.935007" stroke="#FFF" stroke-width="3" mask="url(#b)"/><path d="M310.35795 295.239407v112.461636" stroke="#FFF" stroke-width="3" stroke-dasharray="9.646000000000001,12.861" mask="url(#b)"/><path d="M489.4617 413.324169v3.935007h-3.9375" stroke="#FFF" stroke-width="3" mask="url(#b)"/><path d="M474.485813 417.259176H364.098438" stroke="#FFF" stroke-width="3" stroke-dasharray="9.462,12.616" mask="url(#b)"/><path d="M358.579112 417.259176h-3.937499v-3.935007" stroke="#FFF" stroke-width="3" mask="url(#b)"/><path d="M354.641613 402.077656V289.616893" stroke="#FFF" stroke-width="3" stroke-dasharray="9.646000000000001,12.861" mask="url(#b)"/><path d="M354.641613 283.993243v-3.935007h3.937499" stroke="#FFF" stroke-width="3" mask="url(#b)"/><path d="M369.617413 280.058236h110.387374" stroke="#FFF" stroke-width="3" stroke-dasharray="9.462,12.616" mask="url(#b)"/><path d="M485.5242 280.058236h3.9375v3.935007" stroke="#FFF" stroke-width="3" mask="url(#b)"/><path d="M489.4617 295.239407v112.461636" stroke="#FFF" stroke-width="3" stroke-dasharray="9.646000000000001,12.861" mask="url(#b)"/><path d="M96.754175 161.50547H228.24305l-18.92275-10.975173-3.131625-1.816224-8.883-5.152237H91.5908l-1.61875-6.6694h107.333625l42.4375 24.613034v6.6694H97.564425l-1.61875-6.6694h.8085zm-48.8872125-24.612597v6.669401h-41.19325v17.943633h41.19325v6.668526H.0000875v-31.28156h47.866875zm35.48615-3.334175h-4.949l-12.51775-12.509826-10.091375 12.509826h-2.678375v-2.253448l10.2795-12.744177-10.2795-10.272993v-3.463681h1.484l11.00575 10.997909 8.871625-10.997909h2.30825l.50575 2.08468-9.19625 11.401902 15.257375 15.247717z" fill="#6C7A89" mask="url(#b)"/><path d="M53.1169625 133.558698v-28.734299h23.669625l.50575 2.08468 6.468 26.649619h-30.643375zm17.6295 33.027828c-6.493375 0-11.757375-5.260667-11.757375-11.749932 0-6.490138 5.264-11.750806 11.757375-11.750806 6.493375 0 11.75825 5.260668 11.75825 11.750806 0 6.489265-5.264875 11.749932-11.75825 11.749932zm-22.8795-12.041122l-2.60925-2.606724 2.60925-2.607598v5.214322zm158.3216245-5.830807l-11.7705 11.762175-8.542625-8.538092 8.38075-8.376319h-4.949875l-5.90625 5.903386-5.907125-5.903386h-4.949l8.381625 8.376319-9.242625 9.237649-9.244375-9.237649 8.381625-8.376319h-4.949l-5.907125 5.903386-5.908-5.903386h-4.949l8.3825 8.376319-9.2435 9.237649-9.2435-9.237649 8.38075-8.376319h-4.949l-5.90625 5.903386-5.907125-5.903386h-4.949l8.381625 8.376319-9.2435 9.237649-9.2435-9.237649 8.381625-8.376319h-4.949l-5.907125 5.903386-5.908-5.903386h-4.949l8.3825 8.376319-9.244375 9.237649-7.2712495-7.267522-.77-3.171616 7.1793745-7.17483h-4.9489995l-3.196375 3.194352-.77525-3.194352-1.61875-6.6694-9.057125-37.3152381h-33.047875V144.38434l-5.08375 5.081407-5.907125-5.903386h-4.949l8.381625 8.376319-9.242625 9.237649-9.244375-9.237649 8.381625-8.376319h-4.949l-5.907125 5.903386-5.908-5.903386h-4.949l8.3825 8.376319-9.573375 9.56644h4.949l7.098875-7.093506 7.098875 7.093506h9.239125l7.098-7.093506 5.08375 5.080531v14.716054h30.569875l-8.84275 8.838026-8.38075-8.376319v4.945867l5.90625 5.903386-5.90625 5.902511v4.946741l8.38075-8.375444 9.242625 9.236774-9.242625 9.237648-8.38075-8.376319v4.946742l5.90625 5.903385-5.90625 5.902511v4.945867l8.38075-8.375444 9.242625 9.237648-9.242625 9.237648-8.38075-8.376319v4.945867l5.90625 5.903386-5.90625 5.902511v4.945867l8.38075-8.375444 9.242625 9.237648-9.242625 9.237648-8.38075-8.376319v4.945867l5.90625 5.903386-5.90625 5.902511v4.945867l8.38075-8.375445 9.242625 9.237649-9.242625 9.237648-8.38075-8.376319v4.945867l5.90625 5.903386-5.90625 5.902511v4.945867l8.38075-8.375445 9.242625 9.237649-9.242625 9.237648-8.38075-8.376319v4.945867l5.90625 5.903386-5.90625 5.902511v4.946741l8.38075-8.376319 9.242625 9.237649-9.242625 9.237648-8.38075-8.376319v4.945867l5.90625 5.903386-5.90625 5.902511v4.946741l8.38075-8.375444 9.242625 9.237648-9.242625 9.237649-8.38075-8.377194v4.946742l5.90625 5.903385-5.90625 5.902511v4.945867l8.38075-8.375444 9.242625 9.237648-9.242625 9.236774-8.38075-8.375444v4.945867l5.90625 5.902511-5.90625 5.902511v4.946741l8.38075-8.376319 9.242625 9.238523-9.242625 9.237649-8.38075-8.377194v4.946742l5.90625 5.90426-5.90625 5.902511v4.945867l8.38075-8.375445 9.242625 9.236774-9.242625 9.237649-8.38075-8.376319v4.946741l5.90625 5.902511-5.90625 5.902511v4.945867l8.38075-8.375444 9.242625 9.237648-9.242625 9.238523-8.38075-8.377194v4.945868l5.90625 5.90426-5.90625 5.902511v4.945867l8.38075-8.375445 9.242625 9.2359-9.242625 9.238523-8.38075-8.375445v4.945867l5.90625 5.902511-5.90625 5.902511v4.945867l8.38075-8.375444 9.242625 9.238522-9.242625 9.237649-8.38075-8.377194v4.945867l5.90625 5.90426-5.90625 5.902512v4.945867l8.38075-8.375445 9.242625 9.236774-9.242625 9.237648-8.38075-8.375444v4.945867l5.90625 5.902511-5.90625 5.902511v4.946742l8.38075-8.375445 9.242625 9.237648-9.242625 9.237649-8.38075-8.377194v4.946742l5.90625 5.90426-5.90625 5.902511v4.945867l8.38075-8.375445 9.242625 9.2359-9.242625 9.238523-8.38075-8.375445v4.945867l5.90625 5.902511-5.90625 5.902511v4.945867l8.38075-8.375444 9.242625 9.237648-9.242625 9.238523-8.38075-8.377193v4.945867l5.90625 5.90426-5.90625 5.902511v1.900171h3.047625l5.333125-5.329749 5.333125 5.329749h4.239375v-.71005l-7.098-7.092632 7.098-7.094381v-9.233277l-7.098-7.094381 7.098-7.093506v-9.234151l-7.098-7.092632 7.098-7.095256v-9.232402l-7.098-7.095255 7.098-7.092632v-9.234151l-7.098-7.093507 7.098-7.094381v-9.233276l-7.098-7.094381 7.098-7.092632v-9.235025l-7.098-7.092632 7.098-7.094382v-9.233276l-7.098-7.094381 7.098-7.093507v-9.23415l-7.098-7.092632 7.098-7.095256V379.9846l-7.098-7.095255 7.098-7.092632v-9.235026l-7.098-7.092632 7.098-7.094381v-9.233276l-7.098-7.094381 7.098-7.093507v-4.217453h2.547125l-1.638875-1.636089-.90825.907675v-4.287409l-7.098-7.094381 7.098-7.093507v-9.23415l-7.098-7.093507 7.098-7.093507v-9.23415l-7.098-7.093507 7.098-7.093507v-9.23415l-7.098-7.093507 7.098-7.094381v-9.233276l-7.098-7.093507 7.098-7.094381v-9.233276l-7.098-7.094381 7.098-7.093507v-4.217453h19.8625l-1.46475-6.033678-1.61875-6.669401-.259-1.06595 1.0675 1.06595h9.2391245l7.098875-7.093506 7.098875 7.093506h9.239125l7.098-7.093506 7.098 7.093506h9.239125l7.098875-7.093506 7.09975 7.093506h9.23825l7.098-7.093506 7.098875 7.093506h7.839125l10.982125-10.974298-3.131625-1.816225z" fill="#4B4B4B" mask="url(#b)"/><path d="M58.989 154.836157c0-6.489264 5.264-11.750806 11.75825-11.750806 6.4925 0 11.757375 5.261542 11.757375 11.750806 0 6.489265-5.264875 11.750807-11.757375 11.750807-6.49425 0-11.75825-5.261542-11.75825-11.750807m.124775 158.263636l1.637125 1.636963h-3.27425l1.637125-1.636963zm-4.5745 278.385158H61.2129V174.208898h-6.673625v417.276053z" fill="#6C7A89" mask="url(#b)"/><path d="M59.113775 313.099793l1.637125 1.636963h-3.27425l1.637125-1.636963z" fill="#4B4B4B" mask="url(#b)"/><path d="M85.8405625 591.484864V174.208811h-6.673625v139.79857l.90825-.907675 1.638 1.636963h-2.54625v276.748195h6.673625z" fill="#6C7A89" mask="url(#b)"/><path d="M125.296763 269.822407l55.629-34.282659 55.629 34.282659h-111.258z" stroke="#6C7A89" stroke-width="3" mask="url(#b)"/><path d="M173.7302 230.108564c0 3.971734 3.22175 7.191444 7.196 7.191444 3.97425 0 7.195125-3.21971 7.195125-7.191444 0-3.971734-3.220875-7.191445-7.195125-7.191445v-5.462665" stroke="#6C7A89" stroke-width="6" stroke-linecap="round" mask="url(#b)"/><path d="M175.9765 219.48247h9.898875v-4.056556H175.9765v4.056556zm-3.90075-4.056556h17.700375v-4.056555H172.07575v4.056555zm3.90075-40.004159h9.898875v-4.056556H175.9765v4.056556zm-3.90075-4.056556h17.700375v-4.056555H172.07575v4.056555z" fill="#4B4B4B" mask="url(#b)"/><path d="M178.5 211.370233h4.900875v-35.948478H178.5v35.948478z" fill="#6C7A89" mask="url(#b)"/><path d="M246.189475 365.612204c0 1.190122-.966875 2.157259-2.158625 2.157259h-126.21c-1.19175 0-2.158625-.967137-2.158625-2.157259V262.224695c0-1.19187.966875-2.158133 2.158625-2.158133h126.21c1.19175 0 2.158625.966263 2.158625 2.158133v103.387509z" fill="#FFF" mask="url(#b)"/><path d="M115.662313 340.577338v25.034517c0 1.190995.966 2.157258 2.158625 2.157258h126.21c1.19175 0 2.158625-.966263 2.158625-2.157258v-25.034517h-130.52725z" fill="#CFD1D9" mask="url(#b)"/><path d="M246.189475 269.13072v-6.906375c0-1.19187-.966875-2.157258-2.158625-2.157258h-126.21c-1.19175 0-2.158625.965388-2.158625 2.157258v6.906375h130.52725z" fill="#6C7A89" mask="url(#b)"/><path d="M122.725575 264.598729c0 1.229471-.9975 2.226339-2.22775 2.226339-1.23025 0-2.22775-.996868-2.22775-2.226339 0-1.229472.9975-2.22634 2.22775-2.22634 1.23025 0 2.22775.996868 2.22775 2.22634" fill="#C1272D" mask="url(#b)"/><path d="M130.319 264.598729c0 1.229471-.9975 2.226339-2.22775 2.226339-1.23025 0-2.22775-.996868-2.22775-2.226339 0-1.229472.9975-2.22634 2.22775-2.22634 1.23025 0 2.22775.996868 2.22775 2.22634" fill="#FBB03B" mask="url(#b)"/><path d="M137.912512 264.598729c0 1.229471-.9975 2.226339-2.22775 2.226339-1.23025 0-2.22775-.996868-2.22775-2.226339 0-1.229472.9975-2.22634 2.22775-2.22634 1.23025 0 2.22775.996868 2.22775 2.22634" fill="#8CC63F" mask="url(#b)"/><path d="M115.661875 282.1479h130.52725v-13.017879h-130.52725V282.1479z" fill="#CFD1D9" mask="url(#b)"/><path d="M126.23625 279.327811h32.701375v-6.888012H126.23625v6.888012z" fill="#446B34" mask="url(#b)"/><path d="M164.57525 279.327811h32.701375v-6.888012H164.57525v6.888012z" fill="#FFBD4F" mask="url(#b)"/><path d="M202.91425 279.327811h32.701375v-6.888012H202.91425v6.888012z" fill="#9C9E4C" mask="url(#b)"/><path d="M195.418913 301.334034c0 7.999432-6.489 14.48345-14.492625 14.48345-8.004501 0-14.493501-6.484018-14.493501-14.48345 0-7.998559 6.489-14.482576 14.493501-14.482576 8.003625 0 14.492625 6.484017 14.492625 14.482576" fill="#76ABD5" mask="url(#b)"/><path d="M235.615538 320.671797c0 .667202-.54075 1.20761-1.208375 1.20761H127.444537c-.667625 0-1.208375-.540408-1.208375-1.20761 0-.666328.54075-1.206736 1.208375-1.206736h106.962626c.667625 0 1.208375.540408 1.208375 1.206736m0 5.984009c0 .667203-.54075 1.20761-1.208375 1.20761H127.444537c-.667625 0-1.208375-.540407-1.208375-1.20761 0-.666328.54075-1.206735 1.208375-1.206735h106.962626c.667625 0 1.208375.540407 1.208375 1.206735m0 5.984097c0 .668077-.54075 1.208485-1.208375 1.208485H127.444537c-.667625 0-1.208375-.540408-1.208375-1.208485 0-.666328.54075-1.206735 1.208375-1.206735h106.962626c.667625 0 1.208375.540407 1.208375 1.206735" fill="#AEB8BF" mask="url(#b)"/><path d="M126.23625 362.871516h109.379375v-17.259817H126.23625v17.259817z" fill="#FFF" mask="url(#b)"/><path d="M525.880163 79.3174192H394.391288l18.92275-10.9751728 3.131625-1.8162245 8.883-5.1522364h105.714875l1.61875-6.6685258H425.328663l-42.4375 24.6121595v6.6694003h142.17875l1.61875-6.6694003h-.8085zm48.887212-24.6125967v6.6694002h41.19325V79.316982h-41.19325v6.6694003h47.866875V54.7048225h-47.866875zm-35.486237-3.334263h4.949l12.51775-12.5098257 10.091375 12.5098257h2.678375V49.117112l-10.2795-12.7441773 10.2795-10.2729926v-3.4636809h-1.484l-11.00575 10.9979084-8.871625-10.9979084h-2.30825l-.50575 2.0846794 9.19625 11.4019025-15.257375 15.2477164z" fill="#6C7A89" mask="url(#b)"/><path d="M577.3761 69.7505418l-2.608375 2.6075982v-5.2151964l2.608375 2.6075982zm-37.246125 2.8979143c0-6.4901388 5.264-11.7508065 11.757375-11.7508065 6.49425 0 11.75825 5.2606677 11.75825 11.7508065 0 6.4892644-5.264 11.7499321-11.75825 11.7499321-6.493375 0-11.757375-5.2606677-11.757375-11.7499321zm5.212375-47.9275155l.50575-2.0846794h23.669625v28.7342983h-30.64425l6.468875-26.6496189zm29.425375 52.5830665l5.082875-5.0805318 7.098 7.0935067h9.239125l7.098875-7.0935067 7.09975 7.0935067h4.949l-9.57425-9.5664402 8.383375-8.3763191H609.1946l-5.908 5.9033856-5.907125-5.9033856h-4.949l8.381625 8.3763191-9.2435 9.2376485-9.2435-9.2376485 8.381625-8.3763191h-4.949l-5.907125 5.9033856-5.082875-5.0814062V17.3895846h-33.04875l-9.057125 37.3152379-1.617875 6.6694002-.776125 3.1943516-3.1955-3.1943516h-4.949l7.179375 7.1748302-.77 3.1716159-7.272125 7.2675215-9.2435-9.2376485 8.3825-8.3763191h-4.949875l-5.907125 5.9033856-5.907125-5.9033856H498.6856l8.381625 8.3763191-9.2435 9.2376485-9.2435-9.2376485 8.3825-8.3763191h-4.949875l-5.907125 5.9033856-5.90625-5.9033856h-4.949l8.38075 8.3763191-9.242625 9.2376485-9.244375-9.2376485 8.3825-8.3763191h-4.949l-5.908 5.9033856-5.907125-5.9033856h-4.949l8.381625 8.3763191-9.2435 9.2376485-9.2435-9.2376485 8.381625-8.3763191h-4.949l-5.907125 5.9033856-5.90625-5.9033856h-4.949l8.38075 8.3763191-8.5435 8.5380916-11.7705-11.7630488-3.131625 1.817099 10.983 10.9742984h7.839125l7.098-7.0935067 7.098 7.0935067h9.239125l7.098875-7.0935067 7.09975 7.0935067h9.23825l7.098-7.0935067 7.098875 7.0935067h9.23825l7.09975-7.0935067 7.098875 7.0935067h9.23825l1.0675-1.0659498-.259 1.0659498-1.617875 6.6694003-1.46475 6.033678h19.861625v4.2174534l7.098 7.0935063-7.098 7.094381v9.233277l7.098 7.094381-7.098 7.093506v9.233277l7.098 7.094381-7.098 7.093506v9.234151l7.098 7.093507-7.098 7.093506v9.234151l7.098 7.093507-7.098 7.093506v9.234151l7.098 7.093507-7.098 7.094381v4.287409l-.90825-.907675-1.638 1.636088h2.54625v4.217454l7.098 7.094381-7.098 7.093507v9.233276l7.098 7.094381-7.098 7.093507v9.23415l7.098 7.093507-7.098 7.093507v9.23415l7.098 7.093507-7.098 7.093507v9.23415l7.098 7.093507-7.098 7.094381v9.233276l7.098 7.093507-7.098 7.094381v9.233276l7.098 7.093507-7.098 7.094381v9.233276l7.098 7.094381-7.098 7.093507v9.23415l7.098 7.093507-7.098 7.093507v9.23415l7.098 7.093507-7.098 7.093507v9.23415l7.098 7.093507-7.098 7.094381v9.233276l7.098 7.093507-7.098 7.094381v9.233276l7.098 7.094381-7.098 7.093507v9.234151l7.098 7.093506-7.098 7.093507v9.234151l7.098 7.093506-7.098 7.093507v9.234151l3.871875 3.869424h4.949l-8.491-8.485625 9.2435-9.238523 8.38075 8.375444v-4.945867l-5.90625-5.902511 5.90625-5.903385v-4.945867l-8.38075 8.376319-9.2435-9.238523 9.2435-9.236774 8.38075 8.375445v-4.945868l-5.90625-5.902511 5.90625-5.903385v-4.945867l-8.38075 8.376319-9.2435-9.237649 9.2435-9.237648 8.38075 8.375445v-4.945867l-5.90625-5.902512 5.90625-5.903385v-4.946742l-8.38075 8.377194-9.2435-9.238523 9.2435-9.236774 8.38075 8.375445v-4.946742l-5.90625-5.902511 5.90625-5.902511v-4.946742l-8.38075 8.376319-9.2435-9.236774 9.2435-9.238522 8.38075 8.376319v-4.946742l-5.90625-5.902511 5.90625-5.903385v-4.945868l-8.38075 8.37632-9.2435-9.237649 9.2435-9.237648 8.38075 8.375444v-4.945867l-5.90625-5.902511 5.90625-5.903385v-4.945867l-8.38075 8.376319-9.2435-9.237649 9.2435-9.237648 8.38075 8.375444v-4.945867l-5.90625-5.902511 5.90625-5.903385v-4.945867l-8.38075 8.376319-9.2435-9.238523 9.2435-9.236774 8.38075 8.375444v-4.945867l-5.90625-5.902511 5.90625-5.903385v-4.945867l-8.38075 8.376319-9.2435-9.237649 9.2435-9.237648 8.38075 8.375444v-4.946741l-5.90625-5.902511 5.90625-5.902511v-4.946742l-8.38075 8.376319-9.2435-9.237648 9.2435-9.236774 8.38075 8.375444v-4.946741l-5.90625-5.902511 5.90625-5.903386v-4.945867l-8.38075 8.376319-9.2435-9.237648 9.2435-9.237649 8.38075 8.375445v-4.945867l-5.90625-5.902511 5.90625-5.903386v-4.945867l-8.38075 8.376319-9.2435-9.237648 9.2435-9.237649 8.38075 8.375445v-4.945867l-5.90625-5.902511 5.90625-5.903386v-4.945867l-8.38075 8.376319-9.2435-9.237648 9.2435-9.237649 8.38075 8.375445v-4.945867l-5.90625-5.902511 5.90625-5.903386v-4.945867l-8.38075 8.376319-9.2435-9.237648 9.2435-9.237648 8.38075 8.375444v-4.945867l-5.90625-5.902511 5.90625-5.903386v-4.946741l-8.38075 8.377193-9.2435-9.237648 9.2435-9.237648 8.38075 8.375444v-4.945867l-5.90625-5.902511 5.90625-5.903385v-4.946742l-8.38075 8.376319-9.2435-9.237648 9.2435-9.237649 8.38075 8.376319v-4.946741l-5.90625-5.902511 5.90625-5.903386v-4.945867l-8.38075 8.376319-9.2435-9.237648 9.2435-9.237649 8.38075 8.375445v-4.945867l-5.90625-5.902511 5.90625-5.903386v-4.945867l-8.38075 8.376319-9.2435-9.237648 9.2435-9.237649 8.38075 8.375445v-4.945867l-5.90625-5.902511 5.90625-5.903386v-4.945867l-8.38075 8.376319-9.2435-9.237648 9.2435-9.237649 8.38075 8.375445v-4.945867l-5.90625-5.902511 5.90625-5.903386v-4.945867l-8.38075 8.376319-9.2435-9.237648 9.2435-9.237649 8.38075 8.375445v-4.945867l-5.90625-5.902511 5.90625-5.903386v-4.946741l-8.38075 8.376319-9.2435-9.237649 9.2435-9.236774 8.38075 8.375445v-4.946742l-5.90625-5.902511 5.90625-5.9033851v-4.9458671l-8.38075 8.3763192-8.843625-8.8380267h30.57075V77.3040071z" fill="#4B4B4B" mask="url(#b)"/><path d="M563.64525 72.6480189c0-6.4892644-5.264-11.7508065-11.75825-11.7508065-6.4925 0-11.757375 5.2615421-11.757375 11.7508065S545.3945 84.3988254 551.887 84.3988254c6.49425 0 11.75825-5.2615421 11.75825-11.7508065m-1.761987 159.9002491l1.637125-1.636963 1.637125 1.636963h-3.27425zm-.462-140.527858v499.933944h6.673625V92.02041h-6.673625z" fill="#6C7A89" mask="url(#b)"/><path d="M563.520475 230.911655l-1.637125 1.636963h3.27425l-1.637125-1.636963zm-9.729213 361.042874h4.949l2.681-2.678429v-4.946741l-7.63 7.62517z" fill="#4B4B4B" mask="url(#b)"/><path d="M543.467313 578.851566V232.548181h-2.54625l1.638-1.636963.90825.908549V92.0203226h-6.673625V591.954266h6.673625v-13.1027z" fill="#6C7A89" mask="url(#b)"/><path d="M386.079225 188.149667l55.629-34.282658 55.629 34.282658h-111.258z" stroke="#6C7A89" stroke-width="3" mask="url(#b)"/><path d="M434.512663 148.435736c0 3.971735 3.22175 7.191445 7.196 7.191445 3.97425 0 7.195125-3.21971 7.195125-7.191445 0-3.971734-3.220875-7.191444-7.195125-7.191444v-5.462665" stroke="#6C7A89" stroke-width="6" stroke-linecap="round" mask="url(#b)"/><path d="M436.758875 137.809205h9.898875v-4.056555h-9.898875v4.056555z" fill="#4B4B4B" mask="url(#b)"/><path d="M432.859 133.753524h17.6995v-4.056555H432.859v4.056555zm3.899875-40.0050336h9.898875V89.691935h-9.898875v4.0565554z" fill="#4B4B4B" mask="url(#b)"/><path d="M432.859 89.6928095h17.6995v-4.0565554H432.859v4.0565554z" fill="#4B4B4B" mask="url(#b)"/><path d="M439.282375 129.696969h4.900875V93.7484904h-4.900875v35.9484786z" fill="#6C7A89" mask="url(#b)"/><path d="M504.49735 283.349388c0 1.190122-.966875 2.157259-2.158625 2.157259h-126.21c-1.19175 0-2.158625-.967137-2.158625-2.157259V179.961879c0-1.19187.966875-2.158133 2.158625-2.158133h126.21c1.19175 0 2.158625.966263 2.158625 2.158133v103.387509z" fill="#FFF" mask="url(#b)"/><path d="M504.49735 186.867817v-6.906375c0-1.19187-.966875-2.157259-2.158625-2.157259h-126.21c-1.19175 0-2.158625.965389-2.158625 2.157259v6.906375h130.52725z" fill="#6C7A89" mask="url(#b)"/><path d="M381.03345 182.335913c0 1.229471-.9975 2.226339-2.22775 2.226339-1.23025 0-2.22775-.996868-2.22775-2.226339 0-1.229472.9975-2.22634 2.22775-2.22634 1.23025 0 2.22775.996868 2.22775 2.22634" fill="#C1272D" mask="url(#b)"/><path d="M388.626438 182.335913c0 1.229471-.996625 2.226339-2.226875 2.226339-1.230251 0-2.228625-.996868-2.228625-2.226339 0-1.229472.998374-2.22634 2.228625-2.22634 1.23025 0 2.226875.996868 2.226875 2.22634" fill="#FBB03B" mask="url(#b)"/><path d="M396.2203 182.335913c0 1.229471-.9975 2.226339-2.22775 2.226339-1.23025 0-2.22775-.996868-2.22775-2.226339 0-1.229472.9975-2.22634 2.22775-2.22634 1.23025 0 2.22775.996868 2.22775 2.22634" fill="#8CC63F" mask="url(#b)"/><path d="M373.96975 199.885258H504.497V186.86738H373.96975v13.017878z" fill="#CFD1D9" mask="url(#b)"/><path d="M384.544125 197.06517H417.2455v-6.888012h-32.701375v6.888012zm38.339 0H455.5845v-6.888012h-32.701375v6.888012zm38.339 0H493.9235v-6.888012h-32.701375v6.888012z" fill="#AEB8BF" mask="url(#b)"/><path d="M384.544125 229.181826H417.2455v-22.020302h-32.701375v22.020302z" fill="#446B34" mask="url(#b)"/><path d="M422.883125 229.181826H455.5845v-22.020302h-32.701375v22.020302z" fill="#9C9E4C" mask="url(#b)"/><path d="M461.222125 229.181826H493.9235v-22.020302h-32.701375v22.020302z" fill="#FFBD4F" mask="url(#b)"/><path d="M384.544125 235.085211H417.2455v-1.75239h-32.701375v1.75239zm0 4.57073H417.2455v-1.75239h-32.701375v1.75239zm0 4.571604H417.2455v-1.75239h-32.701375v1.75239zm38.339-9.142334H455.5845v-1.75239h-32.701375v1.75239zm0 4.57073H455.5845v-1.75239h-32.701375v1.75239zm0 4.571604H455.5845v-1.75239h-32.701375v1.75239zm38.339-9.142334H493.9235v-1.75239h-32.701375v1.75239zm0 4.57073H493.9235v-1.75239h-32.701375v1.75239zm0 4.571604H493.9235v-1.75239h-32.701375v1.75239z" fill="#AEB8BF" mask="url(#b)"/><path d="M384.544125 270.460928H417.2455v-22.020302h-32.701375v22.020302z" fill="#76ABD5" mask="url(#b)"/><path d="M422.883125 270.460928H455.5845v-22.020302h-32.701375v22.020302z" fill="#FFBD4F" mask="url(#b)"/><path d="M461.222125 270.460928H493.9235v-22.020302h-32.701375v22.020302z" fill="#446B34" mask="url(#b)"/><path d="M384.544125 276.363439H417.2455v-1.75239h-32.701375v1.75239zm0 4.571604H417.2455v-1.75239h-32.701375v1.75239zm38.339-4.571604H455.5845v-1.75239h-32.701375v1.75239zm0 4.571604H455.5845v-1.75239h-32.701375v1.75239zm38.339-4.571604H493.9235v-1.75239h-32.701375v1.75239zm0 4.571604H493.9235v-1.75239h-32.701375v1.75239z" fill="#AEB8BF" mask="url(#b)"/><path d="M156.92775 461.646322h12.8135v-24.599043h-12.8135v24.599043zm37.608375 0H508.07225v-24.599043H194.536125v24.599043z" fill="#99BFB2" mask="url(#b)"/><path d="M237.747125 136.009595h91.6895V58.8467238h-91.6895v77.1628712z" fill="#FFF" mask="url(#b)"/><path d="M242.87375 69.3960414h45.54375v-2.7125318h-45.54375v2.7125318zm0 8.6928685h45.54375v-2.7125318h-45.54375v2.7125318zm0 8.6928685h45.54375v-2.7125317h-45.54375v2.7125317zm0 8.6919941H324.905v-2.7125317h-82.03125v2.7125317zm0 8.6928685H324.905v-2.712532h-82.03125v2.712532zm0 8.692869H324.905v-2.712532h-82.03125v2.712532zm0 8.692868H324.905v-2.712532h-82.03125v2.712532zm0 8.692869H324.905v-2.712532h-82.03125v2.712532z" fill="#AEB8BF" mask="url(#b)"/><path d="M292.884375 87.0799645H324.905V66.6826352h-32.020625v20.3973293z" fill="#FFBD4F" mask="url(#b)"/><path d="M229.62975 84.2642482h4.059125v-9.8926086h-4.059125v9.8926086z" fill="#4B4B4B" mask="url(#b)"/><path d="M233.688 88.1616544h4.059125V70.4733589H233.688v17.6882955z" fill="#4B4B4B" mask="url(#b)"/><path d="M219.909375 81.7904402h9.720375v-4.8977725h-9.720375v4.8977725z" fill="#6C7A89" mask="url(#b)"/><path d="M333.494 84.2642482h4.059125v-9.8926086H333.494v9.8926086z" fill="#4B4B4B" mask="url(#b)"/><path d="M329.43575 88.1616544h4.059125V70.4733589h-4.059125v17.6882955z" fill="#4B4B4B" mask="url(#b)"/><path d="M337.553125 81.7904402h9.720375v-4.8977725h-9.720375v4.8977725zM219.9085 81.5936898h4.900875V0H219.9085v81.5936898z" fill="#6C7A89" mask="url(#b)"/><path d="M342.41375 81.5936898h4.900875V0h-4.900875v81.5936898z" fill="#6C7A89" mask="url(#b)"/><path d="M459.428813 489.366875c0 2.933767-1.960875 5.31226-4.38025 5.31226-2.418501 0-4.380251-2.378493-4.380251-5.31226 0-2.932892 1.96175-5.31226 4.380251-5.31226 2.419375 0 4.38025 2.379368 4.38025 5.31226" fill="#CCA66A" mask="url(#b)"/><path d="M469.9562 516.289409c-2.54975 0-5.411875-.435475-8.558375-1.548644-12.04-4.262925-12.578125-17.955876-11.181625-24.600792l9.065875 1.903669-4.5325-.952272 4.536.934783c-.093625.462582-2.205 11.36605 5.2045 13.98764 8.32825 2.947757 12.926375-1.576627 12.971-1.622972l6.726125 6.364218c-.27125.28507-5.373375 5.53437-14.231 5.53437" fill="#E6AA47" mask="url(#b)"/><path d="M561.040813 508.171663c-1.392125 5.29652-6.815376 8.461141-12.114376 7.069897l-6.12675-1.608981c-5.298125-1.391244-8.465625-6.811061-7.0735-12.106706 1.39125-5.294771 6.815375-8.460266 12.114375-7.069897l6.126751 1.608981c5.299875 1.391244 8.465625 6.811935 7.0735 12.106706" fill="#FF7BAC" mask="url(#b)"/><path d="M547.40735 514.842812l-15.5575-4.084537 5.04-19.176603 15.558375 4.084538-5.040875 19.176602z" fill="#CCC" mask="url(#b)"/><path d="M531.849588 510.758362l-149.3695-39.214535 5.040875-19.176602 149.3695 39.214535-5.040875 19.176602z" fill="#F2F2F2" mask="url(#b)"/><path d="M533.294563 505.260545l-149.369501-39.213661 2.15075-8.181317 149.369501 39.21366-2.15075 8.181318z" fill="#E6E6E6" mask="url(#b)"/><path d="M532.806663 510.897487c-.133875.512425-.660625.819356-1.17425.684691-.51275-.134665-.819875-.660207-.685125-1.173507l4.98575-18.965861c.135625-.5133.660625-.82023 1.17425-.685566.51275.134665.82075.661082.685125 1.173507l-4.98575 18.966736zm15.557675 4.08445c-.133875.512425-.660625.819356-1.173375.684691-.513625-.134665-.819875-.660207-.686-1.173507l4.98575-18.965861c.135625-.5133.660625-.82023 1.17425-.685565.513625.134664.82075.661081.685125 1.173506l-4.98575 18.966736z" fill="#999" mask="url(#b)"/><path d="M382.453575 471.644826l-20.195-15.669199 25.29275-3.725141-5.09775 19.39434z" fill="#FBCC83" mask="url(#b)"/><path d="M370.846175 454.710915l-8.58725 1.264449 6.8565 5.32013 1.73075-6.584579z" fill="#F2F2F2" mask="url(#b)"/><path d="M473.59025 508.147616H478.17v-8.585312h-4.57975v8.585312z" fill="#FBCC83" mask="url(#b)"/><path d="M485.699375 475.803517c-4.823875-2.954754-11.130875-1.441962-14.088375 3.378859l-2.04575 3.336012-.837375-.5133c-.674625-.413613-1.55575-.201997-1.96875.471327-.413.673323-.202125 1.554765.4725 1.968378l.837375.5133-.54775.894558c-2.956625 4.821696-4.699625 9.130966.125125 12.085719 4.82475 2.954754 14.38675 3.435699 17.343375-1.385997l4.090625-6.6694c2.956625-4.821696 1.44375-11.123829-3.381-14.079456" fill="#FBCC83" mask="url(#b)"/><path d="M479.118062 468.598781s-8.134 2.544638-4.47125 8.07376c3.661 5.529123 10.072125 5.348112 10.310125 7.751965l-5.095125 8.308112 1.045625.640095s2.289-4.962482 4.38375-1.900172c2.093875 3.061436-3.042375 6.076526-4.71275 3.888662 0 0-3.814125 1.612479-3.812375 4.805956 0 0 4.83525 4.581223 8.962625-1.925531 4.125625-6.505879 10.80975-14.38901 5.55625-16.988738 0 0 .210875-6.574086-7.9415-8.490872-8.150625-1.91766-4.225375-4.163237-4.225375-4.163237" fill="#754C24" mask="url(#b)"/><path d="M494.69035 581.282701s5.581625 4.390594 5.215 6.859155l-6.589625 3.812585h-10.79925s-2.92075-6.323994 5.618375-7.62517l6.5555-3.04657z" fill="#FFF" mask="url(#b)"/><path d="M484.081763 554.23897s-1.463875 21.736106 11.715375 27.590522c0 0-3.392375 5.522127-11.764375 3.676172 0 0-12.56675-4.590842-13.306125-26.908455l13.355125-4.358239z" fill="#7E803D" mask="url(#b)"/><path d="M465.335938 585.155448s1.351 4.753489-.33775 6.784827h-17.262875s-2.181375-6.5907 4.944625-6.435048l12.656-.349779z" fill="#FFF" mask="url(#b)"/><path d="M485.810412 544.329747s2.380875 14.450221-7.504 17.743385l-12.544875 5.305264v18.127268s-7.224 3.85893-13.08125 0c0 0-1.099-22.092006 2.92775-26.511457 4.027625-4.420325 11.165875-14.66446 11.165875-14.66446h19.0365z" fill="#9C9E4C" mask="url(#b)"/><path d="M487.274987 548.336458v-32.086924c0-8.637779-5.203625-13.078216-11.6235-13.078216s-11.6235 4.440437-11.6235 13.078216v32.086924h23.247z" fill="#FFBD4F" mask="url(#b)"/><path d="M451.340225 490.847575c0 3.602717-2.408 6.523367-5.378625 6.523367-2.9715 0-5.3795-2.92065-5.3795-6.523367 0-3.602718 2.408-6.524243 5.3795-6.524243 2.970625 0 5.378625 2.921525 5.378625 6.524243" fill="#FBCC83" mask="url(#b)"/><path d="M464.267825 523.908282c-3.131625 0-6.645625-.534286-10.5105-1.902794-14.784-5.232686-15.4455-22.049158-13.729625-30.209489l11.13175 2.338269-5.565875-1.169135 5.57025 1.148148c-.11375.567515-2.70725 13.957034 6.391 17.176744 10.227 3.619333 15.87425-1.935149 15.9285-1.993737l8.26 7.815799c-.3325.350653-6.598375 6.796195-17.4755 6.796195" fill="#FFBD4F" mask="url(#b)"/><path d="M191.114 508.147616h4.57975v-8.585312H191.114v8.585312z" fill="#FBCC83" mask="url(#b)"/><path d="M182.859163 585.155448s1.351 4.753489-.33775 6.784827h-17.262875s-2.181375-6.5907 4.944625-6.435048l12.656-.349779z" fill="#FFF" mask="url(#b)"/><path d="M203.333638 544.329747s2.380875 14.450221-7.504 17.743385l-12.544876 5.305264v18.127268s-7.224 3.85893-13.08125 0c0 0-1.099-22.092006 2.92775-26.511457 4.027626-4.420325 11.165876-14.66446 11.165876-14.66446h19.0365z" fill="#FFBD4F" mask="url(#b)"/><path d="M203.490088 585.155448s-1.351001 4.753489.33775 6.784827h17.262875s2.181375-6.5907-4.944625-6.435048l-12.656-.349779z" fill="#FFF" mask="url(#b)"/><path d="M183.015525 544.329747s-2.380875 14.450221 7.504 17.743385l12.544875 5.305264v18.127268s7.224 3.85893 13.08125 0c0 0 1.099-22.092006-2.92775-26.511457-4.027625-4.420325-11.165875-14.66446-11.165875-14.66446h-19.0365z" fill="#FFBD4F" mask="url(#b)"/><path d="M204.7983 548.336458v-32.086924c0-8.637779-5.203625-13.078216-11.6235-13.078216s-11.6235 4.440437-11.6235 13.078216v32.086924h23.247z" fill="#7CA9D1" mask="url(#b)"/><path d="M180.96225 476.16475c-1.962625 3.022086-5.572875 4.161489-8.064875 2.545513-2.492875-1.616851-2.921625-5.37522-.959875-8.397306 1.962625-3.02296 5.57375-4.164112 8.06575-2.547261 2.492875 1.615102 2.921625 5.376094.959 8.399054" fill="#FBCC83" mask="url(#b)"/><path d="M173.79985 510.929929c-2.62675-1.703421-5.284125-4.062677-7.7805-7.312993-9.552375-12.432875-.947625-26.898836 4.93675-32.810966l8.064875 8.016922-4.032875-4.008461 4.04775 3.994469c-.405125.412739-9.8735 10.234517-3.994375 17.885921 6.607125 8.598428 14.370125 7.00956 14.448 6.991196l2.67225 11.049501c-.47075.113678-9.237375 2.111787-18.361875-3.805589" fill="#7CA9D1" mask="url(#b)"/><path d="M205.387 476.16475c1.962625 3.022086 5.572875 4.161489 8.064875 2.545513 2.492875-1.616851 2.921625-5.37522.959-8.397306-1.96175-3.02296-5.572875-4.164112-8.064875-2.547261-2.492875 1.615102-2.921625 5.376094-.959 8.399054" fill="#FBCC83" mask="url(#b)"/><path d="M212.5494 510.929929c2.62675-1.703421 5.28325-4.062677 7.7805-7.312993 9.552375-12.432875.947625-26.898836-4.935875-32.810966l-8.06575 8.016922 4.032875-4.008461-4.04775 3.994469c.406.412739 9.8735 10.234517 3.994375 17.885921-6.607125 8.598428-14.370125 7.00956-14.448 6.991196l-2.67225 11.049501c.47075.113678 9.237375 2.111787 18.361875-3.805589" fill="#7CA9D1" mask="url(#b)"/><path d="M210.0175 452.72636l-.875-.874446-.78225.48182-22.138375-5.2493-5.252625 22.12436-1.267875.78088.875.874447 5.068875 1.202363h.000875l18.725875 4.439563 5.6455-23.779687z" fill="#7B998F" mask="url(#b)"/><path d="M203.496912 475.631863l-23.795624-5.641926 5.6455-23.779687 23.795624 5.641926-5.6455 23.779687z" fill="#99BFB2" mask="url(#b)"/><path d="M185.378638 467.431395s-.11725.432851.305375.532538c.532.126794 4.914875 1.158641 4.914875 1.158641l.963375-4.021578s.08925-.677696.734125-.525542l2.03525.482694c.76475.181885.55825.830724.55825.830724l-.959875 4.011084 4.809 1.140278c.5425.128544.64575-.417985.64575-.417985l1.761375-7.421424-5.350625-7.630417-8.62575 4.316266-1.791125 7.544721z" fill="#FFF" mask="url(#b)"/><path d="M184.653613 458.699788s.342124 1.270571 1.945125.460834l9.5585-4.843557 5.879125 8.459391c1.27925 1.478688 2.121.502807 2.121.502807l-7.5285-10.949814-11.97525 6.370339zm18.792024-2.672919l-1.918875-.454712-.546 2.32865 1.526875 2.07681.938-3.950748z" fill="#FFF" mask="url(#b)"/><path d="M203.2226 475.803517c-4.823875-2.954754-11.130875-1.441962-14.088375 3.378859l-2.04575 3.336012-.837375-.5133c-.674625-.413613-1.55575-.201997-1.96875.471327-.413.673323-.202125 1.554765.473375 1.968378l.837375.5133-.548625.894558c-2.956625 4.821696-4.699625 9.130966.125125 12.085719 4.82475 2.954754 14.387625 3.435699 17.343375-1.385997l4.090625-6.6694c2.956625-4.821696 1.44375-11.123829-3.381-14.079456" fill="#FBCC83" mask="url(#b)"/><path d="M196.641288 468.598781s-8.134 2.544638-4.47125 8.07376c3.661 5.529123 10.072125 5.348112 10.310125 7.751965l-5.095125 8.308112 1.045625.640095s2.289-4.962482 4.38375-1.900172c2.093875 3.061436-3.042375 6.076526-4.71275 3.888662 0 0-3.814125 1.612479-3.812375 4.805956 0 0 4.83525 4.581223 8.962625-1.925531 4.125625-6.505879 10.80975-14.38901 5.55625-16.988738 0 0 .21-6.574086-7.9415-8.490872-8.150625-1.91766-4.225375-4.163237-4.225375-4.163237" fill="#754C24" mask="url(#b)"/></g></svg>