<svg viewBox="0 0 707 629" xmlns="http://www.w3.org/2000/svg" fill-rule="evenodd" clip-rule="evenodd" stroke-miterlimit="10"><path d="M237.276 371.091l-148.543 65.07-53.139 53.463L.025 628.371h352.749v-257.28H237.276z" fill="#009fba" fill-rule="nonzero"/><path d="M352.775 371.091v257.28h353.45l-35.569-138.747-53.139-53.463-148.542-65.07h-116.2z" fill="#0475a5" fill-rule="nonzero"/><path d="M462.096 371.177H352.774v129.02h6.476l22.634-19.756 88.832-82.864-8.62-26.4z" fill="#00a4c1" fill-rule="nonzero"/><path d="M250.593 371.177l-15.823 26.4 88.453 82.864 22.634 19.756h6.917v-129.02H250.593z" fill="#00bac8" fill-rule="nonzero"/><path d="M260.154 371.924l-14.279 19.027 79.856 76.405 20.869 18.217h6.175V371.924h-92.621z" fill="#fbc2aa" fill-rule="nonzero"/><path d="M452.037 371.924h-99.263v113.649h6.176l20.869-18.217 79.85-76.405-7.632-19.027z" fill="#d58f9d" fill-rule="nonzero"/><path d="M237.098 371.277l-148.543 65.07-53.138 53.463-5.196 20.267 58.905-53.266 148.543-65.07h115.106v-20.464H237.098z" fill="#00b7c9" fill-rule="nonzero"/><path d="M670.478 489.81l-53.139-53.462-148.543-65.071H352.775v20.464h116.592l148.543 65.071 57.418 51.92-4.85-18.922z" fill="#0389af" fill-rule="nonzero"/><path d="M251.059 371.175l-13.044 20.565h114.76v-20.565H251.059z" fill="#00bac8" fill-rule="nonzero"/><path d="M461.907 371.175H352.775v20.565h116.272l-7.14-20.565z" fill="#00a4c1" fill-rule="nonzero"/><path d="M339.043 628.371h13.559V493.817l-13.559-.086v134.64z" fill="#00bac8" fill-rule="nonzero"/><path d="M352.602 493.819V628.37h13.909V493.73l-13.909.089z" fill="#00a4c1" fill-rule="nonzero"/><path d="M452.037 371.168h-99.263v20.573h106.077l-6.814-20.573z" fill="#a15f98" fill-rule="nonzero"/><path d="M260.154 371.168l-13.455 20.573h106.076v-20.573h-92.621z" fill="#c37f9b" fill-rule="nonzero"/><path d="M352.366 368.351h-47.445l-28.463-68.688.125 92.078 44.247 50.588h31.616v-73.978h-.08z" fill="#f9b3a4" fill-rule="nonzero"/><path d="M399.973 368.351h-47.527v73.978h31.617l40.467-50.588 7.685-92.078-32.242 68.688z" fill="#c37f9b" fill-rule="nonzero"/><path d="M304.707 380.3l37.965 61.824h10.103V380.3h-48.068z" fill="#fbc2aa" fill-rule="nonzero"/><path d="M352.446 368.318v73.767h11.91l44.757-73.767h-56.667z" fill="#d58f9d" fill-rule="nonzero"/><path d="M325.54 380.328l-.009 9.309 21.521 52.692h5.723v-62.001H325.54z" fill="#fbc2aa" fill-rule="nonzero"/><path d="M384.555 368.351h-32.108v73.978h6.748l25.369-62.866-.009-11.112z" fill="#d58f9d" fill-rule="nonzero"/><path d="M616.946 436.348l.14.14.06-.14h-.2zm-39.223 90.773l4.671 101.25h123.803l-36.112-138.56-52.999-53.323-39.363 90.633z" fill="#045190" fill-rule="nonzero"/><path d="M88.161 436.348l-53.138 53.463L0 628.371h123.521l4.671-101.25-39.424-90.773h-.607z" fill="#00bac8" fill-rule="nonzero"/><path d="M350.754 528.538l-3.552 2.581-1.357 4.176 1.357 4.176 3.552 2.582h1.846v-13.515h-1.846z" fill="#009fba" fill-rule="nonzero"/><path d="M358.348 531.119l-3.552-2.581H352.6v13.514h2.196l3.552-2.581 1.357-4.176-1.357-4.176z" fill="#0475a5" fill-rule="nonzero"/><path d="M350.754 583.233l-3.552 2.581-1.357 4.176 1.357 4.176 3.552 2.581h1.846v-13.514h-1.846z" fill="#009fba" fill-rule="nonzero"/><path d="M358.348 585.814l-3.552-2.582H352.6v13.515h2.196l3.552-2.581 1.357-4.176-1.357-4.176z" fill="#0475a5" fill-rule="nonzero"/><path d="M407.962 91.508V54.227v37.281zm66.578 47.596l-12.295-68.956-38.123-49.273-4.537-7.595v8.284L412.31 9.74v8.189L371.065 4.037 346.197 9.74 348.121 0l-17.805 11.336-14.056-4.499 4.44 6.443h-29.908l11.497 4.092-44.876 24.355-27.269 53.424-4.394 70.157 5.847 36.72 16.644 21.719 208.531-.171 18.854-27.411-1.086-57.061z" fill="#01639d" fill-rule="nonzero"/><path d="M427.488 356.3l2.511-30.088-37.938 36.478-39.64 8.994v14.704h45.734l29.333-30.088z" fill="#a15f98" fill-rule="nonzero"/><path d="M276.457 356.141v-29.929l36.378 36.424 39.585 9.048v14.703h-43.993l-31.97-30.246z" fill="#c37f9b" fill-rule="nonzero"/><path d="M395.611 357.467v23.652l-2.369 5.268h-40.821v-28.92h43.19z" fill="#b06f99" fill-rule="nonzero"/><path d="M309.201 357.467v23.652l2.369 5.268h40.822v-28.92h-43.191z" fill="#d58f9d" fill-rule="nonzero"/><path d="M352.705 76.686H275.27l-23.648 110.226 4.784 99.751 30.186 63.967 44.72 30.001 21.452 1.693V76.686h-.059z" fill="#fbc2aa" fill-rule="nonzero"/><path d="M430.257 76.686h-22.294v14.822-14.822h-55.199v305.638l21.452-1.693 44.72-30.001 30.185-63.967 7.742-99.592-26.606-110.385z" fill="#e8a0a1" fill-rule="nonzero"/><path d="M271.408 53.208l-23.529 121.46 20.544-70.901 35.845-14.408 56.479 7.178-23.596-9.674 48.188 3.82-15.029-10.424 37.652 11.249v-37.24l-136.554-1.06z" fill="#01639d" fill-rule="nonzero"/><path d="M341.155 174.668l-3.27 23.672-7.521 28.679-5.643 20.685 14.679 5.365 4.071.64h9.304v-79.041h-11.62z" fill="#c37f9b" fill-rule="nonzero"/><path d="M375.185 227.019l-8.227-28.754-2.564-23.597h-11.62v79.041h9.304l4.071-.641 14.679-5.364-5.643-20.685z" fill="#b06f99" fill-rule="nonzero"/><path d="M341.5 225.267l-14.17 12.847-2.609 9.59 16.434-6.941 11.62-5.669v-9.827H341.5z" fill="#e8a0a1" fill-rule="nonzero"/><path d="M380.828 247.704l-2.59-9.531-14.189-12.906h-11.274v9.827l11.62 5.669 16.433 6.941z" fill="#d58f9d" fill-rule="nonzero"/><path d="M349.222 174.668l-13.075 55.449 5.338 4.976h11.289v-60.425h-3.552z" fill="#f9b3a4" fill-rule="nonzero"/><path d="M367.6 228.485l-11.272-53.817h-3.553v60.427h11.29l3.535-6.61z" fill="#e8a0a1" fill-rule="nonzero"/><path d="M344.772 253.701l-3.386-.317-2.692-.573 2.132-7.33h6.198l-2.252 8.22z" fill="#b06f99" fill-rule="nonzero"/><path d="M360.473 253.718l3.271-.265 2.753-.513-2.185-7.459h-6.198l2.359 8.237z" fill="#a15f98" fill-rule="nonzero"/><path d="M341.521 225.267l-14.201 12.914 13.317-59.763h8.015l-7.131 46.849z" fill="#d58f9d" fill-rule="nonzero"/><path d="M364.064 225.267l14.202 12.914-13.318-59.763h-8.014l7.13 46.849z" fill="#c37f9b" fill-rule="nonzero"/><path d="M447.691 165.94l-20.414-3.619H383.73l-18.995 8.141-6.432 17.088 13.624 30.808 12.59 7.694 40.386-1.139 15.328-10.284 7.46-27.559 5.787-5.241V166.87l-5.787-.93z" fill="#045190" fill-rule="nonzero"/><path d="M437.262 170.297l-11.196-5.37h-40.178l-17.526 7.51-5.934 15.766 12.57 28.425 11.615 7.099 37.263-1.052 14.142-9.488 6.883-25.427-.429-5.461-3.627-8.372-3.583-3.63z" fill="#045190" fill-rule="nonzero"/><path d="M435.943 171.197l-10.913-5.236h-39.164l-17.084 7.322-5.784 15.368 12.252 27.708 11.323 6.92 36.321-1.026 13.787-9.248 6.709-24.785-.42-5.324-3.535-8.161-3.492-3.538z" fill="#d58f9d" fill-rule="nonzero"/><path d="M258.096 165.94l20.414-3.619h43.547l18.995 8.141 6.432 17.088-13.624 30.808-12.59 7.694-40.386-1.139-15.328-10.284-7.46-27.559-5.787-5.241V166.87l5.787-.93z" fill="#0475a5" fill-rule="nonzero"/><path d="M268.525 170.297l11.196-5.37h40.178l17.526 7.51 5.934 15.766-12.57 28.425-11.615 7.099-37.263-1.052-14.142-9.488-6.883-25.427.429-5.461 3.627-8.372 3.583-3.63zm84.456 14.102h-3.188l-2.309 3.152-6.432-17.089 6.431 3.426h5.498" fill="#0475a5" fill-rule="nonzero"/><path d="M352.771 184.399h3.189l2.343 3.152 3.497-9.462 2.936-7.627-6.467 3.426h-5.498" fill="#045190" fill-rule="nonzero"/><path d="M269.908 171.197l10.913-5.236h39.164l17.084 7.322 5.784 15.368-12.252 27.708-11.322 6.92-36.322-1.026-13.786-9.248-6.708-24.785.418-5.324 3.535-8.161 3.492-3.538z" fill="#f9b3a4" fill-rule="nonzero"/><path d="M427.438 54.393l-19.504-.152v37.24l5.296 1.582 25.042 28.263 8.125 42.555 9.619 49.785 12.826-74.589-41.404-84.684zm-148.151.405l19.504-.152v37.24l-5.296 1.583-25.041 28.262-8.126 42.555-9.618 49.785-12.827-74.589 41.404-84.684z" fill="#01639d" fill-rule="nonzero"/><path d="M275.591 208.403l-6.764-7.397v-21.232l6.423-7.059 48.652.011 8.769 11.756.379 16.524-6.387 7.397h-51.072z" fill="#e8a0a1" fill-rule="nonzero"/><path d="M302.575 195.589h9.321l15.487-4.924v-2.639l-11.968-9.673h-12.84.088-12.839l-14.598 9.673v2.639l18.116 4.924h9.321" fill="#fff" fill-rule="nonzero"/><path d="M275.226 190.664v-2.639l14.599-9.673h25.589l11.969 9.673v2.639l-11.969-9.288h-25.589l-14.599 9.288z" fill="#addfe5" fill-rule="nonzero"/><path d="M275.226 188.327v-1.882l14.599-9.674h25.589l11.969 9.674v1.882l-11.969-9.288h-25.589l-14.599 9.288z" fill="#0475a5" fill-rule="nonzero"/><path d="M304.089 194.263l-4.886-4.887v-6.912l4.886-4.887h6.912l4.887 4.887v6.912l-4.887 4.887h-6.912z" fill="#0475a5" fill-rule="nonzero"/><path d="M307.828 187.428l-1.947-1.947v-2.753l1.947-1.948h2.753l1.947 1.948v2.753l-1.947 1.947h-2.753z" fill="#addfe5" fill-rule="nonzero"/><path d="M302.109 204.188h-15.613l-9.739-5.665h25.352v5.665z" fill="#c37f9b" fill-rule="nonzero"/><path d="M301.857 204.188h15.613l9.739-5.665h-25.352v5.665z" fill="#b06f99" fill-rule="nonzero"/><path d="M379.906 208.345l-6.764-7.397v-21.232l6.423-7.059 48.652.011 8.769 11.756.379 16.524-6.387 7.397h-51.072z" fill="#c37f9b" fill-rule="nonzero"/><path d="M406.89 195.531h9.321l15.487-4.926v-2.637l-11.969-9.673H406.89h.088-12.839l-14.598 9.673v2.637l18.116 4.926h9.321" fill="#addfe5" fill-rule="nonzero"/><path d="M379.541 190.606v-2.639l14.598-9.673h25.59l11.969 9.673v2.639l-11.969-9.288h-25.59l-14.598 9.288z" fill="#00bac8" fill-rule="nonzero"/><path d="M379.541 188.269v-1.882l14.598-9.674h25.59l11.969 9.674v1.882l-11.969-9.288h-25.59l-14.598 9.288z" fill="#045190" fill-rule="nonzero"/><path d="M408.404 194.205l-4.886-4.887v-6.912l4.886-4.887h6.912l4.887 4.887v6.912l-4.887 4.887h-6.912z" fill="#045190" fill-rule="nonzero"/><path d="M412.143 186.992l-1.947-1.947v-2.376l1.947-1.946 2.753-.379 1.947 1.948v2.753l-1.947 1.947h-2.753z" fill="#00bac8" fill-rule="nonzero"/><path d="M406.424 204.13h-15.613l-9.739-5.665h25.352v5.665z" fill="#b06f99" fill-rule="nonzero"/><path d="M406.172 204.13h15.613l9.739-5.665h-25.352v5.665z" fill="#a15f98" fill-rule="nonzero"/><path d="M285.417 162.871l-14.895-2.287 2.559-1.88 9.713-5.873 33.876 2.54 8.895.672 1.686 7.753H316.67l-31.253-.925z" fill="#0475a5" fill-rule="nonzero"/><path d="M420.528 162.871l14.895-2.287-2.559-1.88-9.713-5.873-33.876 2.54-8.895.672-1.686 7.753h10.581l31.253-.925z" fill="#045190" fill-rule="nonzero"/><path d="M252.883 205.872l-17.928-16.62-6.282 8.109 9.675 47.793 17.177 23.812-2.642-63.094z" fill="#f9b3a4" fill-rule="nonzero"/><path d="M244.186 207.626l-7.961-7.356-2.913 3.76 4.485 22.16 7.844 11.064-1.455-29.628z" fill="#fbc2aa" fill-rule="nonzero"/><path d="M452.725 205.494l18.306-16.242 6.281 8.11-9.673 47.792-16.916 23.861 2.002-63.521z" fill="#e8a0a1" fill-rule="nonzero"/><path d="M461.044 207.626l7.961-7.356 2.913 3.76-4.485 22.16-7.844 11.064 1.455-29.628z" fill="#d58f9d" fill-rule="nonzero"/><path d="M352.775 280.723v-.044m0 0v.044" fill="none" stroke-width="1.33" stroke="#000"/><path d="M352.775 280.723v24.846h.202l-.202.034 11.713 1.994 25.86-17.825-24.845-11.839-12.728 2.746v.044z" fill="#a15f98" fill-rule="nonzero"/><path d="M352.775 280.679l-12.728-2.745-24.846 11.838 25.86 17.826 11.714-1.995-.203-.035h.203v-24.845" fill="#b06f99" fill-rule="nonzero"/><path d="M352.775 305.603v-12.837H334.3l-19.099-2.993 25.86 17.824" fill="#d58f9d" fill-rule="nonzero"/><path d="M390.348 289.772l-19.302 2.994h-18.271v12.837l11.713 1.995 25.86-17.826z" fill="#c37f9b" fill-rule="nonzero"/><path d="M364.229 310.311l-11.455-2.018v10.588l11.455-8.57z" fill="#045190" fill-rule="nonzero"/><path d="M352.775 308.293l-.056-.011-11.602 2.03 11.556 8.645.102-.076v-10.588z" fill="#0475a5" fill-rule="nonzero"/><path d="M299.17 442.329l47.43 43.244h6.175v-43.244H299.17z" fill="#f9b3a4" fill-rule="nonzero"/><path d="M352.775 442.329v43.244h6.174l47.344-43.244h-53.518z" fill="#c37f9b" fill-rule="nonzero"/><path d="M123.221 628.371h39.401l-34.613-101.912-4.788 101.912z" fill="#0389af" fill-rule="nonzero"/><path d="M543.318 628.371h39.402l-4.787-101.912-34.615 101.912z" fill="#01639d" fill-rule="nonzero"/><path d="M341.155 240.763h11.62v-15.496l-16.627 4.851 5.007 10.645z" fill="#fbc2aa" fill-rule="nonzero"/><path d="M367.6 228.485l-14.825-3.194v15.473h11.62l3.205-12.279z" fill="#f9b3a4" fill-rule="nonzero"/><path d="M282.428 91.213l21.067-8.75 25.225 4.374-12.385-7.944 36.79 4.615-15.14-8.937 47.379 4.322 20.857 6.307-23.3-18.343-51.798-4.917-37.351 14.636-11.344 14.637zm29.92 195.234l-1.819-.651 4.21-11.77 1.818.65-4.209 11.771zm7.32-4.702l-1.819-.651 4.209-11.77 1.819.65-4.209 11.771zm7.319-4.702l-1.818-.651 4.209-11.77 1.819.65-4.21 11.771zm7.32-4.702l-1.819-.651 4.21-11.771 1.818.651-4.209 11.771zm7.429 0l-1.819-.651 4.21-11.771 1.818.651-4.209 11.771zm53.328 14.106l1.819-.651-4.21-11.77-1.818.65 4.209 11.771zm-7.32-4.702l1.819-.651-4.209-11.77-1.819.65 4.209 11.771zm-7.319-4.702l1.818-.651-4.209-11.77-1.819.65 4.21 11.771zm-7.32-4.702l1.819-.651-4.21-11.771-1.818.651 4.209 11.771zm-7.429 0l1.819-.651-4.21-11.771-1.818.651 4.209 11.771z" fill="#0475a5" fill-rule="nonzero"/><path d="M427.571 40.162l-9.901-15.024v8.912l-7.059-11.644v8.195l-41.229-15.707-27.898 8.195v-8.195l-9.29 10.244-13.234-5.464 5.762 5.464h-18.556l12.777 4.098-46.779 23.972-11.766 23.369 69.768-30.736 62.77 4.565 15.026 3.82L438.3 61.94l-10.729-21.778z" fill="#0475a5" fill-rule="nonzero"/><path d="M403.413 39.472l2.809 14.702-49.289-14.702-21.993 11.2 73.022 6.699v-3.144 3.144l16.834 1.545-21.383-19.444z" fill="#01639d" fill-rule="nonzero"/><path d="M254.769 261.271l44.401 45.676v52.163l-12.578-8.481-30.186-63.967-2.197-25.391h.56z" fill="#e8a0a1" fill-rule="nonzero"/><path d="M450.775 261.271l-44.401 45.676v52.163l12.579-8.481 30.185-63.967 2.197-25.391h-.56z" fill="#c37f9b" fill-rule="nonzero"/><path fill="#0475a5" fill-rule="nonzero" d="M258.079 276.246h1.585v10.26h-1.585zm4.672 10.424h1.585v10.26h-1.585zm4.673 10.046h1.585v10.26h-1.585zm4.672 9.668h1.585v10.26h-1.585zm4.672 9.668h1.585v10.26h-1.585zm4.673 8.912h1.585v10.26h-1.585zm4.672 11.18h1.585v10.26h-1.585zm4.672 4.755h1.585v10.26h-1.585zm6.163 4.175h1.585v10.26h-1.585zm6.163 4.174h1.585v10.26h-1.585zm6.162 4.175h1.585v10.26h-1.585zm6.163 4.175h1.585v10.26h-1.585zm6.163 4.174h1.585v10.26h-1.585zm6.162 4.175h1.585v10.26h-1.585zm5.856 3.081h1.585v10.26h-1.585zm7.156 0h1.585v10.26h-1.585zm7.158 0h1.585v10.26h-1.585zM258.079 260.75h1.585v10.26h-1.585zm4.672 10.424h1.585v10.26h-1.585zm4.673 10.046h1.585v10.26h-1.585zm4.672 9.668h1.585v10.26h-1.585zm4.672 9.668h1.585v10.26h-1.585zm4.673 8.912h1.585v10.26h-1.585zm4.672 11.18h1.585v10.26h-1.585zm4.672 4.755h1.585v10.26h-1.585zm-32.706-80.149h1.585v10.26h-1.585zm4.672 10.424h1.585v10.26h-1.585zm4.673 10.045h1.585v10.26h-1.585zm4.672 9.669h1.585v10.26h-1.585zm4.672 9.668h1.585v10.26h-1.585zm4.673 8.912h1.585v10.26h-1.585zm4.672 11.18h1.585v10.26h-1.585zm4.672 4.755h1.585v10.26h-1.585zm6.163 19.671h1.585v10.26h-1.585zm6.163 4.174h1.585v10.26h-1.585zm6.162 4.175h1.585v10.26h-1.585zm6.163 4.175h1.585v10.26h-1.585zm6.163 4.174h1.585v10.26h-1.585zm6.162 4.175h1.585v10.26h-1.585zm0-15.496h1.585v10.26h-1.585zm5.856 18.577h1.585v10.26h-1.585zm7.156 0h1.585v10.26h-1.585zm7.158 0h1.585v10.26h-1.585zm-14.314-15.496h1.585v10.26h-1.585zm7.156 0h1.585v10.26h-1.585zm7.158 0h1.585v10.26h-1.585zm-7.158-15.496h1.585v10.26h-1.585zm7.158 0h1.585v10.26h-1.585zm98.268-46.294h1.585v10.26h-1.585zm-4.674 10.424h1.585v10.26h-1.585zm-4.672 10.046h1.585v10.26h-1.585zm-4.673 9.668h1.585v10.26h-1.585zm-4.672 9.668h1.585v10.26h-1.585zm-4.672 8.912h1.585v10.26h-1.585zm-4.673 11.18h1.585v10.26h-1.585zm-4.672 4.755h1.585v10.26h-1.585zm-6.163 4.175h1.585v10.26h-1.585zm-6.163 4.174h1.585v10.26h-1.585zm-6.162 4.175h1.585v10.26h-1.585zm-6.163 4.175h1.585v10.26h-1.585zm-6.163 4.174h1.585v10.26h-1.585zm-6.162 4.175h1.585v10.26h-1.585zm-5.856 3.081h1.585v10.26h-1.585zm-7.156 0h1.585v10.26h-1.585zm-7.156 0h1.585v10.26h-1.585zm89.852-108.278h1.585v10.26h-1.585zm-4.674 10.424h1.585v10.26h-1.585zm-4.672 10.046h1.585v10.26h-1.585zm-4.673 9.668h1.585v10.26h-1.585zm-4.672 9.668h1.585v10.26h-1.585zm-4.672 8.912h1.585v10.26h-1.585zm-4.673 11.18h1.585v10.26h-1.585zm-4.672 4.755h1.585v10.26h-1.585zm32.708-80.149h1.585v10.26h-1.585zm-4.674 10.424h1.585v10.26h-1.585zm-4.672 10.045h1.585v10.26h-1.585zm-4.673 9.669h1.585v10.26h-1.585zm-4.672 9.668h1.585v10.26h-1.585zm-4.672 8.912h1.585v10.26h-1.585zm-4.673 11.18h1.585v10.26h-1.585zm-4.672 4.755h1.585v10.26h-1.585zm-6.163 19.671h1.585v10.26h-1.585zm-6.163 4.174h1.585v10.26h-1.585zm-6.162 4.175h1.585v10.26h-1.585zm-6.163 4.175h1.585v10.26h-1.585zm-6.163 4.174h1.585v10.26h-1.585zm-6.162 4.175h1.585v10.26h-1.585zm0-15.496h1.585v10.26h-1.585zm-5.856 18.577h1.585v10.26h-1.585zm-7.156 0h1.585v10.26h-1.585zm-7.156 0h1.585v10.26h-1.585zm14.312-15.496h1.585v10.26h-1.585zm-7.156 0h1.585v10.26h-1.585zm-7.156 0h1.585v10.26h-1.585zm7.156-15.496h1.585v10.26h-1.585zm-7.156 0h1.585v10.26h-1.585z"/><path d="M340.862 170.382l.203.087 6.65 16.689-.333.56-6.52-17.336z" fill="#0475a5"/><path d="M400.657 73.33l6.341 10.588 10.478-5.57 1.819-10.643-5.624-2.702-12.906 1.103-.108 7.224z" fill="#00629c"/><path d="M406.516 90.175l6.853 2.96 1.626-15.148-6.934.115-1.92 8.114-2.159.308 2.534 3.651z" fill="#00629c"/><path d="M364.706 170.483l.35-.156-6.406 17.677-1.488-2.177 7.544-15.344z" fill="#045190"/></svg>