<?xml version="1.0" encoding="UTF-8" standalone="no"?>
<svg width="51px" height="49px" viewBox="0 0 51 49" version="1.1" xmlns="http://www.w3.org/2000/svg" xmlns:xlink="http://www.w3.org/1999/xlink">
    <!-- Generator: Sketch 3.7 (28169) - http://www.bohemiancoding.com/sketch -->
    <title>Shape</title>
    <desc>Created with Sketch.</desc>
    <defs></defs>
    <g id="Accueil" stroke="none" stroke-width="1" fill="none" fill-rule="evenodd">
        <g id="Accueil_Desktop_HD-Copy" transform="translate(-696.000000, -2913.000000)" fill="#00BAC8">
            <g id="arrow-down" transform="translate(696.000000, 2912.467084)">
                <path d="M50.8262242,23.8464273 C50.8262242,24.9990977 50.4238776,25.9777795 49.6191823,26.7824728 L28.3817812,48.0524984 C27.5335898,48.8571918 26.5440344,49.2595385 25.4131111,49.2595385 C24.2604428,49.2595385 23.281759,48.8571918 22.4770656,48.0524984 L1.23966458,26.7824728 C0.413220226,25.9995285 0,25.0208448 0,23.8464273 C0,22.693757 0.413220226,21.7041996 1.23966458,20.8777572 L3.65374658,18.4310526 C4.50193803,17.6263573 5.49149342,17.2240107 6.62241471,17.2240107 C7.77508504,17.2240107 8.75376688,17.6263573 9.55846218,18.4310526 L19.149547,28.0221374 L19.149547,5.05573088 C19.149547,3.92480765 19.5627672,2.94612581 20.3892096,2.11968341 C21.2156539,1.29324101 22.1943358,0.880018834 23.3252571,0.880018834 L27.5009672,0.880018834 C28.6318885,0.880018834 29.6105703,1.29324101 30.4370127,2.11968341 C31.263457,2.94612581 31.6766773,3.92480765 31.6766773,5.05573088 L31.6766773,28.0221374 L41.2677621,18.4310526 C42.0724574,17.6263573 43.0511392,17.2240107 44.2038095,17.2240107 C45.3347308,17.2240107 46.3242862,17.6263573 47.1724777,18.4310526 L49.6191823,20.8777572 C50.4238776,21.7259487 50.8262242,22.715506 50.8262242,23.8464273 L50.8262242,23.8464273 Z" id="Shape"></path>
            </g>
        </g>
    </g>
</svg>