<?xml version="1.0" encoding="UTF-8" standalone="no"?>
<svg width="20px" height="20px" viewBox="0 0 20 20" version="1.1" xmlns="http://www.w3.org/2000/svg" xmlns:xlink="http://www.w3.org/1999/xlink">
    <!-- Generator: Sketch 3.7 (28169) - http://www.bohemiancoding.com/sketch -->
    <title>Combined Shape</title>
    <desc>Created with Sketch.</desc>
    <defs></defs>
    <g id="Accueil" stroke="none" stroke-width="1" fill="none" fill-rule="evenodd">
        <g id="Accueil_Desktop_HD-Copy" transform="translate(-1094.000000, -1833.000000)" fill="#FFFFFF">
            <g id="Card_center" transform="translate(218.000000, 1616.511915)">
                <g id="bloc_droit" transform="translate(670.000000, 0.000000)">
                    <g id="Group-12" transform="translate(109.000000, 215.000000)">
                        <g id="facebook-with-circle" transform="translate(0.159102, 1.867092)">
                            <g id="Facebook_w_x2F__circle">
                                <g id="social">
                                    <path d="M106.8,0.132907879 C101.498,0.132907879 97.2,4.43090788 97.2,9.73290788 C97.2,15.0349079 101.498,19.3329079 106.8,19.3329079 C112.102,19.3329079 116.4,15.0349079 116.4,9.73290788 C116.4,4.43090788 112.102,0.132907879 106.8,0.132907879 Z M106.156261,9.34692603 C106.156261,9.34692603 107.186926,9.26684795 107.186926,8.00738863 C107.186926,6.74629507 106.343655,6.13290788 105.274857,6.13290788 L101.759048,6.13290788 L101.759048,13.1743314 L105.274857,13.1743314 C105.274857,13.1743314 107.421713,13.244604 107.421713,11.0955698 C107.421168,11.095025 107.514865,9.34692603 106.156261,9.34692603 Z M103.308314,7.38365121 L105.274857,7.38365121 C105.274857,7.38365121 105.753147,7.38365121 105.753147,8.11579365 C105.753147,8.84902559 105.472057,8.95525161 105.152834,8.95525161 L103.308314,8.95525161 L103.308314,7.38365121 Z M105.175168,11.9224985 L103.308314,11.9224985 L103.308314,10.0403913 L105.274857,10.0403913 C105.274857,10.0403913 105.987389,10.0305858 105.987389,11.0073205 C105.987389,11.8309807 105.455169,11.9165063 105.175168,11.9224985 Z M110.283823,7.92349731 C107.684826,7.92349731 107.687005,10.6292648 107.687005,10.6292648 C107.687005,10.6292648 107.509417,13.3208688 110.283823,13.3208688 C110.283823,13.3208688 112.595192,13.459235 112.595192,11.448567 L111.40655,11.448567 C111.40655,11.448567 111.445772,12.2063127 110.32359,12.2063127 C110.32359,12.2063127 109.133858,12.2891145 109.133858,10.9806278 L112.63278,10.9806278 C112.633325,10.980083 113.019007,7.92349731 110.283823,7.92349731 Z M111.341181,10.0403913 L109.121874,10.0403913 C109.121874,10.0403913 109.266777,8.95525161 110.310516,8.95525161 C111.354255,8.95525161 111.341181,10.0403913 111.341181,10.0403913 Z M111.617368,6.54637225 L108.829888,6.54637225 L108.829888,7.4147019 L111.617368,7.4147019 L111.617368,6.54637225 Z" id="Combined-Shape"></path>
                                </g>
                            </g>
                        </g>
                    </g>
                </g>
            </g>
        </g>
    </g>
</svg>