<?xml version="1.0" encoding="UTF-8" standalone="no"?>
<svg width="55px" height="55px" viewBox="0 0 55 55" version="1.1" xmlns="http://www.w3.org/2000/svg" xmlns:xlink="http://www.w3.org/1999/xlink">
    <!-- Generator: Sketch 3.6.1 (26313) - http://www.bohemiancoding.com/sketch -->
    <title>github</title>
    <desc>Created with Sketch.</desc>
    <defs></defs>
    <g id="Accueil" stroke="none" stroke-width="1" fill="none" fill-rule="evenodd">
        <g id="Accueil_Desktop_HD" transform="translate(-616.000000, -3535.000000)">
            <g id="footer" transform="translate(-1.000000, 3379.000000)">
                <g id="social_buttons" transform="translate(436.000000, 129.000000)">
                    <g id="github" transform="translate(154.000000, 0.000000)">
                        <g transform="translate(27.000000, 27.000000)">
                            <rect id="Rectangle-285" stroke="#979797" fill="#344557" x="10" y="6" width="36" height="41"></rect>
                            <path d="M55,5.12875 C55,2.29625 52.70375,0 49.87125,0 L5.12875,0 C2.29625,0 0,2.29625 0,5.12875 L0,49.8695313 C0,52.70375 2.29625,55 5.12875,55 L49.8695313,55 C52.70375,55 55,52.70375 55,49.87125 L55,5.12875 L55,5.12875 Z M31.94125,32.071875 C33.4348438,33.01375 33.8645313,34.1928125 33.8645313,37.379375 C33.8645313,40.5710937 33.8215625,41.0007812 33.8301563,41.7364062 C33.8473438,42.9378125 35.6107813,43.511875 35.54375,43.9020312 C35.4784375,44.2904687 34.0690625,44.226875 33.4073438,43.9965625 C31.5407813,43.3485937 31.728125,41.7914062 31.728125,41.7914062 L31.6610938,37.5271875 L30.9375,35.2309375 L30.9375,42.2142187 C30.9375,43.731875 32.0048438,44.1925 32.0048438,44.7528125 C32.0048438,45.7204687 30.064375,44.6617187 29.46625,44.0601562 C28.5570313,43.1457812 28.6601563,41.2053125 28.6807813,39.6721875 C28.703125,38.190625 28.6670313,34.9473437 28.6670313,34.9473437 L28.05,34.959375 C28.05,34.959375 28.304375,42.0389062 27.7251563,43.3314062 C26.9757813,44.9882812 24.7139063,45.5589062 24.7139063,44.8026562 C24.7139063,44.2939062 25.2690625,44.4571875 25.5801563,43.319375 C25.8414063,42.3517187 25.7520313,35.13125 25.7520313,35.13125 C25.7520313,35.13125 25.0267188,35.5626562 25.0267188,36.9153125 C25.0267188,37.5323437 25.0095313,41.0678125 25.0095313,42.1196875 C25.0095313,43.4448437 23.1292188,44.1959375 22.226875,44.1959375 C21.7696875,44.1959375 21.2025,44.171875 21.2025,43.9295312 C21.2025,43.319375 22.9195313,42.961875 22.9195313,41.6865625 C22.9195313,40.5796875 22.8954688,37.7420312 22.8954688,37.7420312 C22.8954688,37.7420312 22.0275,37.8898437 20.7917188,37.8898437 C17.675625,37.8898437 16.6890625,35.90125 16.2215625,34.7875 C15.613125,33.3385937 14.8207813,32.6596875 13.9785938,32.113125 C13.46125,31.7796875 13.3426563,31.3826562 13.9407813,31.2726562 C16.699375,30.751875 17.4057813,34.3990625 19.2482813,34.9834375 C20.563125,35.3942187 22.2526563,35.2171875 23.0914063,34.670625 C23.2014063,33.556875 24.0075,32.594375 24.6760938,32.0873437 C20.28125,31.66625 14.4976563,28.9798437 14.4976563,21.4259375 C14.4976563,18.41125 15.4378125,17.2751562 16.699375,15.6646875 C15.7334375,12.2271875 17.0448438,9.87765625 17.0448438,9.87765625 C17.0448438,9.87765625 19.0729688,9.45828125 22.9057813,12.2048437 C24.98375,11.3128125 30.5232813,11.2371875 33.144375,12.0071875 C34.753125,10.945 37.6939063,9.4359375 38.8815625,9.85703125 C39.2046875,10.374375 39.895625,11.8817187 39.3026563,15.1971875 C39.7048438,15.9242187 41.8085938,17.4728125 41.8085938,21.8470312 C41.8103125,29.1070312 36.1607813,31.63875 31.94125,32.071875 L31.94125,32.071875 Z" id="Shape" fill="#FFFFFF"></path>
                        </g>
                    </g>
                </g>
            </g>
        </g>
    </g>
</svg>