<?xml version="1.0" encoding="UTF-8" standalone="no"?>
<svg width="63px" height="58px" viewBox="0 0 63 58" version="1.1" xmlns="http://www.w3.org/2000/svg" xmlns:xlink="http://www.w3.org/1999/xlink">
    <!-- Generator: Sketch 3.7 (28169) - http://www.bohemiancoding.com/sketch -->
    <title>lunettes</title>
    <desc>Created with Sketch.</desc>
    <defs>
        <polygon id="path-1" points="30.7279843 57 60.977 57 60.977 0.213889334 0.478968681 0.213889334 0.478968681 57 30.7279843 57"></polygon>
    </defs>
    <g id="Accueil" stroke="none" stroke-width="1" fill="none" fill-rule="evenodd">
        <g id="Accueil_Desktop_HD-Copy" transform="translate(-1011.000000, -2902.000000)">
            <g id="lunettes" transform="translate(1011.944810, 2902.060017)">
                <path d="M1.5004,53.888 C1.0934,53.888 0.6874,53.723 0.3914,53.399 C-0.1666,52.786 -0.1226,51.837 0.4894,51.28 C0.5924,51.186 10.9224,41.786 22.1274,33.027 C43.0434,16.677 48.8824,16.541 51.4584,17.867 C52.1954,18.246 52.4854,19.151 52.1064,19.887 C51.7284,20.623 50.8244,20.916 50.0864,20.536 C47.0624,18.975 30.2904,28.176 2.5104,53.496 C2.2234,53.759 1.8614,53.888 1.5004,53.888" id="Fill-1" fill="#666666"></path>
                <path d="M19.7328,48.9954 C19.1388,48.9954 18.5758,48.6404 18.3408,48.0554 C17.2608,45.3704 17.9308,39.5664 36.1438,20.2504 C45.8998,9.9024 56.2138,0.4854 56.3168,0.3914 C56.9288,-0.1676 57.8778,-0.1216 58.4358,0.4894 C58.9938,1.1014 58.9498,2.0514 58.3368,2.6084 C30.5568,27.9324 19.8528,43.7734 21.1238,46.9354 C21.4328,47.7044 21.0608,48.5774 20.2918,48.8874 C20.1088,48.9614 19.9198,48.9954 19.7328,48.9954" id="Fill-3" fill="#666666"></path>
                <path d="M25.5908,32.5902 C25.4148,32.3402 25.2478,32.0892 25.0938,31.8652 C21.5988,32.6742 9.4508,36.4362 4.6928,50.5512 C6.1718,51.8902 10.1858,54.9882 15.1348,54.9882 L15.1368,54.9882 C18.2678,54.9882 21.3088,53.7792 24.1748,51.2782 C33.2338,43.3772 28.4488,36.6352 25.5908,32.5902" id="Fill-5" fill="#E6E6E6"></path>
                <path d="M55.4311,4.3665 C41.0761,7.7725 36.0761,19.5895 34.9241,22.9635 C35.1311,23.1365 35.3481,23.3225 35.5791,23.5185 C37.7781,25.3985 41.1011,28.2395 45.2561,28.2395 C48.2201,28.2395 51.2791,26.7595 54.3471,23.8385 C62.9351,15.6615 57.3201,6.8405 55.4311,4.3665" id="Fill-7" fill="#E6E6E6"></path>
                <g id="Group-11" transform="translate(1.000000, 0.988600)">
                    <mask id="mask-2" fill="white">
                        <use xlink:href="#path-1"></use>
                    </mask>
                    <g id="Clip-10"></g>
                    <path d="M14.1367,54 L14.1357,54 C9.1857,54 5.1717,50.901 3.6927,49.563 C8.4507,35.447 20.5987,31.686 24.0937,30.877 C24.2477,31.101 24.4147,31.352 24.5907,31.602 C27.4497,35.646 32.2337,42.389 23.1747,50.29 C20.3087,52.791 17.2677,54 14.1367,54 M44.2557,27.251 C40.1007,27.251 36.7777,24.41 34.5787,22.53 C34.3487,22.334 34.1317,22.147 33.9247,21.975 C35.0767,18.601 40.0757,6.784 54.4307,3.378 C56.3197,5.852 61.9357,14.673 53.3467,22.85 C50.2787,25.77 47.2197,27.251 44.2557,27.251 M56.1237,0.71 C55.7667,0.312 55.2277,0.139 54.7027,0.244 C38.0077,3.712 32.3937,17.044 31.0687,21.034 C26.4027,21.38 24.2377,25.195 23.5297,27.96 C19.5607,28.86 5.5807,33.146 0.5447,49.582 C0.3887,50.092 0.5147,50.618 0.8767,51.01 C1.1047,51.257 6.5497,57 14.1357,57 L14.1367,57 C18.0137,57 21.7197,55.54 25.1477,52.549 C36.2467,42.868 29.7957,33.795 27.0407,29.895 C26.7877,29.537 26.5727,29.225 26.3837,28.94 C26.5017,28.352 26.6607,27.83 26.8577,27.373 C27.6827,25.458 29.0987,24.621 30.2647,24.269 C30.8317,24.098 31.3327,24.039 31.6797,24.02 C31.9587,24.243 32.2677,24.501 32.6297,24.811 C35.0097,26.846 38.9937,30.251 44.2557,30.251 C48.0157,30.251 51.7707,28.492 55.4157,25.021 C67.4417,13.573 56.2377,0.837 56.1237,0.71" id="Fill-9" fill="#666666" mask="url(#mask-2)"></path>
                </g>
                <path d="M27.8578,28.3616 L31.2648,25.2576 C30.0988,25.6096 28.6828,26.4466 27.8578,28.3616" id="Fill-12" fill="#FF6370"></path>
            </g>
        </g>
    </g>
</svg>